<svg xmlns="http://www.w3.org/2000/svg" width="24" height="24" viewBox="0 0 24 24">
  <path d="M20.372093,3 C20.6841981,3 20.9431187,3.22771006 20.9917818,3.5260572 L21,3.62790698 L21,20.372093 C21,20.6841981 20.7722899,20.9431187 20.4739428,20.9917818 L20.372093,21 L12,21 C11.6878949,21 11.4289743,20.7722899 11.3803113,20.4739428 L11.372093,20.372093 L11.372093,3.62790698 C11.372093,3.31580187 11.5998031,3.05688131 11.8981502,3.00821824 L12,3 L20.372093,3 Z M7.81395349,19.744186 C8.16073694,19.744186 8.44186047,20.0253096 8.44186047,20.372093 C8.44186047,20.6841981 8.21415041,20.9431187 7.91580326,20.9917818 L7.81395349,21 L3.62790698,21 C3.28112353,21 3,20.7188765 3,20.372093 C3,20.0599879 3.22771006,19.8010674 3.5260572,19.7524043 L3.62790698,19.744186 L7.81395349,19.744186 Z M19.744186,4.25581395 L12.627907,4.25581395 L12.627907,19.744186 L19.744186,19.744186 L19.744186,4.25581395 Z M5.72093023,15.5581395 C6.06771368,15.5581395 6.34883721,15.8392631 6.34883721,16.1860465 C6.34883721,16.4981516 6.12112715,16.7570722 5.82278001,16.8057352 L5.72093023,16.8139535 L3.62790698,16.8139535 C3.28112353,16.8139535 3,16.53283 3,16.1860465 C3,15.8739414 3.22771006,15.6150208 3.5260572,15.5663578 L3.62790698,15.5581395 L5.72093023,15.5581395 Z M7.81395349,11.372093 C8.16073694,11.372093 8.44186047,11.6532166 8.44186047,12 C8.44186047,12.3121051 8.21415041,12.5710257 7.91580326,12.6196887 L7.81395349,12.627907 L3.62790698,12.627907 C3.28112353,12.627907 3,12.3467834 3,12 C3,11.6878949 3.22771006,11.4289743 3.5260572,11.3803113 L3.62790698,11.372093 L7.81395349,11.372093 Z M5.72093023,7.18604651 C6.06771368,7.18604651 6.34883721,7.46717004 6.34883721,7.81395349 C6.34883721,8.12605859 6.12112715,8.38497916 5.82278001,8.43364222 L5.72093023,8.44186047 L3.62790698,8.44186047 C3.28112353,8.44186047 3,8.16073694 3,7.81395349 C3,7.50184839 3.22771006,7.24292782 3.5260572,7.19426475 L3.62790698,7.18604651 L5.72093023,7.18604651 Z M7.81395349,3 C8.16073694,3 8.44186047,3.28112353 8.44186047,3.62790698 C8.44186047,3.94001208 8.21415041,4.19893265 7.91580326,4.24759571 L7.81395349,4.25581395 L3.62790698,4.25581395 C3.28112353,4.25581395 3,3.97469042 3,3.62790698 C3,3.31580187 3.22771006,3.05688131 3.5260572,3.00821824 L3.62790698,3 L7.81395349,3 Z"/>
</svg>
