<svg xmlns="http://www.w3.org/2000/svg" width="20" height="24" viewBox="0 0 20 24">
    <path fill="#000" fill-rule="nonzero" d="M10 12.164c-3.35 0-6.066-2.723-6.066-6.082S6.65 0 10 0c3.35 0 6.066 2.723 6.066 6.082 0 3.36-2.716 6.082-6.066 6.082zm0-2.301a3.776 3.776 0 0 0 3.77-3.78A3.776 3.776 0 0 0 10 2.3a3.776 3.776 0 0 0-3.77 3.781A3.776 3.776 0 0 0 10 9.863zm0 3.945c5.73 0 10 3.52 10 7.069v1.972A1.15 1.15 0 0 1 18.852 24H1.148A1.15 1.15 0 0 1 0 22.85v-1.973c0-3.556 4.266-7.069 10-7.069zm7.705 7.89v-.821c0-2.168-3.154-4.767-7.705-4.767-4.555 0-7.705 2.593-7.705 4.767v.822h15.41z"/>
</svg>
