<svg width="20" height="20" viewBox="0 0 20 20" xmlns="http://www.w3.org/2000/svg">
    <g fill="#AFB9C5" fill-rule="evenodd">
        <path fill="none" d="M0 0h20v20H0z"/>
        <path d="M10 3.333c3.668 0 6.667 2.999 6.667 6.667 0 3.668-2.999 6.667-6.667 6.667-3.668 0-6.667-2.999-6.667-6.667 0-3.668 2.999-6.667 6.667-6.667zm0 1.143c-3.037 0-5.524 2.487-5.524 5.524S6.963 15.524 10 15.524s5.524-2.487 5.524-5.524S13.037 4.476 10 4.476zm0 7.81c.457 0 .762.304.762.762 0 .457-.305.762-.762.762s-.762-.305-.762-.762c0-.458.305-.762.762-.762zm0-6.096c1.295 0 2.286.991 2.286 2.286 0 1.067-.686 1.524-1.143 1.829-.35.21-.378.29-.38.42l-.001.57a.229.229 0 0 1-.229.229H9.467a.229.229 0 0 1-.229-.229v-.533c0-.99.61-1.448 1.067-1.752l.179-.112c.227-.15.278-.235.278-.422 0-.457-.305-.762-.762-.762a.8.8 0 0 0-.686.381l-.267.481a.229.229 0 0 1-.262.11l-.054-.024-.9-.53a.229.229 0 0 1-.085-.308l.273-.49A2.274 2.274 0 0 1 10 6.19z"/>
    </g>
</svg>
