<svg xmlns="http://www.w3.org/2000/svg" width="24" height="24" viewBox="0 0 24 24">
  <path d="M17.1535534,6.35355339 L17.6464466,6.84644661 C17.8417197,7.04169784 17.8417197,7.35828033 17.6464575,7.55354248 C17.6464539,7.55354612 17.6464502,7.55354975 17.6464357,7.55354248 L13.1997612,11.9999425 L13.1997612,11.9999425 L17.6464399,16.4464533 C17.8417124,16.6417051 17.8417184,16.9582876 17.64646,17.1535534 C17.6464577,17.1535556 17.6464555,17.1535578 17.6464466,17.1535534 L17.1535534,17.6464466 C16.9582979,17.8417154 16.6417154,17.8417154 16.4464533,17.6464533 C16.4464511,17.6464511 16.4464488,17.6464488 16.4464533,17.6464399 L11.9999425,13.1997612 L11.9999425,13.1997612 L7.55354248,17.6464357 C7.35829727,17.8417148 7.04171478,17.8417246 6.84644661,17.6464684 C6.84644297,17.6464648 6.84643934,17.6464612 6.84644661,17.6464466 L6.35355339,17.1535534 C6.15833132,16.9582737 6.15831842,16.6417134 6.35352457,16.4464178 L10.7992751,11.9999425 L10.7992751,11.9999425 L6.35352881,7.55357797 C6.15831442,7.35828727 6.15832542,7.04172374 6.35355339,6.84644661 L6.84644661,6.35355339 C7.04172374,6.15832542 7.35828727,6.15831442 7.55357797,6.35352881 L11.9999425,10.7992751 L11.9999425,10.7992751 L16.4464178,6.35352457 C16.6417134,6.15831842 16.9582737,6.15833132 17.1535534,6.35355339 Z"/>
</svg>
