<?xml version="1.0" encoding="UTF-8"?>
<svg width="94px" height="18px" viewBox="0 0 94 18" version="1.1" xmlns="http://www.w3.org/2000/svg" xmlns:xlink="http://www.w3.org/1999/xlink">
    <title>Amazon_Pay_logo</title>
    <defs>
        <rect id="path-1" x="0" y="0" width="94" height="18"></rect>
    </defs>
    <g id="Symbols" stroke="none" stroke-width="1" fill="none" fill-rule="evenodd">
        <g id="Components-/-Login-Component-/-Desktop-/-Express-Checkout-V2" transform="translate(-406.000000, -53.000000)">
            <g id="Group-5" transform="translate(366.000000, 40.000000)">
                <g id="Amazon_Pay_logo" transform="translate(40.000000, 13.000000)">
                    <mask id="mask-2" fill="white">
                        <use xlink:href="#path-1"></use>
                    </mask>
                    <g id="Rectangle"></g>
                    <g id="Group" mask="url(#mask-2)">
                        <path d="M37.0919639,14.0803237 C33.6182534,16.6392228 28.5820922,18 24.2451463,18 C18.1673512,18 12.6939807,15.7573753 8.55194176,12.0242743 C8.22709685,11.7308567 8.51679461,11.3305968 8.90767357,11.5575702 C13.376155,14.1531465 18.9027788,15.7164457 24.6099312,15.7164457 C28.4601422,15.7164457 32.6927117,14.9185837 36.5871229,13.2697044 C37.1745064,13.0214689 37.6670991,13.6561439 37.0919639,14.0803237 Z" id="Path" fill="#F79C34"></path>
                        <path d="M38.53779,12.4325075 C38.0931252,11.8648082 35.6008724,12.1635413 34.4809563,12.2974928 C34.141733,12.3384225 34.0890123,12.0423471 34.394686,11.828131 C36.3831629,10.4338659 39.6417302,10.836252 40.0203609,11.3034876 C40.4016543,11.7739125 39.9197122,15.0349939 38.056913,16.5908514 C37.7698779,16.8300505 37.4972212,16.7024776 37.6244965,16.3867348 C38.0441322,15.3411688 38.9824547,13.0012698 38.53779,12.4325075 Z" id="Path" fill="#F79C34"></path>
                        <path d="M34.5597711,1.97950566 L34.5597711,0.625107049 C34.5608362,0.418864247 34.7163357,0.281723415 34.9037872,0.282254969 L40.9863751,0.281723415 C41.1807495,0.281723415 41.3373141,0.422585122 41.3373141,0.623512388 L41.3373141,1.78495703 C41.335184,1.98003721 41.1706314,2.23411984 40.879336,2.63756903 L37.7283404,7.12813395 C38.8977821,7.10102472 40.1348554,7.27590586 41.1977906,7.87177746 C41.4374302,8.00626052 41.5018667,8.20559313 41.5205053,8.4006733 L41.5205053,9.84596758 C41.5205053,10.0453002 41.302167,10.2754629 41.0721129,10.1558633 C39.2002606,9.17674158 36.7159958,9.0698993 34.6455089,10.1675575 C34.4340934,10.2802469 34.2130924,10.0527419 34.2130924,9.85340933 L34.2130924,8.47934324 C34.2130924,8.25981159 34.2173526,7.88347164 34.4394187,7.54859286 L38.0893975,2.32129463 L34.9112427,2.32076307 C34.7168683,2.32076307 34.5608362,2.18255914 34.5597711,1.97950566 Z" id="Path" fill="#FFFFFF"></path>
                        <path d="M12.372331,10.4402445 L10.52178,10.4402445 C10.3455117,10.4290819 10.2049231,10.2972566 10.1905447,10.1282225 L10.1921423,0.647963854 C10.1921423,0.458730768 10.3519021,0.307237988 10.5494717,0.307237988 L12.2727474,0.306706435 C12.4527434,0.315742846 12.5975923,0.451820571 12.6087755,0.625107049 L12.6087755,1.86256386 L12.6439226,1.86256386 C13.0928476,0.665505124 13.939042,0.106842276 15.0791944,0.106842276 C16.2363878,0.106842276 16.9622298,0.665505124 17.4803841,1.86256386 C17.9293091,0.665505124 18.9485766,0.106842276 20.0365408,0.106842276 C20.8140385,0.106842276 21.6602328,0.426305998 22.1783871,1.14443493 C22.7657706,1.94282846 22.6454182,3.09948912 22.6454182,4.11688273 L22.6432881,10.0995186 C22.6432881,10.2882202 22.4840608,10.4402445 22.2864912,10.4402445 L20.438603,10.4402445 C20.2522165,10.4285503 20.1063026,10.2818415 20.1063026,10.1000502 L20.10577,5.07421079 C20.10577,4.67554558 20.1403847,3.678351 20.0535818,3.29935328 C19.9156559,2.66042583 19.5013455,2.48076071 18.9661502,2.48076071 C18.5166926,2.48076071 18.050194,2.7800254 17.8600799,3.25842365 C17.6699657,3.73788501 17.6875393,4.53521543 17.6875393,5.07421079 L17.6875393,10.0995186 C17.6875393,10.2882202 17.5277795,10.4402445 17.3307424,10.4402445 L15.4823216,10.4402445 C15.2964677,10.4285503 15.1500212,10.2818415 15.1500212,10.1000502 L15.1478911,5.07421079 C15.1478911,4.01695065 15.3209642,2.46162478 14.0082713,2.46162478 C12.6780047,2.46162478 12.7301929,3.97708413 12.7301929,5.07421079 L12.7291278,10.0995186 C12.7291278,10.2882202 12.569368,10.4402445 12.372331,10.4402445 Z" id="Path" fill="#FFFFFF"></path>
                        <path d="M46.5902161,2.04222898 C45.2258675,2.04222898 45.1395882,3.89681954 45.1395882,5.05401175 C45.1395882,6.21120397 45.1225562,8.68505448 46.5737076,8.68505448 C48.0072855,8.68505448 48.0765147,6.69013377 48.0765147,5.47340755 C48.0765147,4.67554558 48.0413676,3.71768597 47.7995978,2.95969052 C47.5924426,2.30109559 47.1775996,2.04222898 46.5902161,2.04222898 Z M46.5737076,0.106842276 C49.3199785,0.106842276 50.805212,2.46162478 50.805212,5.45374007 C50.805212,8.34539173 49.1644789,10.6401087 46.5737076,10.6401087 C43.8785599,10.6401087 42.4103674,8.28585772 42.4103674,5.35380799 C42.4103674,2.40102767 43.8956009,0.106842276 46.5737076,0.106842276 Z" id="Shape" fill="#FFFFFF"></path>
                        <path d="M54.3673229,10.4402445 L52.5231623,10.4402445 C52.3383735,10.4285503 52.1913945,10.2818415 52.1913945,10.1000502 L52.1881993,0.616602191 C52.2041753,0.44278416 52.3575447,0.307237988 52.5439311,0.307237988 L54.2602838,0.306706435 C54.4221738,0.315211293 54.5553069,0.424711337 54.589389,0.571951688 L54.589389,2.02202994 L54.6240036,2.02202994 C55.1426904,0.725039128 55.8674674,0.106842276 57.1455457,0.106842276 C57.974699,0.106842276 58.7868113,0.40610696 59.3049656,1.22416797 C59.7885052,1.98216342 59.7885052,3.25842365 59.7885052,4.17641674 L59.7885052,10.1420429 C59.768269,10.3100139 59.6170297,10.4402445 59.4338385,10.4402445 L57.5790273,10.4402445 C57.4075518,10.4296134 57.2696258,10.3036352 57.2493896,10.1420429 L57.2493896,4.9950093 C57.2493896,3.95741665 57.370807,2.44089419 56.0921961,2.44089419 C55.6432711,2.44089419 55.2284282,2.74015888 55.021273,3.19888964 C54.7619296,3.77775153 54.727315,4.35608186 54.727315,4.9950093 L54.727315,10.0995186 C54.7241198,10.2882202 54.56436,10.4402445 54.3673229,10.4402445 Z" id="Path" fill="#FFFFFF"></path>
                        <path d="M31.5759907,10.4168562 C31.4540407,10.5263562 31.2777724,10.533798 31.1393139,10.459912 C30.5247713,9.95015208 30.414537,9.71467383 30.0785089,9.22883383 C29.0629692,10.2616425 28.3435175,10.5715383 27.0276294,10.5715383 C25.4699714,10.5715383 24.2579271,9.61155243 24.2579271,7.69264389 C24.2579271,6.19313115 25.0721695,5.17361132 26.2314931,4.67395092 C27.2353171,4.23382453 28.6374756,4.15409149 29.7110614,4.03396037 L29.7110614,3.79422969 C29.7110614,3.35357174 29.745676,2.83477542 29.4858001,2.45471459 C29.2605388,2.11452027 28.8281223,1.97472167 28.4473614,1.97472167 C27.7412231,1.97472167 27.1144322,2.33564658 26.9599977,3.08354251 C26.9275132,3.24991879 26.8060958,3.41523196 26.6388805,3.42373682 L24.8447781,3.22971975 C24.6935388,3.19516877 24.5252585,3.07397454 24.5683936,2.84328028 C24.9757811,0.701650769 26.8918336,0.0340194312 28.6332153,0.0159466084 L28.7706087,0.0159466084 C29.6620684,0.0271092343 30.8006232,0.271092343 31.4939807,0.935002805 C32.3944934,1.77485751 32.307158,2.89430942 32.307158,4.11422497 L32.307158,6.99152467 C32.307158,7.85742551 32.6676826,8.23695479 33.0058409,8.70312731 C33.1245956,8.8716298 33.1506897,9.07096241 32.999983,9.19428285 C32.6218848,9.51055725 31.9503612,10.0926085 31.581316,10.4211086 L31.5759907,10.4168562 Z M29.7110614,5.91353395 C29.7110614,6.63325754 29.7281024,7.23285001 29.3649152,7.87284056 C29.0704246,8.39216844 28.6028609,8.71216372 28.0836416,8.71216372 C27.3743081,8.71216372 26.9589327,8.1726368 26.9589327,7.37264861 C26.9589327,5.79924992 28.3722743,5.51327407 29.7110614,5.51327407 L29.7110614,5.91353395 Z" id="Shape" fill="#FFFFFF"></path>
                        <path d="M7.31859615,10.4168562 C7.19611364,10.5263562 7.01931281,10.533798 6.88138685,10.459912 C6.26631164,9.95015208 6.15607739,9.71467383 5.82058182,9.22883383 C4.80450953,10.2616425 4.08559046,10.5715383 2.76970229,10.5715383 C1.2120443,10.5715383 0,9.61155243 0,7.69264389 C0,6.19313115 0.81317735,5.17361132 1.97356599,4.67395092 C2.97739002,4.23382453 4.37954848,4.15409149 5.45260176,4.03396037 L5.45260176,3.79422969 C5.45260176,3.35357174 5.48774892,2.83477542 5.22787299,2.45471459 C5.00261168,2.11452027 4.56966263,1.97472167 4.18943433,1.97472167 C3.48329604,1.97472167 2.85544005,2.33564658 2.70207065,3.08354251 C2.67011869,3.24991879 2.54816871,3.41523196 2.38042093,3.42373682 L0.586850976,3.22971975 C0.435079172,3.19516877 0.266798856,3.07397454 0.310466533,2.84328028 C0.716788941,0.701650769 2.63337393,0.0340194312 4.37528822,0.0159466084 L4.51268164,0.0159466084 C5.40414129,0.0271092343 6.54269609,0.271092343 7.23605359,0.935002805 C8.13603376,1.77485751 8.04923094,2.89430942 8.04923094,4.11422497 L8.04923094,6.99152467 C8.04923094,7.85742551 8.40975554,8.23695479 8.74791378,8.70312731 C8.86560349,8.8716298 8.89276265,9.07096241 8.74205592,9.19428285 C8.36395774,9.51055725 7.69190154,10.0926085 7.32285641,10.4211086 L7.31859615,10.4168562 Z M5.45260176,5.91353395 C5.45260176,6.63325754 5.47017534,7.23285001 5.10645554,7.87284056 C4.81249752,8.39216844 4.34493386,8.71216372 3.825182,8.71216372 C3.11584851,8.71216372 2.70047305,8.1726368 2.70047305,7.37264861 C2.70047305,5.79924992 4.11434722,5.51327407 5.45260176,5.51327407 L5.45260176,5.91353395 Z" id="Shape" fill="#FFFFFF"></path>
                        <path d="M85.0843384,13.8411245 C85.0843384,13.6008623 85.0843384,13.3850515 85.0843384,13.1447893 C85.0843384,12.9465198 85.1817919,12.8099105 85.3889471,12.8221363 C85.7755658,12.8768863 86.3224768,12.9316363 86.7106931,12.8519033 C87.2176642,12.7466556 87.581384,12.387857 87.7965272,11.8961699 C88.0995383,11.2040871 88.3003031,10.6459558 88.4270459,10.2797153 L84.5773674,0.76065322 C84.5123984,0.599060922 84.4932272,0.299264684 84.8164745,0.299264684 L86.1621845,0.299264684 C86.4188653,0.299264684 86.5232417,0.46192009 86.5807552,0.621386174 L89.3717588,8.35336503 L92.0360196,0.621386174 C92.0903379,0.462983197 92.1995071,0.299264684 92.4540577,0.299264684 L93.723083,0.299264684 C94.0442002,0.299264684 94.0260941,0.598529368 93.9621902,0.76065322 L90.1433986,10.5768538 C89.6492083,11.8834126 88.9909979,13.964445 87.508427,14.3259014 C86.7650115,14.5199185 85.8272215,14.4497534 85.2765827,14.2195907 C85.1375917,14.1499572 85.0843384,13.9639134 85.0843384,13.8411245 Z" id="Path" fill="#FFFFFF"></path>
                        <path d="M83.2891709,9.86031952 C83.2891709,10.0373269 83.1437895,10.182441 82.965391,10.182441 L82.0164179,10.182441 C81.8113928,10.182441 81.6713367,10.0346691 81.6452426,9.86031952 L81.5499193,9.21554499 C81.113775,9.58391164 80.5785797,9.90762779 79.9981191,10.1330065 C78.8819307,10.5656912 77.5953318,10.6374509 76.504705,9.96875646 C75.7160241,9.48557423 75.2974535,8.54100346 75.2974535,7.56666568 C75.2974535,6.81292266 75.5301702,6.06555828 76.0461944,5.52284204 C76.7347591,4.78132475 77.7327253,4.41721052 78.9378466,4.41721052 C79.6658188,4.41721052 80.7074526,4.50279066 81.4652466,4.74996309 L81.4652466,3.45244072 C81.4652466,2.13312465 80.90875,1.56223607 79.4416225,1.56223607 C78.3201088,1.56223607 77.4621987,1.73127012 76.2682605,2.10176299 C76.0770813,2.10814163 75.9652494,1.96302749 75.9652494,1.78602014 L75.9652494,1.04609751 C75.9652494,0.868558604 76.1170212,0.696866787 76.2815738,0.644774533 C77.1341586,0.273750111 78.3419426,0.042524289 79.6258788,0 C81.2996289,0 83.2891709,0.376871512 83.2891709,2.94640168 L83.2891709,9.86031952 Z M81.4652466,7.96586245 L81.4652466,6.00815049 C80.8283375,5.83433246 79.7744554,5.76204117 79.3665354,5.76204117 C78.7221709,5.76204117 78.0165652,5.9140655 77.6480526,6.31007294 C77.3727332,6.60030121 77.2481206,7.01703925 77.2481206,7.41995689 C77.2481206,7.94087943 77.4286491,8.46339663 77.850415,8.72173168 C78.340345,9.05395269 79.1002691,9.01355462 79.8143954,8.81103269 C80.50083,8.61648407 81.1451945,8.27256888 81.4652466,7.96586245 Z" id="Shape" fill="#FFFFFF"></path>
                        <path d="M69.2968756,1.59147152 C71.4025097,1.59147152 71.9760474,3.2440717 71.9760474,5.13640256 C71.9877631,6.41213123 71.7529162,7.54965597 71.0909781,8.20080914 C70.5957227,8.68824381 70.0424213,8.82113221 69.2095403,8.82113221 C68.4682548,8.82113221 67.4931875,8.43522429 66.7646829,7.89782358 L66.7646829,2.48713936 C67.5230094,1.9056197 68.4906212,1.59147152 69.2968756,1.59147152 Z M66.4419681,14.1807873 L65.1708127,14.1807873 C64.9929468,14.1807873 64.8475654,14.0356732 64.8475654,13.8586658 C64.8475654,9.45208635 64.8475654,5.04497534 64.8475654,0.638395889 C64.8475654,0.461388536 64.9929468,0.3162744 65.1708127,0.3162744 L66.1437498,0.3162744 C66.3482424,0.3162744 66.4882984,0.464046304 66.5143925,0.638395889 L66.6166388,1.33101025 C67.5278022,0.523580309 68.7009716,0.00584708974 69.8187576,0.00584708974 C72.949517,0.00584708974 73.9789026,2.58069279 73.9789026,5.25812834 C73.9789026,8.12267076 72.4042036,10.4242979 69.7410078,10.4242979 C68.6194941,10.4242979 67.5709373,10.0112807 66.7646829,9.29368337 L66.7646829,13.8586658 C66.7646829,14.0356732 66.6193015,14.1807873 66.4419681,14.1807873 Z" id="Shape" fill="#FFFFFF"></path>
                    </g>
                </g>
            </g>
        </g>
    </g>
</svg>
