<svg xmlns="http://www.w3.org/2000/svg" width="24" height="24" viewBox="0 0 24 24">
  <g fill="none" fill-rule="evenodd">
    <rect width="24" height="24"/>
    <path fill="#0076e4" fill-rule="nonzero" d="M22,12.0607341 C21.999384,6.70836957 17.8344126,2.29330784 12.5222971,2.01393207 C7.21018153,1.73455631 2.61046764,5.6886641 2.05530526,11.0117991 C1.50014287,16.334934 5.18387074,21.163693 10.4379026,22 L10.4379026,14.969399 L7.89882435,14.969399 L7.89882435,12.0607341 L10.4379026,12.0607341 L10.4379026,9.84380998 C10.4379026,7.32251991 11.9311839,5.92897682 14.2144378,5.92897682 C14.9645344,5.93980183 15.7128619,6.00537492 16.4535265,6.12517964 L16.4535265,8.6020306 L15.1919037,8.6020306 C14.4010616,8.4963994 13.6747825,9.05565408 13.5694602,9.85135624 C13.5551655,9.95836455 13.5529292,10.0666551 13.5627938,10.1741686 L13.5627938,12.0607341 L16.3335306,12.0607341 L15.8902127,14.969399 L13.5569607,14.969399 L13.5569607,22 C18.4187509,21.2290888 22,17.0130543 22,12.0607341 Z"/>
  </g>
</svg>
