<svg xmlns="http://www.w3.org/2000/svg" width="24" height="24" viewBox="0 0 24 24">
  <path fill="#36475c" d="M12.857129,6.5 L12.857,11.142 L12.857,11.142 L17.5,11.1427738 C17.7761098,11.1429032 17.9999167,11.3667473 18,11.6428571 L18,12.3571429 C18.0000139,12.6332852 17.7761563,12.8571429 17.5000139,12.8571429 C17.5000093,12.8571429 17.5000046,12.8571429 17.5,12.857129 L12.857,12.857 L12.857,12.857 L12.857129,17.5 C12.8571505,17.7761424 12.6332991,18.0000062 12.3571567,18.0000139 C12.3571521,18.0000139 12.3571475,18.0000139 12.3571429,18 L11.6428571,18 C11.3667473,17.9999167 11.1429032,17.7761098 11.1427738,17.5 L11.142,12.857 L11.142,12.857 L6.5,12.857129 C6.22385763,12.8571505 5.99999378,12.6332991 5.99998611,12.3571567 C5.99998611,12.3571521 5.99998611,12.3571475 6,12.3571429 L6,11.6428571 C6.00008335,11.3667473 6.22389018,11.1429032 6.49999999,11.1427738 L11.142,11.142 L11.142,11.142 L11.1427738,6.49999999 C11.1429032,6.22389018 11.3667473,6.00008335 11.6428571,6 L12.3571429,6 C12.6332852,5.99998611 12.8571429,6.22384373 12.8571429,6.49998611 C12.8571429,6.49999074 12.8571429,6.49999537 12.857129,6.5 Z"/>
</svg>
