<svg xmlns="http://www.w3.org/2000/svg" width="24" height="24" viewBox="0 0 24 24">
  <path d="M18.5622397,3 C18.8418286,3 19.0737739,3.20398638 19.117367,3.47125062 L19.1247291,3.5624893 L19.1247291,20.4371684 C19.1247291,20.7797323 18.8241703,21.0349911 18.4973037,20.9960772 L18.407712,20.9780154 L11.9998645,19.1462555 L5.592017,20.9780154 C5.29048362,21.0641678 4.99010339,20.8880296 4.90127802,20.6083072 L4.88118746,20.5214417 L4.875,20.4371684 L4.875,3.5624893 C4.875,3.28290047 5.07898638,3.0509552 5.34625062,3.00736204 L5.4374893,3 L18.5622397,3 Z M17.9997504,4.12497861 L5.99997861,4.12497861 L5.99997861,19.6909326 L11.8453368,18.0213572 C11.8902247,18.0085321 11.9363101,18.001407 11.9825285,17.999982 L12.0518228,18.0021195 L12.1543922,18.0213572 L17.9997504,19.6918701 L17.9997504,4.12497861 Z M12.0833333,6.62 C12.3594757,6.62 12.5833333,6.84385763 12.5833333,7.12 L12.5833333,9.53666667 L15,9.53666667 C15.2761424,9.53666667 15.5,9.76052429 15.5,10.0366667 L15.5,10.2033333 C15.5001481,10.4487932 15.3232894,10.6529417 15.090042,10.6952777 L15,10.7031667 L12.5833333,10.7023611 L12.5833333,13.12 C12.5833333,13.3961424 12.3594757,13.62 12.0833333,13.62 L11.9166667,13.62 C11.6405243,13.62 11.4166667,13.3961424 11.4166667,13.12 L11.4166667,10.7023611 L9,10.7031667 C8.75454015,10.7033966 8.55033272,10.526606 8.50791902,10.2933727 L8.5,10.2033333 L8.5,10.0366667 C8.5,9.76052429 8.72385763,9.53666667 9,9.53666667 L11.4166667,9.53666667 L11.4166667,7.12 C11.4166667,6.84385763 11.6405243,6.62 11.9166667,6.62 L12.0833333,6.62 Z"/>
</svg>
