<?xml version="1.0" encoding="UTF-8"?>
<svg width="40px" height="20px" viewBox="0 0 40 20" version="1.1" xmlns="http://www.w3.org/2000/svg" xmlns:xlink="http://www.w3.org/1999/xlink">
    <title>AD07FC16-CEC0-482C-88E3-8268D7B26B7F</title>
    <g id="--↳-Selection-Components" stroke="none" stroke-width="1" fill="none" fill-rule="evenodd">
        <g id="DT-3532-&amp;-DT-3533-/-Components-/-Desktop-/-Selection-Components-/-Carrier-Selection" transform="translate(-122.000000, -78.000000)">
            <g id="Components-/-Selection-Components-/-Desktop-/-Carrier-Selection-/-DHL" transform="translate(24.000000, 24.000000)">
                <g id="Group-21" transform="translate(0.000000, 40.000000)">
                    <g id="Group-12" transform="translate(98.000000, 14.000000)">
                        <rect id="Rectangle-88" fill="#FFCC02" x="0" y="0" width="40" height="20" rx="3"></rect>
                        <g id="Dhl_logo_lang" transform="translate(3.750000, 7.500000)" fill="#D40612">
                            <path d="M28.2301244,3.09650998 L27.0977166,4.60990884 L22.3164395,4.60990884 C21.6840832,4.65386417 20.5833218,4.32021166 21.1382779,3.53049936 L21.1382779,3.53049936 L21.4585548,3.09650998 L28.2301244,3.09650998 Z M8.96775425,1.80566978 C9.20357721,1.82532913 9.19518901,1.92696425 9.05907131,2.09499603 L8.53290205,2.81831166 L8.51002513,2.85169546 L8.47570974,2.89620719 L8.46408064,2.91846306 L8.46408064,3.00748652 L8.47570974,3.02974239 L8.49858667,3.05199825 L8.53290205,3.06312618 L8.57884654,3.07425412 L8.63603885,3.08538205 L8.65891578,3.08538205 L8.69323116,3.09650998 L12.2277159,3.09650998 L12.1705236,3.17440551 C11.5166249,4.03292553 10.4480819,4.64217985 9.33378504,4.60990884 L4.25491724,4.60990884 L6.33671734,1.80566978 L8.96775425,1.80566978 Z M16.1852332,3.09650998 L15.0530161,4.60990884 L12.0788253,4.60990884 L13.1997946,3.09650998 L16.1852332,3.09650998 Z M20.4862855,3.09650998 L19.3538778,4.60990884 L16.3798777,4.60990884 L17.5120948,3.09650998 L20.4862855,3.09650998 Z M3.94607877,4.28719879 L3.70587106,4.60990884 L-2.03232986e-11,4.60990884 L-2.03232986e-11,4.28719879 L3.94607877,4.28719879 Z M32.4509169,4.28719879 L32.4509169,4.60990884 L27.6353243,4.60990884 L27.8867799,4.28719879 L32.4509169,4.28719879 Z M4.39236943,3.68629042 L4.15197109,4.0201284 L-1.8881785e-11,4.0201284 L-1.8881785e-11,3.68629042 L4.39236943,3.68629042 Z M32.4509169,3.68629042 L32.4509169,4.0201284 L28.0814243,4.0201284 L28.321632,3.68629042 L32.4509169,3.68629042 Z M4.83846945,3.09650998 L4.59807111,3.4080921 L-2.02042827e-11,3.4080921 L-2.02042827e-11,3.09650998 L4.83846945,3.09650998 Z M32.4509169,3.09650998 L32.4509169,3.4080921 L28.5387722,3.4080921 L28.7675414,3.09650998 L32.4509169,3.09650998 Z M11.6899176,0.0585843361 C12.2212341,0.0656320269 12.7946824,0.20751317 13.1082869,0.659492706 L13.1082869,0.659492706 L13.1654792,0.726260303 L13.1997946,0.804155832 C13.3709902,1.09255476 13.3917701,1.47201726 13.2114237,1.76115805 L13.2114237,1.76115805 L13.1769176,1.81679771 L12.4906099,2.74041613 L10.1800406,2.74041613 C10.1045467,2.74523824 9.87501493,2.74913302 9.87120211,2.64026474 L9.87120211,2.64026474 L9.85976365,2.62913681 L9.87120211,2.60688094 L9.87120211,2.57349714 C10.0851014,2.2491179 10.3621028,1.93976137 10.5577005,1.60536699 L10.5577005,1.60536699 L10.5577005,1.56085526 C10.5550315,1.45532536 10.4402656,1.48425799 10.3746851,1.46070387 L10.3746851,1.46070387 L4.67833098,1.46070387 L5.70760192,0.0585843361 Z M18.4271717,0.0585843361 L17.2833255,1.60536699 L18.6101871,1.60536699 L19.7540333,0.0585843361 L22.7394719,0.0585843361 L20.7493702,2.74041613 L13.4516314,2.74041613 L15.4533622,0.0585843361 L18.4271717,0.0585843361 Z M26.8687567,0.0585843361 L24.8670259,2.74041613 L21.710201,2.74041613 L23.7119318,0.0585843361 L26.8687567,0.0585843361 Z" id="Combined-Shape"></path>
                        </g>
                    </g>
                </g>
            </g>
        </g>
    </g>
</svg>