<?xml version="1.0" encoding="UTF-8"?>
<svg width="64px" height="32px" viewBox="0 0 64 32" version="1.1" xmlns="http://www.w3.org/2000/svg" xmlns:xlink="http://www.w3.org/1999/xlink">
    <title>carrier-gls</title>
    <g id="Symbols" stroke="none" stroke-width="1" fill="none" fill-rule="evenodd">
        <g id="Group">
            <rect id="Rectangle-4-Copy" fill="#0D006A" x="0" y="0" width="64" height="32" rx="3"></rect>
            <g id="Logos-/-GLS" transform="translate(8.000000, 9.000000)">
                <g id="g4574" transform="translate(0.000000, 0.000000)">
                    <polygon id="path4402" fill="#FFFFFF" points="38.7723994 10.8384599 40.3535228 2.38213401 37.6084074 2.38213401 35.5148109 13.6710601 40.5243482 13.6710601 41.0407941 10.8384599"></polygon>
                    <path d="M46.8766454,4.89124544 C47.3215835,4.89124544 47.9730993,4.99492535 48.3505056,5.14008319 L48.831196,2.52314107 C48.2472152,2.45263754 47.6314517,2.38213401 46.9441804,2.38213401 C43.9567318,2.38213401 42.5504066,4.24426797 42.5504066,6.32205999 C42.5504066,9.04682947 45.227987,9.00950563 45.227987,10.1914824 C45.227987,10.7679564 44.8148284,11.0872976 43.9924873,11.0872976 C43.3727509,11.0872976 42.586162,10.9462906 42.1054685,10.7306292 L41.5890226,13.5259055 C42.1372511,13.6710601 42.9278129,13.7415636 43.7183714,13.7415636 C46.3959519,13.7415636 48.2472152,11.8752822 48.2472152,9.61915595 C48.2472152,6.96903746 45.5696347,6.9317103 45.5696347,5.74973351 C45.5696347,5.24791056 45.9152583,4.89124544 46.8766454,4.89124544" id="path4404" fill="#FFFFFF"></path>
                    <path d="M33.3497066,2.38213401 C29.2300486,2.38213401 26.5874322,5.60457898 26.5874322,9.54865242 C26.5874322,11.9831129 27.8233293,13.7042398 30.9819975,13.7042398 C32.2174973,13.7042398 33.520532,13.455402 34.5852064,12.9867588 L35.5823459,7.54136394 L32.8332608,7.54136394 L32.2174973,10.8716396 C31.9751641,10.9462906 31.7010514,10.9462906 31.462691,10.9462906 C30.0881453,10.9462906 29.6074549,10.1583061 29.6074549,9.08415662 C29.6074549,7.14737167 30.7396643,5.10275603 33.1113463,5.10275603 C33.7628652,5.10275603 34.4819192,5.24791056 35.1334349,5.42624477 C35.2049427,5.46357192 35.2724777,5.4967483 35.3400158,5.4967483 C35.5465936,5.60457898 35.7531713,5.67922998 35.892214,5.74973351 L36.4722252,2.80930265 C35.5148109,2.56046823 34.3786287,2.38213401 33.3497066,2.38213401" id="path4406" fill="#FFFFFF"></path>
                    <path d="M12.6250901,2.402868 L11.8849834,6.15202069 L16.9906569,6.15202069 C12.7605573,12.6964464 4.36352947,11.5849731 2.14280874,8.87264272 C0.231158416,6.53357057 1.8825978,2.53558346 7.54961016,0.063795862 C1.9398034,1.84713137 -1.20853539,6.52527565 0.641536037,9.67721709 C2.73831078,13.2480356 9.27652699,14.7369146 15.0869522,13.0033453 C18.9702363,11.5808257 20.6276349,9.58183211 21.233069,8.50768268 L20.2820113,13.6959448 L24.0989522,13.6959448 L26.1695062,2.402868 L12.6250901,2.402868 Z" id="path4408" fill="#EAAF0F"></path>
                </g>
            </g>
        </g>
    </g>
</svg>