<?xml version="1.0" encoding="UTF-8"?>
<svg width="41px" height="20px" viewBox="0 0 41 20" version="1.1" xmlns="http://www.w3.org/2000/svg" xmlns:xlink="http://www.w3.org/1999/xlink">
    <title>5BAF5AD3-B519-4EAB-89EE-380848A5D2B5</title>
    <g id="--↳-Selection-Components" stroke="none" stroke-width="1" fill="none" fill-rule="evenodd">
        <g id="DT-3532-&amp;-DT-3533-/-Components-/-Desktop-/-Selection-Components-/-Carrier-Selection" transform="translate(-377.000000, -78.000000)">
            <g id="Components-/-Selection-Components-/-Desktop-/-Carrier-Selection-/-DHL" transform="translate(24.000000, 24.000000)">
                <g id="Group-21" transform="translate(0.000000, 40.000000)">
                    <g id="Atoms-/-Tab-Switcher-/-Inactive" transform="translate(267.000000, 0.000000)">
                        <g id="Logos/Carrier/Hermes" transform="translate(86.500000, 14.000000)">
                            <rect id="Rectangle-88" fill="#4CACDA" x="0" y="0" width="40" height="20" rx="3"></rect>
                            <g id="Hermes_Logistik_Gruppe_2008" transform="translate(3.750000, 7.500000)" fill="#FFFFFF">
                                <polygon id="path2588" points="6.7135415 1.45342654 7.08389467 0.00528854396 0.0186942365 0.00528854396 1.24014776 1.45342654"></polygon>
                                <polygon id="path2594" points="0.0186942915 0.378886978 1.14399827 1.45342654 1.24014768 1.45342654 0.0186942915 0.00528862637"></polygon>
                                <polygon id="path3415" points="2.99576476 3.15063022 1.79923885 1.73451478 6.6280753 1.73451478 6.27196658 3.15063022"></polygon>
                                <polygon id="path3417" points="2.91029856 3.15063022 1.79923877 2.0903228 1.79923877 1.73451478 2.99576476 3.15063022"></polygon>
                                <polygon id="path3435" points="4.98285216 4.92966951 3.7720817 3.50643819 6.17937815 3.50643819 5.80902498 4.92966951"></polygon>
                                <polygon id="path3437" points="3.77208198 3.86224588 4.91163041 4.92966951 4.98285216 4.92966951 3.77208198 3.50643819"></polygon>
                                <polygon id="path3457" points="6.05368261 4.92966951 6.73859757 4.92966951 7.10119968 3.50978984 6.41628445 3.50978984"></polygon>
                                <polygon id="path3473" points="6.51700751 3.13743077 7.19185021 3.13743077 7.55445233 1.74108286 6.8695371 1.74108286"></polygon>
                                <polygon id="path3487" points="6.96018763 1.44671775 7.65013898 1.44671775 8.00266885 0.0126309341 7.31271749 0.0126309341"></polygon>
                                <path d="M13.4463006,4.93488956 C13.1202456,4.86178846 12.9455039,4.72524588 12.8115715,4.43891401 C12.7385221,4.28274258 12.734596,4.25458544 12.736877,3.90319973 C12.7386403,3.63153929 12.7556962,3.45515055 12.8006317,3.24385907 C12.9425844,2.57638434 13.248931,1.83764294 13.5032707,1.54947558 C13.7880502,1.22681989 14.1661429,1.06421739 14.7398562,1.01766986 C15.2937026,0.972734203 15.7573514,1.04369544 15.9846053,1.20817827 C16.2170276,1.37640184 16.2951717,1.57237755 16.2951717,1.98704162 C16.2951717,2.28931786 16.2164304,2.73528709 16.1259589,2.94541593 C16.0321576,3.16327857 16.0428455,3.16144148 14.8691699,3.16144148 L13.8501678,3.16144148 L13.8228538,3.26446346 C13.694621,3.74812995 13.7162417,3.95344066 13.908601,4.07872527 C14.0487395,4.1699978 14.5410562,4.20333956 14.9367248,4.14835357 C15.232744,4.10721593 15.430843,4.02646923 15.5817425,3.88543984 C15.7937756,3.687275 15.8071578,3.7126228 15.7015881,4.11244396 C15.5289886,4.76612555 15.4974369,4.81780742 15.2146589,4.91004203 C15.0187966,4.9739272 13.7028925,4.99241703 13.4463006,4.93488956 Z M15.4116455,2.42655137 C15.4894747,2.11761126 15.4703352,1.95986365 15.3401323,1.83714305 C15.1448356,1.65306956 14.6361655,1.66262475 14.3835891,1.8551114 C14.2713021,1.94068431 14.1646304,2.11475192 14.0775018,2.35458516 L14.0139307,2.52957335 L14.6998113,2.52957335 L15.3856916,2.52957335 L15.4116455,2.42655137 Z M25.9501931,4.91868379 C25.6654045,4.84415412 25.5168229,4.73049698 25.3962715,4.49496264 L25.3000363,4.30693736 L25.300162,3.89215659 C25.3002632,3.55775522 25.3127746,3.42151758 25.3647237,3.18913379 C25.5285584,2.45625082 25.805402,1.82641838 26.1016046,1.51269335 C26.4420305,1.15212901 26.848228,1.01476525 27.5821863,1.0119662 C28.309103,1.00927005 28.6374382,1.15301302 28.7977991,1.54418827 C28.8713695,1.72365643 28.8636514,2.26892033 28.7829211,2.59514725 C28.7060979,2.90559341 28.6355355,3.06459808 28.5539996,3.11101511 C28.5046199,3.13912527 28.2452111,3.15091731 27.4447075,3.16144148 L26.3998671,3.17517775 L26.3503398,3.36748544 C26.284766,3.62209863 26.2804423,3.83859725 26.3387372,3.94846319 C26.3670278,4.00178159 26.4349812,4.05971346 26.5159741,4.09956209 C26.6369381,4.15907637 26.6810427,4.16414918 27.0735146,4.16368929 C27.6574065,4.16300495 27.9200819,4.09338516 28.1549645,3.87706044 C28.2628826,3.77767005 28.33832,3.73817088 28.33832,3.78105577 C28.33832,3.83407582 28.1113727,4.6337033 28.0780533,4.69808187 C27.9673168,4.91204011 27.6713029,4.97521071 26.7892633,4.97311566 C26.2522033,4.97184011 26.1207177,4.96331016 25.9501931,4.91868379 Z M27.9770778,2.37389258 C28.0760104,1.88170025 27.9043515,1.68961544 27.3883879,1.71514758 C26.984574,1.73513014 26.788103,1.90225253 26.6305599,2.3597761 C26.6019762,2.44278544 26.5785896,2.51494835 26.5785896,2.52013791 C26.5785896,2.52532747 26.8862079,2.52957335 27.2621878,2.52957335 L27.9457876,2.52957335 L27.9770778,2.37389258 Z M8.05193989,4.91418874 C7.99969325,4.86198626 8.01280461,4.71819808 8.09988756,4.38835577 C8.50959901,2.8364989 9.12463236,0.409347747 9.12696125,0.33513967 C9.12899621,0.270289863 9.11164583,0.227607363 9.06933287,0.193373407 C9.03603577,0.166433846 9.00879268,0.124739396 9.00879268,0.100719093 C9.00879268,0.0621618132 9.07781229,0.0570458242 9.59798771,0.0570458242 C10.1132617,0.0570458242 10.1929819,0.0628400275 10.2334051,0.103229121 C10.2971757,0.166945659 10.2841705,0.241603187 10.0586532,1.10640555 C9.95346155,1.50978967 9.87424156,1.84667154 9.88260907,1.85503192 C9.89097659,1.86339231 10.2177261,1.87023264 10.6087196,1.87023264 L11.3196164,1.87023264 L11.3459405,1.80841945 C11.3803628,1.72759082 11.6972441,0.503521511 11.7188808,0.367800962 C11.7330675,0.27881217 11.7248999,0.253089478 11.6644845,0.196487747 C11.521831,0.0628392308 11.5437811,0.0570458242 12.1928028,0.0570458242 C12.8411589,0.0570458242 12.8582005,0.0608153846 12.8582005,0.204229808 C12.8582005,0.270208104 12.5191958,1.62725654 12.1846561,2.90045247 C11.7931535,4.39043956 11.7269255,4.67899973 11.758808,4.75590522 C11.7764589,4.79848214 11.808327,4.83999918 11.8296266,4.84816566 C11.8509259,4.85633214 11.8683527,4.8819456 11.8683527,4.90508489 C11.8683527,4.94157775 11.7888812,4.94715577 11.268945,4.94715577 C10.6221402,4.94715577 10.6035473,4.94310495 10.6035473,4.80218187 C10.6035473,4.75871016 10.7210918,4.27090934 10.8647571,3.71818022 C11.0084225,3.16545137 11.125967,2.69662335 11.125967,2.67634093 C11.125967,2.6464022 10.987575,2.63948462 10.3904551,2.63957692 L9.65494327,2.63969038 L9.39949795,3.64919231 C9.25900309,4.20441841 9.14455195,4.68089066 9.14516208,4.70801978 C9.14577221,4.7351489 9.17474368,4.78579368 9.20954315,4.82056374 C9.24434234,4.85533352 9.26805745,4.89804093 9.26224319,4.91546868 C9.24697231,4.96124313 8.09781796,4.96002802 8.05193989,4.91418874 Z M16.4208667,4.90398462 C16.3971024,4.88024066 16.377659,4.84466154 16.377659,4.82492005 C16.377659,4.80517857 16.5816611,3.99390412 16.8309972,3.02208791 C17.253,1.37728157 17.2814642,1.25077129 17.2427997,1.19181181 C17.2199554,1.15697624 17.1891766,1.1284744 17.1744026,1.1284744 C17.1596285,1.1284744 17.1475406,1.10993044 17.1475406,1.0872656 C17.1475406,1.05205571 17.2249717,1.04605681 17.6794465,1.04605681 C18.3743718,1.04605681 18.3497763,1.02516168 18.2291903,1.51308978 C18.2182258,1.55745604 18.2636648,1.51368896 18.3575398,1.38946341 C18.4374675,1.28369418 18.5343037,1.16315846 18.5727318,1.12160626 L18.6426005,1.04605681 L19.1323802,1.04605681 C19.401759,1.04605681 19.6221599,1.05432467 19.6221599,1.06442981 C19.6221599,1.12473813 19.4698371,1.64674481 19.4379387,1.6957511 C19.3760818,1.79078426 19.2753967,1.81181541 18.8385304,1.82095602 C18.4850385,1.8283522 18.4103754,1.83775349 18.3161108,1.8867372 C18.1188979,1.98921706 18.0845667,2.07952802 17.7427682,3.39495797 C17.5700186,4.05979313 17.4211031,4.63680027 17.4118448,4.67719588 C17.3993419,4.73174725 17.4126944,4.77164011 17.4637463,4.83226071 C17.5015505,4.87715055 17.5324813,4.92136593 17.5324813,4.93051731 C17.5324813,4.93966841 17.2920897,4.94715577 16.9982779,4.94715577 C16.5492992,4.94715577 16.4571812,4.94026841 16.4208667,4.90398462 Z M19.2254352,4.90398462 C19.2016709,4.88024066 19.1821673,4.84624341 19.1821673,4.82843516 C19.1821673,4.8106272 19.3815051,4.01721071 19.6252138,3.06528764 C19.8689226,2.11336456 20.068466,1.30435882 20.0686433,1.26749714 C20.0688209,1.23063547 20.0426733,1.1792033 20.0105376,1.15320338 C19.8902103,1.0558506 19.9336988,1.04605681 20.4863126,1.04605681 C21.153994,1.04605681 21.166928,1.05400459 21.0638172,1.40092313 C21.0401043,1.48070538 21.0256484,1.55092321 21.0316931,1.55696269 C21.0377378,1.5630022 21.0844096,1.50988981 21.1354085,1.43893519 C21.4222936,1.03979258 21.4671101,1.01998187 22.0849749,1.01918764 C22.5430688,1.01859879 22.5579332,1.02039953 22.7036298,1.09413374 C22.8583364,1.17242794 22.9419667,1.29045571 22.9956601,1.50627835 L23.0178874,1.5956208 L23.1694491,1.36960201 C23.3979444,1.02885511 23.4213551,1.01953107 24.0489788,1.01930459 C24.525662,1.01912217 24.566296,1.02317843 24.6951294,1.08364016 C24.7707428,1.11912569 24.8537893,1.1719986 24.8796772,1.20113549 C24.9579524,1.28923448 25.0113308,1.448545 25.0113308,1.59406335 C25.0113308,1.67918508 24.8691328,2.30087527 24.6388486,3.22255824 C24.4275062,4.06842802 24.2730119,4.7398261 24.281728,4.77452473 C24.2901772,4.80815989 24.3216901,4.84883407 24.351757,4.86491181 C24.478493,4.93268159 24.3923014,4.94715577 23.8620076,4.94715577 C23.2833778,4.94715577 23.2516015,4.94027253 23.2516015,4.81493214 C23.2516015,4.77847308 23.4000786,4.16471841 23.5815507,3.45103297 C23.7630228,2.7373478 23.9115,2.11100027 23.9115,2.05914945 C23.9115,1.85926003 23.7385422,1.76607959 23.4318637,1.80074701 C23.1389741,1.83385569 23.0125079,1.92732511 22.9103828,2.18616676 C22.865309,2.30040907 22.2802136,4.49929863 22.2473386,4.6780022 C22.2312981,4.76519643 22.2387827,4.78913407 22.2997337,4.84557363 C22.3388434,4.88178874 22.3627949,4.91946016 22.3529592,4.92928764 C22.3431234,4.93911511 22.0983373,4.94715577 21.80899,4.94715577 C21.2480953,4.94715577 21.2169145,4.94007665 21.2169145,4.81273599 C21.2169145,4.77506896 21.3653917,4.16593984 21.5468637,3.45911593 C21.7283358,2.75229231 21.876813,2.12362005 21.876813,2.06206731 C21.876813,1.84580176 21.6741565,1.75136173 21.3418058,1.81274819 C21.1213733,1.85346291 21.0232159,1.91777343 20.9378478,2.07741236 C20.8601561,2.2226967 20.2270668,4.58454918 20.2270668,4.72910824 C20.2270668,4.77957473 20.2474629,4.8220544 20.2820583,4.84364121 C20.3123037,4.86251374 20.3370499,4.89352527 20.3370499,4.91255549 C20.3370499,4.93918681 20.214017,4.94715577 19.8028464,4.94715577 C19.3538677,4.94715577 19.2617497,4.94026841 19.2254352,4.90398462 Z M29.0117024,4.88192885 C28.9698868,4.81816209 28.974025,4.78878214 29.0863039,4.3522456 C29.1781563,3.99513187 29.215963,3.88799835 29.2526231,3.88094423 C29.2821701,3.87525852 29.3121514,3.89831429 29.3321024,3.94206703 C29.381405,4.05018077 29.4728642,4.09395632 29.7184262,4.1269761 C30.0293841,4.16878901 30.795562,4.14476181 30.9257077,4.08911621 C31.0463811,4.03752225 31.1319507,3.92313214 31.1672278,3.76625577 C31.1983228,3.62798984 31.1718003,3.5387794 31.0821586,3.48009368 C31.0474095,3.45734313 30.7724848,3.3706011 30.4712191,3.28733324 C29.8668593,3.12029368 29.7097155,3.04460549 29.6089105,2.87200797 C29.5510952,2.77301978 29.5463962,2.73804313 29.5573587,2.48836456 C29.5828033,1.90896555 29.8600019,1.34762574 30.2080324,1.17072659 C30.4263075,1.05978082 30.5744685,1.04605681 31.5539365,1.04605681 L32.4846986,1.04605681 L32.4154918,1.30017769 C32.3334059,1.60159426 32.2908122,1.69168478 32.2080637,1.73892374 C32.1649668,1.76352816 31.9521825,1.77820126 31.4990605,1.78781505 C30.9419082,1.79963604 30.8413259,1.80830816 30.7776787,1.85001085 C30.6824059,1.91243802 30.6290476,1.99663934 30.6064791,2.12017775 C30.5739433,2.29827665 30.6430292,2.34181786 31.2391237,2.51890247 C31.9786225,2.73858901 32.119893,2.82194423 32.1884152,3.0790239 C32.2561868,3.33328187 32.1444632,3.98678077 31.9713306,4.34882747 C31.8523536,4.5976217 31.7206379,4.73770824 31.5067043,4.84297995 L31.3229116,4.93341951 L30.1894425,4.94142967 L29.0559761,4.94944011 L29.0117024,4.88192885 Z" id="path3497" fill-rule="nonzero"></path>
                            </g>
                        </g>
                    </g>
                </g>
            </g>
        </g>
    </g>
</svg>