<svg xmlns="http://www.w3.org/2000/svg" width="24" height="24" viewBox="0 0 24 24">
  <path fill="#f16363" d="M12,2 C17.5141667,2 22,6.48583333 22,12 C22,17.5141667 17.5141667,22 12,22 C6.48583333,22 2,17.5141667 2,12 C2,6.48583333 6.48583333,2 12,2 Z M12,15.3333333 C11.3096441,15.3333333 10.75,15.8929774 10.75,16.5833333 C10.75,17.2736893 11.3096441,17.8333333 12,17.8333333 C12.6903559,17.8333333 13.25,17.2736893 13.25,16.5833333 C13.25,15.8929774 12.6903559,15.3333333 12,15.3333333 Z M12.6944444,6.16666667 L11.3055556,6.16666667 C11.1350973,6.16666667 10.9933275,6.3222513 10.9639275,6.52742421 L10.9583333,6.60648148 L10.9583333,12.8101852 C10.9583333,13.026099 11.0811633,13.205674 11.2431419,13.242914 L11.3055556,13.25 L12.6944444,13.25 C12.8649027,13.25 13.0066725,13.0944154 13.0360725,12.8892425 L13.0416667,12.8101852 L13.0416667,6.60648148 C13.0416667,6.39056769 12.9188367,6.21099264 12.7568581,6.17375267 L12.6944444,6.16666667 Z"/>
</svg>
