<svg xmlns="http://www.w3.org/2000/svg" width="24" height="24" viewBox="0 0 24 24">
    <g fill="none" fill-rule="evenodd">
        <g fill="#000">
            <g>
                <g>
                    <g>
                        <path d="M5.977 4l12.052.017C19.114 4.023 20 4.914 20 6v12.023c0 .524-.208 1.027-.58 1.398-.37.37-.873.579-1.397.579H5.977c-.524 0-1.027-.208-1.398-.58-.37-.37-.579-.873-.579-1.397V5.983c-.001-.526.206-1.03.577-1.402.371-.372.875-.581 1.4-.581zm-.002 1.244c-.193 0-.38.078-.517.216-.114.115-.187.264-.207.425l-.007.098v12.04c0 .194.078.38.215.518.115.114.263.187.422.208l.096.007h12.046c.194 0 .38-.078.518-.215.114-.115.187-.263.208-.422l.007-.096V6c0-.37-.284-.684-.64-.732l-.09-.006-12.05-.018zm2.276 9.27c.692 0 1.252.56 1.252 1.252 0 .69-.56 1.251-1.252 1.251-.69 0-1.251-.56-1.251-1.251 0-.691.56-1.252 1.251-1.252zm3.743 0c.691 0 1.252.56 1.252 1.252 0 .69-.56 1.251-1.252 1.251-.69 0-1.251-.56-1.251-1.251 0-.691.56-1.252 1.251-1.252zm3.755-.005c.466-.032.91.199 1.154.598.242.4.242.9 0 1.3-.243.4-.688.63-1.154.599-.657-.045-1.167-.59-1.167-1.249 0-.658.51-1.204 1.167-1.248zm-7.498.497c-.418 0-.757.339-.757.757s.34.757.757.757c.419 0 .758-.339.758-.757s-.34-.757-.758-.757zm3.743 0c-.418 0-.757.339-.757.757s.34.757.757.757c.418 0 .757-.339.757-.757s-.339-.757-.757-.757zm3.755-4.252c.69 0 1.251.56 1.251 1.252 0 .69-.56 1.251-1.251 1.251-.692 0-1.252-.56-1.252-1.251 0-.691.56-1.252 1.252-1.252zM12 10.75c.447 0 .86.238 1.084.625.223.387.223.865 0 1.252-.224.387-.637.625-1.084.625-.691 0-1.251-.56-1.251-1.251 0-.691.56-1.251 1.251-1.251zm-3.749-.006c.692 0 1.252.56 1.252 1.251 0 .691-.56 1.252-1.252 1.252-.69 0-1.251-.56-1.251-1.252 0-.69.56-1.251 1.251-1.251zm0 .491c-.418 0-.757.34-.757.757 0 .419.34.758.757.758.419 0 .758-.34.758-.758s-.34-.757-.758-.757zm0-4.228c.692 0 1.252.56 1.252 1.251 0 .691-.56 1.252-1.252 1.252-.69 0-1.251-.56-1.251-1.252 0-.691.56-1.251 1.251-1.251zm3.743 0c.691 0 1.252.56 1.252 1.251 0 .691-.56 1.252-1.252 1.252-.69 0-1.251-.56-1.251-1.252 0-.691.56-1.251 1.251-1.251zM15.75 7c.466-.032.91.2 1.154.599.242.399.242.9 0 1.3-.243.399-.688.63-1.154.604-.692 0-1.252-.56-1.252-1.252 0-.69.56-1.251 1.252-1.251zm-7.498.497c-.418 0-.757.34-.757.757 0 .418.34.757.757.757.419 0 .758-.339.758-.757s-.34-.757-.758-.757zm3.743 0c-.418 0-.757.34-.757.757 0 .418.34.757.757.757.418 0 .757-.339.757-.757s-.339-.757-.757-.757z" transform="translate(-40 -76) translate(24 24) translate(0 40) translate(16 12)"/>
                    </g>
                </g>
            </g>
        </g>
    </g>
</svg>
