<svg xmlns="http://www.w3.org/2000/svg" xmlns:xlink="http://www.w3.org/1999/xlink" width="20" height="16" viewBox="0 0 20 16">
  <defs>
    <rect id="flag-croatia-a" width="20" height="16" x="0" y="0" rx="1.6"/>
    <rect id="flag-croatia-c" width="20" height="5.33" x="0" y="5.33"/>
    <filter id="flag-croatia-d" width="102.5%" height="109.4%" x="-1.2%" y="-4.7%" filterUnits="objectBoundingBox">
      <feOffset dx=".5" in="SourceAlpha" result="shadowOffsetInner1"/>
      <feComposite in="shadowOffsetInner1" in2="SourceAlpha" k2="-1" k3="1" operator="arithmetic" result="shadowInnerInner1"/>
      <feColorMatrix in="shadowInnerInner1" result="shadowMatrixInner1" values="0 0 0 0 0.870588235   0 0 0 0 0.88627451   0 0 0 0 0.901960784  0 0 0 1 0"/>
      <feOffset dx="-.5" in="SourceAlpha" result="shadowOffsetInner2"/>
      <feComposite in="shadowOffsetInner2" in2="SourceAlpha" k2="-1" k3="1" operator="arithmetic" result="shadowInnerInner2"/>
      <feColorMatrix in="shadowInnerInner2" result="shadowMatrixInner2" values="0 0 0 0 0.870588235   0 0 0 0 0.88627451   0 0 0 0 0.901960784  0 0 0 1 0"/>
      <feMerge>
        <feMergeNode in="shadowMatrixInner1"/>
        <feMergeNode in="shadowMatrixInner2"/>
      </feMerge>
    </filter>
  </defs>
  <g fill="none" fill-rule="evenodd">
    <mask id="flag-croatia-b" fill="#fff">
      <use xlink:href="#flag-croatia-a"/>
    </mask>
    <rect width="19.5" height="15.5" x=".25" y=".25" stroke="#E5E5E5" stroke-width=".5" rx="1.6"/>
    <rect width="20" height="5.33" fill="#D80027" fill-rule="nonzero" mask="url(#flag-croatia-b)"/>
    <g fill-rule="nonzero" mask="url(#flag-croatia-b)">
      <use fill="#FFF" xlink:href="#flag-croatia-c"/>
      <use fill="#000" filter="url(#flag-croatia-d)" xlink:href="#flag-croatia-c"/>
    </g>
    <rect width="20" height="5.33" y="10.66" fill="#0052B4" fill-rule="nonzero" mask="url(#flag-croatia-b)"/>
    <g fill-rule="nonzero" mask="url(#flag-croatia-b)">
      <g transform="translate(7 3)">
        <polygon fill="#338AF3" points="5.087 2.565 3.696 2.565 3.928 .826 4.855 .13 5.783 .826 5.783 2.217"/>
        <polygon fill="#338AF3" points=".913 2.565 2.304 2.565 2.072 .826 1.145 .13 .217 .826 .217 2.217"/>
        <polygon fill="#0052B4" points="3.928 2.565 2.072 2.565 2.072 .826 3 .13 3.928 .826"/>
        <path fill="#F0F0F0" d="M0.21740625,2.2174375 L0.21740625,6.0435 C0.21740625,6.95453125 0.65746875,7.76471875 1.33621875,8.272625 L1.8231875,8.15078125 L2.4376875,8.76896875 C2.61940625,8.80640625 2.8074375,8.826125 3.00003125,8.826125 C3.19159375,8.826125 3.3786875,8.80665625 3.5594375,8.76959375 L4.26090625,8.18553125 L4.66378125,8.2715 C5.34225,7.763625 5.782625,6.95428125 5.782625,6.0435 L5.782625,2.2174375 L0.21740625,2.2174375 Z"/>
        <path fill="#D80027" d="M2.44346875,7.782375 L2.44346875,8.77009375 C2.03246875,8.68628125 1.65415625,8.511625 1.3304375,8.26803125 L1.3304375,8.26803125 L1.3304375,7.782375 L2.44346875,7.782375 Z M4.6695625,7.782375 L4.6695625,8.26803125 C4.34584375,8.511625 3.9675625,8.68634375 3.55653125,8.77009375 L3.55653125,8.77009375 L3.55653125,7.782375 L4.6695625,7.782375 Z M3.5565,6.66921875 L3.5565,7.78225 L2.44346875,7.78225 L2.44346875,6.66921875 L3.5565,6.66921875 Z M1.3304375,6.6693125 L1.3304375,7.78234375 L0.82990625,7.78234375 C0.57246875,7.46165625 0.38471875,7.0830625 0.28921875,6.6693125 L0.28921875,6.6693125 L1.3304375,6.6693125 Z M5.71075,6.66934375 C5.61525,7.0830625 5.4275625,7.4616875 5.1700625,7.782375 L5.1700625,7.782375 L4.6695625,7.782375 L4.6695625,6.66934375 Z M2.44346875,5.5561875 L2.44346875,6.66921875 L1.3304375,6.66921875 L1.3304375,5.5561875 L2.44346875,5.5561875 Z M4.6695625,5.5561875 L4.6695625,6.66921875 L3.55653125,6.66921875 L3.55653125,5.5561875 L4.6695625,5.5561875 Z M2.44346875,3.3304375 L2.44346875,4.443125 L3.5565,4.443125 L3.55653125,3.3304375 L4.6695625,3.3304375 L4.6695625,4.443125 L5.78259375,4.443125 L5.78259375,5.55615625 L4.6695625,5.55615625 L4.6695625,4.44346875 L3.55653125,4.44346875 L3.5565,5.55615625 L2.44346875,5.55615625 L2.44346875,4.44346875 L1.3304375,4.44346875 L1.3304375,5.55615625 L0.21740625,5.55615625 L0.21740625,4.443125 L1.3304375,4.443125 L1.3304375,3.3304375 L2.44346875,3.3304375 Z M1.3304375,2.21740625 L1.3304375,3.3304375 L0.21740625,3.3304375 L0.21740625,2.21740625 L1.3304375,2.21740625 Z M3.5565,2.21740625 L3.5565,3.3304375 L2.44346875,3.3304375 L2.44346875,2.21740625 L3.5565,2.21740625 Z M5.78259375,2.21740625 L5.78259375,3.3304375 L4.6695625,3.3304375 L4.6695625,2.21740625 L5.78259375,2.21740625 Z"/>
      </g>
    </g>
  </g>
</svg>
