<svg xmlns="http://www.w3.org/2000/svg" xmlns:xlink="http://www.w3.org/1999/xlink" width="20" height="16" viewBox="0 0 20 16">
  <defs>
    <rect id="flag-slovenia-a" width="20" height="16" x="0" y="0" rx="1.6"/>
  </defs>
  <g fill="none" fill-rule="evenodd">
    <mask id="flag-slovenia-b" fill="#fff">
      <use xlink:href="#flag-slovenia-a"/>
    </mask>
    <use fill="#FFF" xlink:href="#flag-slovenia-a"/>
    <rect width="20" height="5" y="11" fill="#ED1C24" fill-rule="nonzero" mask="url(#flag-slovenia-b)"/>
    <rect width="19.5" height="7.5" x=".25" y=".25" fill="#FFF" fill-rule="nonzero" stroke="#DEE2E6" stroke-width=".5" mask="url(#flag-slovenia-b)" rx="1.6"/>
    <rect width="20" height="5" y="6" fill="#015DA4" fill-rule="nonzero" mask="url(#flag-slovenia-b)"/>
    <g fill-rule="nonzero" mask="url(#flag-slovenia-b)">
      <g transform="translate(4 3)">
        <rect width="1.68" height="1" x="1.96" y="3.36" fill="#ED1C24"/>
        <rect width="1.68" height="1" x="1.96" y="3.36" fill="#005DA4"/>
        <rect width="1.68" height="1" x="1.96" y="3.36" fill="#FFF"/>
        <path fill="#005DA4" d="M4.26833907,3.14721836 L4.444748,0.54364711 C3.06912589,-0.108240362 1.47353811,-0.108240362 0.097916,0.54364711 L0.274324932,3.14721836 C0.353544157,4.3171184 1.14884062,5.31574706 2.271332,5.65479707 C3.39382338,5.31574706 4.18911984,4.3171184 4.26833907,3.14721836"/>
        <path fill="#FFF" d="M0.64127,3.5 C0.830229113,4.35046515 1.4475386,5.04164601 2.271332,5.32512609 C3.0951254,5.04164601 3.71243489,4.35046515 3.901394,3.5 L3.086363,2.413292 L2.7603506,2.8479752 L2.271332,1.869938 L1.7823134,2.8479752 L1.456301,2.413292 L0.64127,3.5"/>
        <path fill="#005DA4" d="M3.82862079,4.08539149 L3.82862079,4.24223968 C3.75656827,4.36704141 3.63788916,4.4581085 3.49869192,4.49540688 C3.35949469,4.53270525 3.21118186,4.51317958 3.08638111,4.44112535 C2.9182668,4.34406451 2.71114142,4.34406451 2.54302711,4.44112535 C2.40293185,4.52200939 2.23574558,4.53549006 2.08661998,4.48156737 L1.99967311,4.44112535 C1.8315588,4.34406451 1.62443342,4.34406451 1.45631911,4.44112535 C1.33151836,4.51317958 1.18320554,4.53270525 1.0440083,4.49540688 C0.904811068,4.4581085 0.786131951,4.36704141 0.714079436,4.24223968 L0.714079436,4.08539149 C0.786131951,4.21019323 0.904811068,4.30126031 1.0440083,4.33855869 C1.18320554,4.37585707 1.33151836,4.35633139 1.45631911,4.28427716 C1.62443342,4.18721632 1.8315588,4.18721632 1.99967311,4.28427716 C2.16778742,4.38133801 2.3749128,4.38133801 2.54302711,4.28427716 C2.71114142,4.18721632 2.9182668,4.18721632 3.08638111,4.28427716 C3.21118186,4.35633139 3.35949469,4.37585707 3.49869192,4.33855869 C3.63788916,4.30126031 3.75656827,4.21019323 3.82862079,4.08539149 Z M3.82862079,3.771677 L3.82862079,3.92852519 C3.75656827,4.05332693 3.63788916,4.14439401 3.49869192,4.18169239 C3.35949469,4.21899077 3.21118186,4.19946509 3.08638111,4.12741086 C2.9182668,4.03035002 2.71114142,4.03035002 2.54302711,4.12741086 C2.3749128,4.22447171 2.16778742,4.22447171 1.99967311,4.12741086 C1.8315588,4.03035002 1.62443342,4.03035002 1.45631911,4.12741086 C1.33151836,4.19946509 1.18320554,4.21899077 1.0440083,4.18169239 C0.904811068,4.14439401 0.786131951,4.05332693 0.714079436,3.92852519 L0.714079436,3.771677 C0.786131951,3.89647874 0.904811068,3.98754582 1.0440083,4.0248442 C1.18320554,4.06214258 1.33151836,4.0426169 1.45631911,3.97056268 C1.62443342,3.87350183 1.8315588,3.87350183 1.99967311,3.97056268 C2.16778742,4.06762352 2.3749128,4.06762352 2.54302711,3.97056268 C2.71114142,3.87350183 2.9182668,3.87350183 3.08638111,3.97056268 C3.21118186,4.0426169 3.35949469,4.06214258 3.49869192,4.0248442 C3.63788916,3.98754582 3.75656827,3.89647874 3.82862079,3.771677 Z"/>
        <polygon fill="#FD0" points="2.271 1.123 2.312 1.256 2.448 1.225 2.353 1.327 2.448 1.428 2.312 1.397 2.271 1.53 2.231 1.397 2.095 1.428 2.19 1.327 2.095 1.225 2.231 1.256"/>
        <polygon fill="#FD0" points="1.66 .308 1.701 .441 1.837 .41 1.742 .512 1.837 .613 1.701 .582 1.66 .715 1.619 .582 1.484 .613 1.579 .512 1.484 .41 1.619 .441"/>
        <polygon fill="#FD0" points="2.883 .308 2.923 .441 3.059 .41 2.964 .512 3.059 .613 2.923 .582 2.883 .715 2.842 .582 2.706 .613 2.801 .512 2.706 .41 2.842 .441"/>
        <path fill="#ED1C24" d="M0.250417356,0.47442381 L0.430810884,3.13667729 C0.504551154,4.22406106 1.23379407,5.15660502 2.271332,5.4903057 C3.30886993,5.15660502 4.03811285,4.22406106 4.11185312,3.13667729 L4.29224664,0.47442381 C4.34269647,0.498323301 4.39353717,0.521388798 4.444748,0.543610886 L4.26833907,3.14718214 C4.18911984,4.31708218 3.39382338,5.31571084 2.271332,5.65476085 C1.14884062,5.31571084 0.353544157,4.31708218 0.274324932,3.14718214 L0.097916,0.543610886 C0.14912683,0.521388798 0.199967534,0.498323301 0.250417356,0.47442381"/>
      </g>
    </g>
  </g>
</svg>
