<svg xmlns="http://www.w3.org/2000/svg" xmlns:xlink="http://www.w3.org/1999/xlink" width="20" height="16" viewBox="0 0 20 16">
  <defs>
    <rect id="flag-cyprus-a" width="20" height="16" x="0" y="0" rx="1.6"/>
  </defs>
  <g fill="none" fill-rule="evenodd">
    <mask id="flag-cyprus-b" fill="#fff">
      <use xlink:href="#flag-cyprus-a"/>
    </mask>
    <rect width="19.5" height="15.5" x=".25" y=".25" stroke="#DEE2E6" stroke-width=".5" rx="1.6"/>
    <path fill="#435125" fill-rule="nonzero" d="M9.95797694,13.1351319 L9.72903965,12.8445333 L9.45708805,13.1875615 L9.45708805,13.1875615 L9.37599965,13.2770133 L9.37599965,13.2770133 L9.36303965,13.2864533 L9.30815965,13.2810133 L9.33394632,13.26096 L9.35773299,13.27576 L9.34011299,13.24881 L9.34011299,13.24881 L9.24949299,13.1585867 L9.24949299,13.1585867 L9.13919965,13.0626133 L9.52191965,12.7806667 L9.37069299,12.71016 L9.45149299,12.6193333 L9.72903965,12.73816 L10.0065863,12.6193333 L10.0873863,12.71016 L9.93615965,12.7806667 L10.3188797,13.0626133 L10.2085863,13.1585867 L10.2085863,13.1585867 L10.1318663,13.2328 L10.1318663,13.2328 L10.1003463,13.27576 L10.1003463,13.27576 L10.124133,13.26096 L10.1499197,13.2810133 L10.0946663,13.2866667 L10.0658876,13.2611913 L10.0658876,13.2611913 L9.95797694,13.1351319 L9.95797694,13.1351319 Z M10.9437063,12.5441333 C11.0945863,12.54472 11.1879463,12.5901333 11.2397063,12.6281333 L11.2746255,12.6578521 L11.2746255,12.6578521 L11.316453,12.7106933 L11.1865942,12.7757517 C11.0992967,12.812815 11.0105109,12.8376583 10.9208601,12.8501083 L10.785813,12.8594667 L10.6820454,12.8539075 C10.5829651,12.8432825 10.4982913,12.81894 10.4332863,12.7942 L10.3310605,12.7481367 L10.3310605,12.7481367 L10.2906397,12.7246933 L10.2906397,12.7246933 C10.492709,12.6288427 10.6730695,12.5707947 10.8286219,12.5514095 L10.9437063,12.5441333 Z M8.51749299,12.5441333 C8.69618632,12.5441333 8.91485299,12.60488 9.16743965,12.7246933 L9.12701882,12.7481367 L9.12701882,12.7481367 L9.02479299,12.7942 C8.95978799,12.81894 8.87511424,12.8432825 8.77603392,12.8539075 L8.67226632,12.8594667 C8.53672632,12.8594467 8.40243132,12.8313467 8.27148507,12.7757517 L8.14162632,12.7106933 L8.15961965,12.6843633 C8.17201299,12.6687067 8.19119965,12.6480667 8.21837299,12.6281333 C8.25978099,12.5977333 8.32781299,12.5625888 8.43062003,12.5494466 L8.51749299,12.5441333 Z M10.9320263,11.8900267 L11.0029063,11.89784 L11.0043485,11.9089033 L11.001513,11.98011 C10.9950063,12.0291867 10.9773997,12.0952667 10.933093,12.16392 C10.8592322,12.2783615 10.6959927,12.4233123 10.335515,12.5005395 L10.191093,12.52592 L10.2608207,12.4022708 C10.5412173,11.9428096 10.8183525,11.8900267 10.9320263,11.8900267 Z M8.52605299,11.8900267 C8.64919965,11.8900267 8.96418632,11.9519733 9.26733299,12.5258133 C8.80429299,12.4600267 8.60807965,12.2926667 8.52498632,12.16392 C8.48067965,12.0952667 8.46307299,12.0291867 8.45656632,11.98011 L8.45373076,11.9089033 L8.45373076,11.9089033 L8.45517299,11.89784 L8.48877891,11.8921472 C8.49926484,11.8909896 8.51185743,11.8900978 8.52605299,11.8900267 Z M11.4629597,12.1242133 L11.4942663,12.1250133 C11.5426183,12.1272747 11.5845831,12.1343829 11.6178687,12.1422524 L11.701333,12.1690133 L11.701333,12.1690133 L11.6950693,12.1979457 C11.692773,12.205443 11.6896708,12.2139467 11.685493,12.22296 C11.6721063,12.2518133 11.644213,12.2942933 11.5871997,12.33296 C11.4879997,12.4002667 11.3374397,12.4343733 11.1396797,12.4344 C11.0785063,12.4343644 11.01213,12.4309156 10.941491,12.4242746 L10.832453,12.4119467 L10.9236468,12.3311107 C11.134543,12.1623925 11.329213,12.1242133 11.4629597,12.1242133 Z M7.99511965,12.1242133 C8.12886632,12.1242133 8.32353632,12.1623925 8.53443247,12.3311107 L8.62562632,12.4119467 C8.51362632,12.4266133 8.41015965,12.4343467 8.31815965,12.4343467 C8.12063965,12.4343733 7.97007965,12.4002667 7.87087965,12.33296 C7.81386632,12.2942933 7.78597299,12.2518133 7.77258632,12.22296 L7.75674632,12.1690133 L7.75674632,12.1690133 L7.79707827,12.1541167 C7.82111155,12.1465075 7.85497011,12.1376166 7.89636189,12.1315298 L7.99511965,12.1242133 L7.99511965,12.1242133 Z M12.317333,12.09944 L12.4481901,12.1046383 L12.4481901,12.1046383 L12.6105912,12.1236654 L12.6105912,12.1236654 L12.770613,12.1549333 L12.6735019,12.2352574 C12.5338722,12.3297537 12.3600856,12.3769552 12.2071819,12.3920559 L12.081093,12.39744 C11.9676797,12.3956267 11.8874397,12.3775467 11.8425597,12.3436533 C11.821333,12.3276533 11.8108263,12.3062133 11.8143997,12.28632 C11.8186663,12.2625067 11.8376797,12.2382133 11.8724797,12.2121067 C11.9721597,12.13736 12.121813,12.09944 12.317333,12.09944 Z M7.14074632,12.09944 C7.33626632,12.09944 7.48591965,12.13736 7.58559965,12.2121067 C7.62039965,12.2382133 7.63941299,12.2625067 7.64367965,12.28632 C7.64725299,12.3062133 7.63674632,12.3276533 7.61551965,12.3436533 C7.58185965,12.3690733 7.52830965,12.3855983 7.45579215,12.3930371 L7.36079965,12.3976 C7.18702188,12.3976 6.95911447,12.3533778 6.78457743,12.2352574 L6.68746632,12.1549333 L6.78248183,12.1347607 L6.78248183,12.1347607 L6.92426904,12.1130845 C6.95149897,12.1098234 6.9802021,12.1069179 7.00988918,12.1046383 L7.14074632,12.09944 L7.14074632,12.09944 Z M6.71605299,11.5266667 C6.84342099,11.5266667 7.08952419,11.5748131 7.38515619,11.8745649 L7.48457348,11.9836533 L7.33751075,11.9740746 C7.01320257,11.9400138 6.83455965,11.8380267 6.73935965,11.75272 C6.67810632,11.69784 6.64405299,11.64344 6.62629299,11.6074667 L6.61282138,11.5766321 L6.61282138,11.5766321 L6.60263965,11.5422133 L6.63050965,11.5349633 C6.63946132,11.5331117 6.65040715,11.5312208 6.6631084,11.5297146 L6.71605299,11.5266667 Z M12.7518397,11.5267733 L12.7949709,11.5297146 L12.7949709,11.5297146 L12.8482034,11.5399771 L12.8482034,11.5399771 L12.8554397,11.5422133 L12.8452372,11.5766232 C12.8417952,11.5857037 12.8373685,11.5961422 12.8317863,11.6074667 C12.8140263,11.64344 12.779973,11.69784 12.7187197,11.75272 C12.6235197,11.8380267 12.4448767,11.9400138 12.1205686,11.9740746 L11.9726397,11.9843467 L12.0729231,11.8745649 C12.3357071,11.6081188 12.5593573,11.5404721 12.6952677,11.528729 L12.7518397,11.5267733 Z M7.30511965,11.3874133 C7.47493299,11.39112 7.78335965,11.4680267 7.94125299,11.94168 C7.60370632,11.8904533 7.41242632,11.74552 7.31141299,11.6329333 C7.25846632,11.5739333 7.22406632,11.51696 7.20272632,11.4740967 L7.17239965,11.39992 L7.17239965,11.39992 L7.2340234,11.390005 L7.2340234,11.390005 L7.30511965,11.3874133 Z M12.0975562,11.3911106 L12.1816797,11.3874133 L12.2567497,11.3941867 L12.2567497,11.3941867 L12.2856797,11.39992 L12.2856797,11.39992 L12.2725429,11.4363842 C12.2548856,11.479203 12.2172619,11.5542667 12.1466663,11.6329333 C12.0600835,11.7294362 11.9071822,11.8497039 11.652647,11.9144736 L11.5167463,11.9418667 L11.5634031,11.8220954 C11.7111796,11.495476 11.9400889,11.4087233 12.0975562,11.3911106 L12.0975562,11.3911106 Z M5.87479965,11.4490667 C5.95285299,11.4490667 6.02967965,11.4565067 6.10317299,11.4712 C6.27877299,11.5063167 6.40153965,11.6023292 6.46926596,11.6699211 L6.53103965,11.74192 L6.43923965,11.7609533 C6.38210632,11.7703867 6.30170632,11.7797867 6.20783965,11.7797867 C6.09735965,11.7797333 5.99002632,11.7669333 5.88901299,11.74168 C5.71223965,11.6974667 5.63639965,11.6299733 5.60391965,11.58112 C5.58546632,11.5533867 5.57877299,11.5290667 5.57642632,11.5135467 L5.57642632,11.48464 L5.65547632,11.4678233 L5.65547632,11.4678233 L5.77868002,11.4527036 L5.77868002,11.4527036 L5.87479965,11.4490667 Z M13.602613,11.4492267 L13.6793993,11.4527036 L13.6793993,11.4527036 L13.802603,11.4678233 L13.802603,11.4678233 L13.881653,11.48464 L13.881653,11.5135467 L13.881653,11.5135467 C13.8793063,11.5290667 13.872613,11.5533867 13.8541597,11.58112 C13.8216797,11.6299733 13.7458397,11.6974667 13.5690663,11.74168 C13.468053,11.7669333 13.3607197,11.7797333 13.2500797,11.7797333 C13.1875552,11.7797511 13.1309982,11.7755852 13.0833182,11.7700128 L12.9698189,11.7518538 L12.9698189,11.7518538 L12.9270397,11.74192 L12.9548901,11.7064863 C13.0095463,11.64317 13.1441863,11.51334 13.3549063,11.4712 L13.467383,11.4546233 L13.467383,11.4546233 L13.602613,11.4492267 Z M5.77589299,10.76816 C5.82005299,10.76816 5.91045299,10.7805867 6.01981299,10.8637333 C6.15901299,10.9698667 6.28754632,11.1549333 6.40247965,11.4144 L6.3260449,11.3900606 L6.3260449,11.3900606 L6.21595837,11.3453423 C6.17432074,11.3262765 6.12891775,11.3029067 6.08327965,11.2748 C5.95655965,11.1967886 5.80558496,11.0673682 5.75114764,10.8744646 L5.73290632,10.7724267 L5.77589299,10.76816 Z M13.6821863,10.76816 L13.725173,10.7724267 C13.703493,11.0228 13.5226397,11.1837867 13.3747997,11.2748 C13.3291616,11.3029067 13.2837586,11.3262765 13.2421228,11.3453361 L13.1320493,11.3900109 L13.1320493,11.3900109 L13.0556797,11.4141333 L13.0556797,11.4141333 C13.170533,11.1549333 13.2990663,10.9698667 13.4382663,10.8637333 C13.5476263,10.7805867 13.6380263,10.76816 13.6821863,10.76816 Z M6.18639965,10.59648 C6.25069299,10.5982933 6.34861299,10.6250133 6.45717299,10.74216 C6.55692765,10.8498293 6.64811485,11.0128971 6.72912349,11.2282502 L6.78741299,11.4001067 L6.71300299,11.3626533 C6.66743965,11.3367667 6.60455965,11.2963067 6.53469299,11.23776 C6.40450632,11.12864 6.22146632,10.93216 6.08893299,10.6156267 L6.12528854,10.6027417 C6.13668113,10.5999081 6.15039076,10.5974578 6.16589299,10.59648 L6.18639965,10.59648 Z M13.2921863,10.59648 L13.3327908,10.6027417 L13.3327908,10.6027417 L13.3691463,10.6156267 L13.3691463,10.6156267 C13.236613,10.93216 13.053573,11.12864 12.9233863,11.23776 C12.8535197,11.2963067 12.7906397,11.3367667 12.745103,11.36264 L12.6698663,11.4003733 C12.7649063,11.0978933 12.876213,10.8767467 13.0009063,10.74216 C13.0877543,10.6484427 13.1677927,10.6125984 13.2292523,10.601081 L13.2716797,10.59648 L13.2921863,10.59648 Z M4.94693299,10.6234133 C5.30111965,10.6338133 5.46839965,10.7373067 5.54634632,10.8222667 C5.59463432,10.8749067 5.61566792,10.9287563 5.62482056,10.9646577 L5.63159965,11.00688 L5.50519965,11.01168 L5.50519965,11.01168 C5.43354632,11.0117333 5.32370632,11.0073333 5.20823965,10.9863467 C5.09373299,10.96552 5.02882632,10.86816 4.99455965,10.7901867 L4.97525768,10.7403072 L4.97525768,10.7403072 L4.95279197,10.6580139 L4.95279197,10.6580139 L4.94693299,10.6234133 Z M14.5111463,10.6234133 L14.4964826,10.6950293 C14.4890813,10.7228672 14.4784423,10.7562133 14.4635197,10.7901867 C14.429253,10.86816 14.3643463,10.96552 14.2498397,10.9863467 C14.1728619,11.0003378 14.0983848,11.006957 14.0360164,11.0098153 L13.861363,11.0092867 L13.861363,11.0092867 L13.8264797,11.00688 L13.827497,10.9938669 C13.8314173,10.9647904 13.847349,10.8924533 13.911733,10.8222667 C13.9896797,10.7373067 14.1569597,10.6338133 14.5111463,10.6234133 Z M4.92077299,9.75165333 C4.96781299,9.75242667 5.01802632,9.7736 5.08581299,9.82029333 C5.12103076,9.84456 5.15865447,9.87464593 5.19819422,9.91012444 L5.31019064,10.0196452 L5.31019064,10.0196452 L5.42448953,10.1477719 L5.42448953,10.1477719 L5.45170632,10.18096 L5.53716851,10.3458283 L5.53716851,10.3458283 L5.56655965,10.4091733 C5.59653299,10.4766933 5.61367965,10.52536 5.62053299,10.5624 C5.62445299,10.5834933 5.62559965,10.5973333 5.62042632,10.6098933 L5.61015965,10.62184 L5.61015965,10.62184 L5.59842632,10.62424 C5.52917299,10.6132267 5.41877299,10.5652 5.29671965,10.4952267 C5.16119965,10.41752 5.05114632,10.3342667 4.98685299,10.2608 C4.92823965,10.1938133 4.89343965,10.0886133 4.88338632,9.94810667 L4.880866,9.84016981 L4.880866,9.84016981 L4.88570632,9.75709333 L4.88570632,9.75709333 L4.92077299,9.75165333 L4.92077299,9.75165333 Z M14.5373063,9.75165333 L14.572373,9.75709333 L14.572373,9.75709333 L14.5772133,9.84016981 L14.5772133,9.84016981 L14.574693,9.94810667 L14.574693,9.94810667 C14.5646397,10.0886133 14.5298397,10.1938133 14.4712263,10.2608 C14.406933,10.3342667 14.2968797,10.41752 14.1613597,10.4952267 C14.0698197,10.5477067 13.9848347,10.5878417 13.9215584,10.6090504 L13.859653,10.62424 L13.8479197,10.62184 L13.837653,10.6098933 L13.837653,10.6098933 C13.8324797,10.5973333 13.8336263,10.5834933 13.8375463,10.5624 C13.8421152,10.5377067 13.8512589,10.5078459 13.865728,10.4706765 L13.9209108,10.3458283 L13.9209108,10.3458283 L14.006373,10.18096 L14.1478847,10.0196501 L14.1478847,10.0196501 L14.1991997,9.96733333 C14.2611997,9.90618667 14.3194397,9.85669333 14.3722663,9.82029333 C14.440053,9.7736 14.4902663,9.75242667 14.5373063,9.75165333 Z" mask="url(#flag-cyprus-b)"/>
    <path fill="#D47600" fill-rule="nonzero" d="M17.1354667,2.54602667 L17.0726667,2.57104 L17.0480533,2.58085333 L16.9719467,2.57666667 L16.9006667,2.61088 L16.7742667,2.69725333 L16.7686933,2.70125333 L16.7215733,2.71354667 L16.6778133,2.69466667 L16.65296,2.70597333 L16.6444,2.75717333 L16.6207467,2.79394667 L16.5916267,2.8144 L16.4907467,2.82472 L16.40568,2.86858667 L16.2950133,2.83896 L16.2436,2.85909333 L16.1342933,2.95754667 L16.0784267,2.984 L16.0589067,2.98288 L15.9848267,2.97906667 L15.9535467,2.98930667 L15.9068267,3.03445333 L15.8184267,3.04133333 L15.79088,3.0604 L15.7477333,3.14733333 L15.7009867,3.19554667 L15.67424,3.2012 L15.6452533,3.19058667 L15.6234667,3.19442667 L15.6136,3.25005333 L15.5924533,3.27336 L15.53328,3.29373333 L15.486,3.33312 L15.4445067,3.35442667 L15.3889333,3.35304 L15.37616,3.35304 L15.3208,3.3836 L15.2166667,3.39272 L15.17336,3.43402667 L15.1638133,3.44285333 L15.1436,3.45506667 L15.1105333,3.4748 L15.1024267,3.47970667 L15.06256,3.47258667 L15.0158933,3.49106667 L14.9970133,3.46202667 L14.96472,3.48141333 L14.9219467,3.48325333 L14.8686667,3.45954667 L14.82808,3.44146667 L14.7984,3.44576 L14.78808,3.49749333 L14.78704,3.50298667 L14.75584,3.54450667 L14.6976,3.57978667 L14.68968,3.59010667 L14.6234133,3.67565333 L14.4974933,3.80808 L14.3910133,3.86216 L14.28064,3.89573333 L14.2033867,3.9592 L14.0007467,4.05965333 L13.6809067,4.21877333 L13.6154933,4.23973333 L13.5216267,4.25472 L13.3542133,4.31637333 L13.2065067,4.36093333 L13.1982933,4.36344 L13.1690667,4.37229333 L12.9608,4.43530667 L12.8638667,4.42506667 L12.8064533,4.44592 L12.6569867,4.42933333 L12.5530667,4.43138667 L12.48728,4.44506667 L12.3636267,4.50437333 L12.1549067,4.60469333 L12.0859467,4.66778667 L11.97856,4.72381333 L11.8528267,4.76362667 L11.85312,4.7108 L11.8523733,4.70856 L11.8087467,4.72234667 L11.7772533,4.73229333 L11.6752533,4.74802667 L11.6185067,4.74802667 L11.58328,4.73778667 L11.57784,4.73962667 L11.36936,4.80832 L11.1368533,4.83077333 L11.0205067,4.86808 L10.9335733,4.86669333 L10.8792267,4.88288 L10.7726933,4.89589333 L10.7346133,4.88573333 L10.7260267,4.88338667 L10.4126933,4.89698667 L10.26944,4.8808 L10.2010667,4.89634667 L10.0865067,4.85781333 L9.91933333,4.83842667 L9.88026667,4.82672 L9.7924,4.80064 L9.75264,4.82354667 L9.72288,4.82672 L9.65176,4.80093333 L9.62616,4.80026667 L9.56744,4.82149333 L9.53365333,4.81282667 L9.50226667,4.78781333 L9.42864,4.77685333 L9.38378667,4.73914667 L9.13306667,4.77237333 L9.06504,4.75237333 L8.83693333,4.68592 L8.80064,4.68776 L8.75541333,4.72165333 L8.68746667,4.74642667 L8.62848,4.76176 L8.54816,4.76456 L8.45490667,4.74008 L8.35874667,4.69346667 L8.3232,4.68501333 L8.24389333,4.69301333 L8.21962667,4.69522667 L8.07386667,4.61704 L7.88608,4.4996 L7.75866667,4.43837333 L7.71082667,4.43061333 L7.7044,4.45336 L7.72813333,4.52816 L7.73621333,4.60213333 L7.73378667,4.67048 L7.73248,4.7128 L7.74437333,4.7508 L7.79037333,4.80178667 L7.80954667,4.85298667 L7.82357333,4.99389333 L7.82341333,5.13688 L7.80104,5.36490667 L7.79349333,5.39962667 L7.7668,5.51776 L7.74242667,5.62626667 L7.64786667,5.91514667 L7.62189333,5.95096 L7.55813333,5.99445333 L7.41362667,6.0928 L7.30722667,6.15416 L7.27354667,6.16810667 L7.18717333,6.17464 L7.13336,6.17184 L7.06634667,6.13554667 L7.00056,6.11861333 L6.91437333,6.05664 L6.81850667,6.0368 L6.71341333,5.97605333 L6.68605333,5.94317333 L6.62882667,5.93778667 L6.54946667,5.91397333 L6.54952,5.91384 L6.52037333,5.90512 L6.50024,5.89925333 L6.50024,5.89922667 L6.39901333,5.89645333 L6.30461333,5.85288 L6.25490667,5.84088 L6.18698667,5.83744 L6.11589333,5.87048 L6.11586667,5.87037333 L6.07984,5.88714667 L6.03432,5.86906667 L6.00138667,5.87112 L5.96408,5.92752 L5.95850667,5.93626667 L5.9328,5.94986667 L5.9008,5.94941333 L5.87576,5.94874667 L5.84866667,5.96058667 L5.81218667,5.9764 L5.81218667,5.97648 L5.77997333,5.99053333 L5.76424,5.99733333 L5.76397333,5.99706667 L5.75429333,5.99901333 L5.73709333,6.002 L5.71576,6.00608 L5.67816,5.98410667 L5.65816,5.97232 L5.62464,5.96549333 L5.60658667,5.97853333 L5.60304,6.03989333 L5.58656,6.07664 L5.53426667,6.12288 L5.48112,6.16968 L5.44408,6.22426667 L5.34605333,6.448 L5.28464,6.53826667 L5.26557333,6.55930667 L5.20136,6.63013333 L5.1444,6.67432 L5.01314667,6.77605333 L4.88890667,6.82248 L4.78189333,6.84434667 L4.72986667,6.84456 L4.63130667,6.83144 L4.54269333,6.80424 L4.44536,6.74338667 L4.33861333,6.6576 L4.18410667,6.50496 L4.16224,6.49181333 L4.15768,6.48877333 L4.10901333,6.45765333 L4.07290667,6.45858667 L4.05877333,6.48189333 L4.05104,6.51557333 L4.04450667,6.54544 L4.0268,6.71522667 L4.02810667,6.72506667 L4.03741333,6.79498667 L4.15477333,6.95898667 L4.19098667,7.04610667 L4.19693333,7.05605333 L4.22114667,7.09672 L4.23957333,7.12773333 L4.24141333,7.13088 L4.28152,7.25056 L4.25333333,7.31813333 L4.26757333,7.36338667 L4.23194667,7.39104 L4.22541333,7.43010667 L4.33077333,7.56218667 L4.35376,7.62045333 L4.32808,7.70122667 L4.28712,7.74578667 L4.27568,7.75797333 L4.28144,7.79210667 L4.32992,7.83570667 L4.41229333,7.90904 L4.45621333,8.018 L4.48962667,8.04722667 L4.52845333,8.03896 L4.55005333,8.05544 L4.5828,8.05488 L4.61501333,8.08709333 L4.63586667,8.0972 L4.66882667,8.11362667 L4.69488,8.14754667 L4.70064,8.25184 L4.74922667,8.38144 L4.74997333,8.45170667 L4.75024,8.46168 L4.78048,8.51362667 L4.78997333,8.55464 L4.77386667,8.66314667 L4.8124,8.69797333 L4.85418667,8.68944 L4.88117333,8.69370667 L4.92453333,8.72981333 L4.97704,8.80984 L5.0284,8.80232 L5.06098667,8.81802667 L5.21837333,8.96026667 L5.25408,8.97829333 L5.25605333,8.97941333 L5.28173333,8.99229333 L5.31365333,9.02450667 L5.36314667,8.99165333 L5.36864,8.99109333 L5.42245333,8.98634667 L5.44608,9.00226667 L5.49152,9.03290667 L5.55109333,9.03213333 L5.68026667,9.07173333 L5.73677333,9.08621333 L5.8504,9.15682667 L5.89869333,9.18669333 L5.92728,9.20992 L5.96525333,9.24088 L6.04112,9.27352 L6.10618667,9.28909333 L6.14144,9.29746667 L6.16797333,9.30770667 L6.16864,9.30605333 L6.16901333,9.30616 L6.16837333,9.30784 L6.30928,9.36178667 L6.3856,9.3796 L6.45621333,9.4056 L6.5076,9.42434667 L6.54530667,9.42496 L6.59864,9.38010667 L6.65029333,9.37712 L6.6932,9.38781333 L6.73506667,9.3808 L6.80133333,9.33997333 L6.81426667,9.3208 L6.86125333,9.29842667 L7.01976,9.27874667 L7.06608,9.29378667 L7.18501333,9.24205333 L7.26469333,9.26421333 L7.33522667,9.2392 L7.48933333,9.27344 L7.53029333,9.30226667 L7.57608,9.35466667 L7.58168,9.35490667 L7.63266667,9.35589333 L7.61136,9.39138667 L7.67864,9.46197333 L7.73941333,9.55384 L7.74352,9.56597333 L7.78770667,9.69568 L7.82056,9.74162667 L7.84354667,9.80576 L7.84466667,9.84757333 L7.80893333,9.87482667 L7.80306667,9.89037333 L7.80104,9.89613333 L7.80829333,9.9136 L7.82178667,9.90624 L7.84746667,9.89202667 L7.87856,9.8872 L7.93365333,9.89306667 L7.97002667,9.89688 L8.02746667,9.86837333 L8.06552,9.84944 L8.12666667,9.87576 L8.19386667,9.87501333 L8.22208,9.88757333 L8.30194667,9.92378667 L8.34272,9.92762667 L8.35778667,9.91773333 L8.36738667,9.89490667 L8.36245333,9.86834667 L8.33192,9.83306667 L8.26442667,9.75472 L8.2368,9.71445333 L8.21576,9.65616 L8.20922667,9.58165333 L8.20458667,9.53138667 L8.21296,9.46533333 L8.23109333,9.44176 L8.24442667,9.38928 L8.24466667,9.38928 L8.24810667,9.37554667 L8.2856,9.32578667 L8.38490667,9.26197333 L8.49157333,9.16645333 L8.57589333,9.11085333 L8.66282667,9.0732 L8.66514667,9.06264 L8.67482667,9.06653333 L8.89594667,8.99136 L8.8996,8.99093333 L8.99805333,8.97378667 L9.66258667,9.02058667 L9.68722667,9.01314667 L9.68733333,9.01298667 L9.70946667,8.95085333 L9.72138667,8.93933333 L9.72930667,8.93181333 L9.80237333,8.89965333 L9.83653333,8.89477333 L9.93136,8.91818667 L9.97018667,8.92776 L10.0323733,8.89290667 L10.07648,8.89365333 L10.1676,8.84389333 L10.2238933,8.84530667 L10.2453067,8.83674667 L10.35496,8.75794667 L10.4605867,8.72768 L10.4880533,8.71306667 L10.4977333,8.70776 L10.606,8.65058667 L10.6747733,8.59776 L10.7341333,8.56621333 L10.7991467,8.54944 L10.96928,8.53746667 L11.0034933,8.48045333 L11.0766667,8.47069333 L11.1208533,8.42082667 L11.1714133,8.40026667 L11.2076533,8.34805333 L11.2380267,8.30429333 L11.2804533,8.27973333 L11.4164533,8.2712 L11.5776533,8.29117333 L11.59896,8.27824 L11.6353867,8.14824 L11.67352,8.12384 L11.7762133,7.97418667 L11.77656,7.91965333 L11.7766667,7.87410667 L11.7935467,7.80925333 L11.78208,7.69216 L11.79568,7.5736 L11.85952,7.42293333 L11.91576,7.36216 L12.0064533,7.3008 L12.05256,7.28072 L12.1178667,7.26973333 L12.1178667,7.26957333 L12.1274667,7.26794667 L12.1441067,7.26509333 L12.3689867,7.262 C12.3721067,7.25968 12.4507733,7.26088 12.4507733,7.26088 L12.52576,7.25986667 L12.7154667,7.29362667 L12.72896,7.29597333 L12.7930933,7.31674667 L12.8670667,7.37426667 L12.94536,7.45074667 L12.9600533,7.46501333 L13.0107733,7.48637333 L13.0261067,7.49306667 L13.068,7.48637333 L13.1276533,7.45530667 L13.1726667,7.41725333 L13.2340267,7.38373333 L13.23552,7.3816 L13.2700533,7.32965333 L13.2710933,7.32858667 L13.27184,7.32877333 L13.27192,7.32848 L13.2713333,7.32834667 L13.28496,7.30768 L13.4035467,7.26146667 L13.5430133,7.25336 L13.5586933,7.24488 L13.5674133,7.24021333 L13.6042667,7.19693333 L13.6388,7.19664 L13.7224,7.22688 L13.7811733,7.21522667 L13.82784,7.23386667 L13.8641067,7.22957333 L13.9325067,7.22146667 L14.0059467,7.27314667 L14.0487467,7.27861333 L14.1996267,7.36688 L14.2074667,7.36816 L14.21152,7.36890667 L14.22016,7.37032 L14.2380533,7.36501333 L14.2646667,7.35730667 L14.2681867,7.35626667 L14.2715467,7.36090667 L14.2886933,7.38509333 L14.3122133,7.38845333 L14.3400533,7.35130667 L14.3289867,7.33445333 L14.3248,7.32832 L14.2709067,7.31736 L14.2225067,7.23461333 L14.2685867,7.18498667 L14.1962933,7.09629333 L14.1842933,7.0816 L14.1802133,7.07536 L14.1552267,7.03741333 L14.0286667,6.84448 L13.8638133,6.71288 L13.86376,6.71298667 L13.8060267,6.6668 L13.8056533,6.66653333 L13.78544,6.65064 L13.6973867,6.56109333 L13.6345067,6.47762667 L13.6262667,6.45965333 L13.61328,6.43133333 L13.5756,6.34925333 L13.5099467,6.29869333 L13.4564533,6.24026667 L13.45384,6.23682667 L13.34344,6.0868 L13.3253067,6.06165333 L13.2992267,6.04658667 L13.2441333,6.04621333 L13.2389333,6.04098667 L13.23584,6.03776 L13.2377067,6.03578667 L13.2641333,6.00952 L13.2936,6.00210667 L13.3062933,5.97306667 L13.25008,5.81029333 L13.2497067,5.80461333 L13.24552,5.75261333 L13.2913333,5.51648 L13.2972,5.48770667 L13.37528,5.32882667 L13.4236533,5.2892 L13.4764533,5.18541333 L13.52168,5.11906667 L13.5650133,5.07688 L13.5725867,5.0724 L13.6508267,5.02504 L13.71656,5.01578667 L13.7791733,5.00696 L13.88848,5.04066667 L13.9925067,5.03864 L14.0128,5.03648 L14.06,5.03106667 L14.1376267,5.00661333 L14.1742667,4.984 L14.19328,4.95485333 L14.2329333,4.82186667 L14.24568,4.77954667 L14.2701333,4.73357333 L14.4116267,4.57069333 L14.5185867,4.47176 L14.7590933,4.29541333 L14.8768267,4.22504 L14.9369333,4.18912 L15.4736267,3.95056 L15.6130933,3.80917333 L15.68576,3.73565333 L15.81432,3.64938667 L15.9647467,3.58776 L16.0941867,3.48530667 L16.1224533,3.44973333 L16.15808,3.33498667 L16.18776,3.32781333 L16.21456,3.26984 L16.2221867,3.25336 L16.3278133,3.17890667 L16.33976,3.17296 L16.7501067,2.96736 L16.8097333,2.97554667 L16.8416533,2.92773333 L16.96104,2.90770667 L16.9830133,2.90397333 L17.0124533,2.88928 L17.0374933,2.84664 L17.0374933,2.83821333 L17.0409333,2.72426667 L17.0664267,2.69346667 L17.08032,2.61837333 L17.0934133,2.60104 L17.1070933,2.58301333 L17.1409067,2.55925333 L17.13504,2.54509333 L17.1354667,2.54602667 Z" mask="url(#flag-cyprus-b)"/>
  </g>
</svg>
