<svg xmlns="http://www.w3.org/2000/svg" xmlns:xlink="http://www.w3.org/1999/xlink" width="20" height="16" viewBox="0 0 20 16">
  <defs>
    <rect id="flag-united-kingdom-a" width="20" height="16" x="0" y="0" rx="1.6"/>
  </defs>
  <g fill="none" fill-rule="evenodd">
    <mask id="flag-united-kingdom-b" fill="#fff">
      <use xlink:href="#flag-united-kingdom-a"/>
    </mask>
    <use fill="#FFF" xlink:href="#flag-united-kingdom-a"/>
    <polygon fill="#012169" fill-rule="nonzero" points="0 0 20 0 20 16 0 16" mask="url(#flag-united-kingdom-b)"/>
    <polygon fill="#FFF" fill-rule="nonzero" points="2.344 0 9.969 6.033 17.563 0 20 0 20 2.067 12.5 8.033 20 13.967 20 16 17.5 16 10 10.033 2.531 16 0 16 0 14 7.469 8.067 0 2.133 0 0" mask="url(#flag-united-kingdom-b)"/>
    <path fill="#C8102E" fill-rule="nonzero" d="M13.25,9.36666667 L20,14.6666667 L20,16 L11.53125,9.36666667 L13.25,9.36666667 Z M7.5,10.0333333 L7.6875,11.2 L1.6875,16 L0,16 L7.5,10.0333333 Z M20,0 L20,0.1 L12.21875,6.36666667 L12.28125,4.9 L18.4375,0 L20,0 Z M0,0 L7.46875,5.86666667 L5.59375,5.86666667 L0,1.4 L0,0 Z" mask="url(#flag-united-kingdom-b)"/>
    <path fill="#FFF" fill-rule="nonzero" d="M7.53125,0 L7.53125,16 L12.53125,16 L12.53125,0 L7.53125,0 Z M0,5.33333333 L0,10.6666667 L20,10.6666667 L20,5.33333333 L0,5.33333333 Z" mask="url(#flag-united-kingdom-b)"/>
    <path fill="#C8102E" fill-rule="nonzero" d="M0,6.43333333 L0,9.63333333 L20,9.63333333 L20,6.43333333 L0,6.43333333 Z M8.53125,0 L8.53125,16 L11.53125,16 L11.53125,0 L8.53125,0 Z" mask="url(#flag-united-kingdom-b)"/>
  </g>
</svg>
