<svg xmlns="http://www.w3.org/2000/svg" xmlns:xlink="http://www.w3.org/1999/xlink" width="20" height="16" viewBox="0 0 20 16">
  <defs>
    <rect id="flag-greece-a" width="20" height="16" x="0" y="0" rx="1.6"/>
  </defs>
  <g fill="none" fill-rule="evenodd">
    <mask id="flag-greece-b" fill="#fff">
      <use xlink:href="#flag-greece-a"/>
    </mask>
    <use fill="#FFF" xlink:href="#flag-greece-a"/>
    <rect width="24" height="16" fill="#0D5EAF" fill-rule="nonzero" mask="url(#flag-greece-b)"/>
    <path fill="#FFF" fill-rule="nonzero" d="M20,12.4444444 L20,14.2222222 L0,14.2222222 L0,12.4444444 L20,12.4444444 Z M5.33333333,0 L5.333,3.555 L8.88888889,3.55555556 L8.88888889,5.33333333 L5.333,5.333 L5.333,8.888 L20,8.88888889 L20,10.6666667 L0,10.6666667 L0,8.88888889 L3.555,8.888 L3.555,5.333 L0,5.33333333 L0,3.55555556 L3.555,3.555 L3.55555556,0 L5.33333333,0 Z M20,5.33333333 L20,7.11111111 L8.88888889,7.11111111 L8.88888889,5.33333333 L20,5.33333333 Z M20,1.77777778 L20,3.55555556 L8.88888889,3.55555556 L8.88888889,1.77777778 L20,1.77777778 Z" mask="url(#flag-greece-b)"/>
  </g>
</svg>
