<?xml version="1.0" encoding="UTF-8"?>
<svg width="22px" height="18px" viewBox="0 0 22 18" version="1.1" xmlns="http://www.w3.org/2000/svg" xmlns:xlink="http://www.w3.org/1999/xlink">
    <title>flag-israel</title>
    <defs>
        <rect id="path-1" x="0" y="0" width="20" height="16" rx="1.6"></rect>
    </defs>
    <g id="Symbols" stroke="none" stroke-width="1" fill="none" fill-rule="evenodd">
        <g id="flag-israel" transform="translate(1.000000, 1.000000)">
            <mask id="mask-2" fill="white">
                <use xlink:href="#path-1"></use>
            </mask>
            <rect stroke="#E5E5E5" stroke-width="0.8" x="-0.4" y="-0.4" width="20.8" height="16.8" rx="1.6"></rect>
            <g id="israel" mask="url(#mask-2)">
                <g transform="translate(-2.500000, 0.000000)">
                    <path d="M23.5861414,16 L0.413811692,16 C0.185296513,16 0,15.8114527 0,15.5789285 L0,0.421071459 C0,0.18854729 0.185296513,0 0.413811692,0 L23.5861883,0 C23.8147035,0 24,0.18854729 24,0.421071459 L24,15.5789285 C24,15.8115004 23.8146566,16 23.5861414,16 Z" id="Path" fill="#41479B" fill-rule="nonzero"></path>
                    <rect id="Rectangle" fill="#F5F5F5" fill-rule="nonzero" x="0" y="3" width="24" height="10"></rect>
                    <g id="Shape-2" stroke-width="1" fill="none" fill-rule="evenodd" transform="translate(9.000000, 4.000000)">
                        <path d="M5.83337573,4 L7,2.00015104 L4.66680232,2.00015104 L3.49997456,0 L2.33319768,2.00015104 L0,2.00015104 L1.16662427,4 L0,5.99984896 L2.33319768,5.99984896 L3.49997456,8 L4.66675145,5.99984896 L7,5.99984896 L5.83337573,4 Z M5.85540286,2.65421408 L5.45184335,3.34598731 L5.04828383,2.65421408 L5.85540286,2.65421408 Z M5.07031097,4 L4.28521907,5.34578592 L2.71467919,5.34578592 L1.92963816,4 L2.71473006,2.65421408 L4.28526994,2.65421408 L5.07031097,4 Z M3.49997456,1.30812607 L3.90368669,2.00020139 L3.09626244,2.00020139 L3.49997456,1.30812607 Z M1.14454627,2.65421408 L1.95161443,2.65421408 L1.54805491,3.34598731 L1.14454627,2.65421408 Z M1.14454627,5.34578592 L1.54810578,4.65401269 L1.9516653,5.34578592 L1.14454627,5.34578592 Z M3.49997456,6.69187393 L3.09626244,5.99979861 L3.90368669,5.99979861 L3.49997456,6.69187393 Z M5.45184335,4.65401269 L5.85540286,5.34578592 L5.0483347,5.34578592 L5.45184335,4.65401269 Z" id="Shape" fill="#41479B" fill-rule="nonzero"></path>
                    </g>
                </g>
            </g>
        </g>
    </g>
</svg>