<svg xmlns="http://www.w3.org/2000/svg" xmlns:xlink="http://www.w3.org/1999/xlink" width="20" height="16" viewBox="0 0 20 16">
  <defs>
    <rect id="flag-portugal-a" width="20" height="16" x="0" y="0" rx="1.6"/>
  </defs>
  <g fill="none" fill-rule="evenodd">
    <mask id="flag-portugal-b" fill="#fff">
      <use xlink:href="#flag-portugal-a"/>
    </mask>
    <use fill="#FFF" xlink:href="#flag-portugal-a"/>
    <rect width="20" height="16" fill="#D80027" fill-rule="nonzero" mask="url(#flag-portugal-b)"/>
    <rect width="7.5" height="16" fill="#6DA544" fill-rule="nonzero" mask="url(#flag-portugal-b)"/>
    <g fill-rule="nonzero" mask="url(#flag-portugal-b)">
      <g transform="translate(3.5 4)">
        <path fill="#FFE15A" d="M7.96503507,3.85377679 C8.03920725,6.15841255 6.15841255,8.03920725 3.85377679,7.96503507 C1.76635957,7.8961609 0.0709953337,6.20079666 0.00212116152,4.11337944 C-0.0720510239,1.80874368 1.80874368,-0.0720510239 4.11337944,0.00212116152 C6.20079666,0.0709953337 7.90145891,1.77165759 7.96503507,3.85377679 Z"/>
        <path fill="#D80027" d="M5.75576355,1.77165759 C5.97239342,1.77165759 6.15553462,1.92654271 6.18983726,2.13584694 L6.19549864,2.2166907 L6.19549864,4.43126023 C6.19549864,5.65510129 5.20477017,6.64582977 3.98092911,6.64582977 C2.81029853,6.64582977 1.85295054,5.73937876 1.7719158,4.58950741 L1.76635957,4.43126023 L1.76635957,2.2166907 C1.76635957,1.99535148 1.92543078,1.8158731 2.13194429,1.7787216 L2.21139268,1.77165759 L5.75576355,1.77165759 Z M5.34251851,5.40079666 C5.19417414,5.37960461 5.06702182,5.50675692 5.08821388,5.65510129 C5.10410792,5.75046553 5.1782801,5.82463772 5.27364434,5.84053176 C5.42198871,5.86172381 5.54914103,5.73457149 5.52794898,5.58622712 C5.51735295,5.49086288 5.43788275,5.4166907 5.34251851,5.40079666 Z M2.70940593,5.40079666 C2.56106156,5.37960461 2.43390924,5.50675692 2.45510129,5.65510129 C2.47099533,5.75046553 2.54516752,5.82463772 2.64053176,5.84053176 C2.78887613,5.86172381 2.91602845,5.73457149 2.89483639,5.58622712 C2.88424037,5.49086288 2.80477017,5.4166907 2.70940593,5.40079666 Z M5.31602845,2.6564258 L2.6564258,2.6564258 L2.6564258,4.42596222 C2.6564258,5.15708805 3.25510129,5.75576355 3.98622712,5.75576355 C4.67434555,5.75576355 5.24513773,5.22544892 5.30990872,4.55351461 L5.31602845,4.42596222 L5.31602845,2.6564258 Z M2.24318076,3.76371057 C2.09483639,3.74251851 1.96768408,3.86967083 1.98887613,4.0180152 C2.00477017,4.11337944 2.07894235,4.18755163 2.17430659,4.20344566 C2.32265096,4.22463772 2.44980328,4.0974854 2.42861123,3.94914103 C2.41271719,3.8590748 2.338545,3.77960461 2.24318076,3.76371057 Z M5.78755163,3.76371057 C5.63920725,3.74251851 5.51205494,3.86967083 5.53324699,4.0180152 C5.54914103,4.11337944 5.62331321,4.18755163 5.71867745,4.20344566 C5.86702182,4.22463772 5.99417414,4.0974854 5.97298209,3.94914103 C5.95708805,3.8590748 5.88291586,3.77960461 5.78755163,3.76371057 Z M2.24318076,1.99417414 C2.09483639,1.97298209 1.96768408,2.10013441 1.98887613,2.24847878 C2.00477017,2.34384302 2.07894235,2.4180152 2.17430659,2.43390924 C2.32265096,2.45510129 2.44980328,2.32794898 2.42861123,2.17960461 C2.41271719,2.08424037 2.338545,2.01006818 2.24318076,1.99417414 Z M5.78755163,1.99417414 C5.63920725,1.97298209 5.51205494,2.10013441 5.53324699,2.24847878 C5.54914103,2.34384302 5.62331321,2.4180152 5.71867745,2.43390924 C5.86702182,2.45510129 5.99417414,2.32794898 5.97298209,2.17960461 C5.95708805,2.08424037 5.88291586,2.01006818 5.78755163,1.99417414 Z M4.01271719,1.99417414 C3.86437282,1.97298209 3.7372205,2.10013441 3.75841255,2.24847878 C3.77430659,2.34384302 3.84847878,2.4180152 3.94384302,2.43390924 C4.09218739,2.45510129 4.2193397,2.32794898 4.19814765,2.17960461 C4.18755163,2.08424037 4.10808143,2.01006818 4.01271719,1.99417414 Z"/>
        <path fill="#F5F5F5" d="M5.31602845,2.6564258 L5.31602845,4.42596222 C5.31602845,5.15708805 4.71735295,5.75576355 3.98622712,5.75576355 C3.25510129,5.75576355 2.6564258,5.15708805 2.6564258,4.42596222 L2.6564258,2.6564258 L5.31602845,2.6564258"/>
        <path fill="#41479B" d="M4.27231984,4.78622712 L4.27231984,5.16768408 C4.27231984,5.32662447 4.14516752,5.45377679 3.98622712,5.45377679 C3.82728672,5.45377679 3.70013441,5.32662447 3.70013441,5.16768408 L3.70013441,4.78622712 L4.27231984,4.78622712 Z M4.27231984,3.87496884 L4.27231984,4.2564258 C4.27231984,4.41536619 4.14516752,4.54251851 3.98622712,4.54251851 C3.82728672,4.54251851 3.70013441,4.41536619 3.70013441,4.2564258 L3.70013441,3.87496884 L4.27231984,3.87496884 Z M5.04053176,3.87496884 L5.04053176,4.2564258 C5.04053176,4.41536619 4.91337944,4.54251851 4.75443904,4.54251851 C4.59549864,4.54251851 4.46834633,4.41536619 4.46834633,4.2564258 L4.46834633,3.87496884 L5.04053176,3.87496884 Z M3.4988099,3.87496884 L3.4988099,4.2564258 C3.4988099,4.41536619 3.37165759,4.54251851 3.21271719,4.54251851 C3.05377679,4.54251851 2.92662447,4.41536619 2.92662447,4.2564258 L2.92662447,3.87496884 L3.4988099,3.87496884 Z M4.27231984,2.96900858 L4.27231984,3.35046553 C4.27231984,3.50940593 4.14516752,3.63655825 3.98622712,3.63655825 C3.82728672,3.63655825 3.70013441,3.50940593 3.70013441,3.35046553 L3.70013441,2.96900858 L4.27231984,2.96900858 Z"/>
      </g>
    </g>
  </g>
</svg>
