<?xml version="1.0" encoding="UTF-8"?>
<svg width="22px" height="18px" viewBox="0 0 22 18" version="1.1" xmlns="http://www.w3.org/2000/svg" xmlns:xlink="http://www.w3.org/1999/xlink">
    <title>flag-saudiarabia</title>
    <defs>
        <rect id="path-1" x="0" y="0" width="20" height="16" rx="1.6"></rect>
    </defs>
    <g id="Symbols" stroke="none" stroke-width="1" fill="none" fill-rule="evenodd">
        <g id="flag-saudiarabia" transform="translate(1.000000, 1.000000)">
            <mask id="mask-2" fill="white">
                <use xlink:href="#path-1"></use>
            </mask>
            <rect stroke="#E5E5E5" stroke-width="0.8" x="-0.4" y="-0.4" width="20.8" height="16.8" rx="1.6"></rect>
            <g id="saudi-arabia" mask="url(#mask-2)">
                <g transform="translate(-2.000000, 0.000000)">
                    <polygon id="Path" fill="#0C7841" fill-rule="nonzero" points="4.97518693e-14 16 0 5.14865928e-15 24 -1.38777878e-17 24 16"></polygon>
                    <g id="Group" stroke-width="1" fill="none" fill-rule="evenodd" transform="translate(4.800000, 3.111111)">
                        <g id="Group-2" fill="#F5F5F5" fill-rule="nonzero">
                            <path d="M0.219308196,2.07037062 C0.259779861,2.33653751 0.416595935,2.42005769 0.55294358,2.40912847 C0.713713781,2.39633796 0.854713342,2.24552437 0.854713342,2.08621559 L0.854713342,1.17283888 C0.854713342,1.12711755 0.890998283,1.08979596 0.935656673,1.08979596 C0.980315062,1.08979596 1.0166,1.12706982 1.0166,1.17283888 L1.0166,2.09012911 C1.0166,2.20042347 1.06972488,2.30327261 1.15880906,2.36502982 C1.21318995,2.40282867 1.27650253,2.42225307 1.34028029,2.42225307 C1.38089151,2.42225307 1.42168881,2.41428286 1.46057882,2.39839017 L1.54147564,2.36522072 C1.5489187,3.13193599 1.50346949,3.80577681 1.50263214,3.8181378 C1.49630554,3.90962819 1.56338616,3.98909168 1.65256338,3.99558239 C1.65651751,3.99591647 1.6603786,3.99605965 1.66428621,3.99605965 C1.74848588,3.99605965 1.81952063,3.9292435 1.82561464,3.84180981 C1.82938269,3.78783191 1.87925122,3.04984758 1.86431857,2.23273385 L1.91325673,2.21268901 C1.95614739,2.19517363 2.00434123,2.19727357 2.04560372,2.21836838 C2.22391165,2.30952469 2.43845799,2.27396896 2.57936452,2.12945518 L2.60853203,2.09957882 C2.73934389,1.96513519 2.78432791,1.76984114 2.7257603,1.58967618 L2.58792404,1.16544138 C2.66244773,1.18844523 2.74432144,1.15460762 2.78032727,1.08096668 C2.82033374,0.998926003 2.78790989,0.899179043 2.70794346,0.858134839 L2.38421666,0.692048993 C2.32564904,0.661886276 2.2553586,0.671145084 2.20572266,0.715052837 C2.15622628,0.759199219 2.13752558,0.829403897 2.1582266,0.893117864 L2.41868735,1.69481616 C2.43817888,1.75480751 2.42319971,1.82000098 2.37961126,1.86476779 L2.35049027,1.89464416 C2.3082974,1.93793147 2.24400792,1.94847888 2.1902783,1.92122744 C2.0853776,1.86744044 1.96591641,1.85737029 1.85385176,1.88667394 C1.8311039,1.35362428 1.77514135,0.822817734 1.65595928,0.455853919 C1.62772215,0.368897479 1.53621897,0.321744371 1.45113544,0.350904845 C1.36633101,0.379778965 1.32050965,0.473798827 1.34879329,0.560946171 C1.46541682,0.919796596 1.51621573,1.46668675 1.53426517,2.01047472 L1.34046636,2.08998593 L1.34046636,1.17269571 C1.34046636,0.943707231 1.1589021,0.757481089 0.935749711,0.757481089 C0.712597322,0.757481089 0.531033058,0.943659505 0.531033058,1.17269571 L0.531033058,1.97663711 L0.365890055,1.13976489 C0.348305815,1.049754 0.262989683,0.991051243 0.175161518,1.00985522 C0.0874729093,1.02818193 0.0308125778,1.11575881 0.0486294144,1.20562652 L0.219308196,2.07037062 Z" id="Path"></path>
                            <path d="M0.530986538,0.674629069 C0.620396355,0.674629069 0.6928732,0.600367696 0.6928732,0.508543222 L0.6928732,0.342457376 C0.6928732,0.250680627 0.620396355,0.176371529 0.530986538,0.176371529 C0.441576721,0.176371529 0.369099877,0.250632902 0.369099877,0.342457376 L0.369099877,0.508543222 C0.369099877,0.60031997 0.441576721,0.674629069 0.530986538,0.674629069 Z" id="Path"></path>
                            <path d="M2.14971359,0.508543222 L2.31160026,0.508543222 C2.40101007,0.508543222 2.47348692,0.434281849 2.47348692,0.342457376 C2.47348692,0.250680627 2.40101007,0.176371529 2.31160026,0.176371529 L2.14971359,0.176371529 C2.06030378,0.176371529 1.98782693,0.250632902 1.98782693,0.342457376 C1.98782693,0.434281849 2.06030378,0.508543222 2.14971359,0.508543222 Z" id="Path"></path>
                            <path d="M1.09517086,2.69118806 L0.285784069,3.1894456 C0.209073982,3.23664643 0.184279272,3.33863651 0.230286717,3.41733638 C0.260617206,3.46921434 0.314207273,3.49794529 0.369239435,3.49794529 C0.397616119,3.49794529 0.426318438,3.49030916 0.452415685,3.47422556 L1.26180247,2.97596802 C1.33851256,2.92876718 1.36330727,2.82677711 1.31729982,2.74807723 C1.27129238,2.66942509 1.17192746,2.64398722 1.09517086,2.69118806 Z" id="Path"></path>
                            <path d="M3.27757052,2.98494047 L3.28138509,2.98231555 C3.29496868,3.03844111 3.31827478,3.09275309 3.35609486,3.13837897 C3.42187294,3.21784246 3.52049355,3.25778897 3.63195345,3.24833926 C3.79007206,3.23650326 3.89753131,3.16238506 3.96870561,3.0666948 C3.97954458,3.07433093 3.99094177,3.0812989 4.00285068,3.08745553 C4.09035321,3.1326996 4.19153237,3.12931107 4.28787354,3.07800581 C4.53251778,2.9487643 4.58522398,2.64971432 4.57778092,2.49336454 C4.57340812,2.40220823 4.49786101,2.33787383 4.40924202,2.33606025 C4.32034391,2.33997376 4.25112341,2.41733731 4.25433323,2.50849363 C4.25442627,2.51059356 4.25800824,2.70765347 4.14059389,2.78081715 C4.121428,2.75342253 4.09872665,2.69176077 4.09016713,2.64083732 C4.0764905,2.55536038 3.99996649,2.49584629 3.91762758,2.50267108 C3.83370703,2.50944814 3.76885932,2.58180048 3.76858021,2.66823194 C3.76848717,2.6923812 3.76327702,2.90547698 3.60292549,2.92332644 C3.58427131,2.89722042 3.58394568,2.78726013 3.60232075,2.70598306 C3.61781162,2.63931009 3.5917609,2.56972585 3.53677526,2.53082931 C3.48169658,2.49174187 3.40908017,2.49174187 3.3537689,2.53020887 L3.2634287,2.59325468 C3.22053804,1.63014767 3.12168483,0.507875061 3.12047533,0.49350959 C3.11242752,0.402353277 3.0341823,0.334391712 2.94463292,0.343173263 C2.85559526,0.351429829 2.78995673,0.432229639 2.79805107,0.523720032 C2.79944664,0.539087746 2.91374421,1.83756408 2.94900573,2.8291634 C2.94072532,2.83722906 2.93221231,2.84605834 2.92411798,2.85378992 C2.86010762,2.68822906 2.73320336,2.58394815 2.56978157,2.56805545 C2.3391396,2.54715154 2.08923869,2.70817845 1.9996428,2.93816917 C1.922421,3.13604041 1.97103352,3.33052312 2.12338375,3.43346771 C2.23293636,3.5075859 2.39826544,3.53092383 2.60615955,3.4561852 C2.55540715,3.63911826 2.46297359,3.82467624 2.34286113,3.96818777 C2.23526232,4.09680885 2.05560534,4.24518842 1.82570768,4.23855453 C1.69187207,4.23316151 1.58906473,4.18825152 1.51133122,4.10100872 C1.32390554,3.8909674 1.34004769,3.51083126 1.34018725,3.50677456 C1.34483916,3.41528417 1.27654904,3.33730018 1.18746486,3.33224125 C1.09772941,3.32250518 1.02181015,3.39729154 1.01687912,3.48892511 C1.01576266,3.50997219 0.992270485,4.00956606 1.27105978,4.32369739 C1.40829129,4.47856767 1.59059986,4.56146742 1.81296143,4.57039214 C1.82380039,4.5708694 1.83463935,4.57101258 1.84552484,4.57101258 C2.11631284,4.57101258 2.37905303,4.43475537 2.58834271,4.18452891 C2.78521178,3.94933607 2.91890783,3.62985945 2.95900734,3.33329121 C2.95849563,3.90141935 2.62476721,4.54218619 2.18232352,4.8244844 C1.99443265,4.94418075 1.70150153,5.05218428 1.37154116,4.88528709 C0.964777664,4.67930246 1.01325062,4.20233064 1.01539051,4.1828585 C1.02650858,4.09184537 0.963568166,4.00885017 0.874856136,3.99749142 C0.786562779,3.98646676 0.705154257,4.05051481 0.694175736,4.14167112 C0.690547242,4.17135658 0.612767214,4.87149433 1.22830868,5.18304847 C1.38642729,5.26313239 1.55175637,5.302888 1.71838798,5.302888 C1.93242262,5.302888 2.14845758,5.23721727 2.3532349,5.10649626 C2.89192672,4.76296582 3.28292022,4.01662948 3.28292022,3.33190717 C3.2828737,3.22485816 3.28087338,3.1079299 3.27757052,2.98494047 Z M2.30145908,3.15613298 C2.27252416,3.13646994 2.29513247,3.07375822 2.30001699,3.06125405 C2.33411553,2.97367718 2.44073743,2.8979363 2.52591401,2.8979363 C2.53028681,2.8979363 2.53470613,2.89807948 2.53893937,2.89855674 C2.55964039,2.9005135 2.61457952,2.90585879 2.63821125,3.03123451 C2.64072328,3.04455002 2.64286316,3.05815187 2.64453785,3.07208781 C2.46413657,3.18080723 2.34318676,3.18424349 2.30145908,3.15613298 Z" id="Shape"></path>
                            <path d="M0.612720695,4.68359778 C0.536010607,4.63735147 0.436924806,4.66379157 0.391429072,4.74249144 C0.383986007,4.75528196 0.374123946,4.76926563 0.364075808,4.78186524 C0.36230808,4.77766537 0.360586872,4.77313142 0.358819144,4.76821566 C0.291319849,4.58346902 0.339374137,4.29887997 0.363657136,4.20476465 C0.386498041,4.11623326 0.335094374,4.02541103 0.24884786,4.0016913 C0.162694384,3.97897381 0.0740753925,4.03056542 0.050908853,4.11914453 C0.0391395067,4.16405453 -0.0603649671,4.56724224 0.0556538069,4.88480983 C0.129944898,5.08788319 0.244009868,5.13914072 0.326674407,5.14606096 C0.334024434,5.1466814 0.341281422,5.14701548 0.348491891,5.14701548 C0.522752648,5.14701548 0.638724903,4.96685051 0.670962677,4.90977044 C0.715667586,4.83068876 0.689477301,4.72998728 0.612720695,4.68359778 Z" id="Path"></path>
                            <path d="M3.59994827,1.6710487 C3.63497719,1.6710487 3.67023871,1.65949905 3.6998249,1.63554069 L4.51595696,0.978212998 C4.5272146,0.969145092 4.53442507,0.957261364 4.54265896,0.946093522 C4.66021286,0.873359375 4.7397141,0.742399731 4.7397141,0.591633872 C4.7397141,0.362645397 4.55814983,0.176419255 4.33499745,0.176419255 C4.11184506,0.176419255 3.93028079,0.362597671 3.93028079,0.591633872 C3.93028079,0.719777693 3.9883367,0.833031059 4.0774674,0.909249191 L3.49983905,1.37448046 C3.4295486,1.43108329 3.41731406,1.53550737 3.47248578,1.60752563 C3.50444444,1.64928573 3.55198702,1.6710487 3.59994827,1.6710487 Z M4.33504396,0.508543222 C4.37970235,0.508543222 4.4159873,0.545817086 4.4159873,0.591586146 C4.4159873,0.637355205 4.37970235,0.674629069 4.33504396,0.674629069 C4.29038558,0.674629069 4.25410063,0.637355205 4.25410063,0.591586146 C4.25410063,0.545817086 4.29038558,0.508543222 4.33504396,0.508543222 Z" id="Shape"></path>
                            <path d="M4.14343156,1.51360122 C4.05816195,1.48444075 3.96684485,1.53159386 3.93860772,1.6185503 C3.9213026,1.67171686 3.84301086,1.94571078 4.0016877,2.10831264 C4.06327906,2.17154935 4.14417587,2.20319157 4.24354079,2.20300152 C4.30992362,2.20300152 4.38454035,2.18906473 4.46715837,2.16066787 C4.55196279,2.13179375 4.59778416,2.03777388 4.56950051,1.95062654 C4.54121686,1.8636701 4.44971368,1.81632609 4.36467667,1.84567747 C4.27424343,1.87650834 4.23600468,1.87149713 4.23251575,1.87469476 C4.22297932,1.85006824 4.22925941,1.77590232 4.24586674,1.72287894 C4.27387128,1.63620885 4.22804991,1.54247534 4.14343156,1.51360122 Z" id="Path"></path>
                            <path d="M5.99610345,0.827017606 C6.01131522,0.831551559 6.02652698,0.833651495 6.04155267,0.833651495 C6.11165703,0.833651495 6.17622562,0.786641564 6.19688013,0.714098321 L6.29131401,0.381974353 C6.31634132,0.293920219 6.26703101,0.201618486 6.18129621,0.175989722 C6.09523577,0.150504135 6.00559336,0.200807148 5.98051954,0.288861282 L5.88608565,0.62098525 C5.86101182,0.709182561 5.91032213,0.801436568 5.99610345,0.827017606 Z" id="Path"></path>
                            <path d="M5.05255542,0.807593198 C5.07823399,0.823008637 5.1064246,0.830310688 5.1341035,0.830310688 C5.18974041,0.830310688 5.24388871,0.800959309 5.2739866,0.748126829 C5.31911018,0.668997423 5.29315249,0.567102801 5.21597721,0.520904209 C5.1834138,0.501432075 5.18783312,0.446451933 5.18904262,0.435570447 C5.19388061,0.391949049 5.21923355,0.338734762 5.26333371,0.324655645 C5.34869636,0.297451929 5.3963785,0.204338858 5.36981606,0.116761982 C5.34311407,0.0290419285 5.25254127,-0.0194952285 5.16703906,0.00742213288 C5.00566411,0.0589660164 4.88801717,0.212261344 4.86731614,0.397819324 C4.84815025,0.570491334 4.91913848,0.727509276 5.05255542,0.807593198 Z" id="Path"></path>
                            <path d="M3.76844065,3.49789756 C3.67903083,3.49789756 3.60655399,3.57215893 3.60655399,3.66398341 C3.60655399,3.74506957 3.6631678,3.81255388 3.73806364,3.82711025 C3.74657665,3.83990077 3.76839413,3.88390398 3.76839413,3.99610738 C3.76839413,4.08788412 3.84087098,4.16219322 3.93028079,4.16219322 C4.01969061,4.16219322 4.09216745,4.08793185 4.09216745,3.99610738 C4.09221397,3.50357693 3.78165209,3.49789756 3.76844065,3.49789756 Z" id="Path"></path>
                            <path d="M6.51474552,2.81021625 C6.53507439,2.81365251 6.55531022,2.81522746 6.57563909,2.81522746 C6.70282246,2.81522746 6.83130837,2.74941356 6.95858478,2.61883572 C7.02180431,2.55397633 7.02180431,2.44888408 6.95858478,2.38402469 C6.89536525,2.31916531 6.79293007,2.31916531 6.72971054,2.38402469 C6.63290417,2.48343757 6.58080272,2.48553751 6.56745172,2.48243533 C6.536563,2.47790138 6.50855847,2.43652309 6.5023249,2.42521207 C6.46171368,2.34441226 6.36541903,2.31219734 6.28615039,2.35285973 C6.20618396,2.39390394 6.17371359,2.4936509 6.21376658,2.57569158 C6.2237682,2.59630913 6.31722518,2.77728543 6.51474552,2.81021625 Z" id="Path"></path>
                            <path d="M9.26630705,1.64312909 C9.26528363,1.6405519 9.26430673,1.63811788 9.2635159,1.63582704 C9.23481358,1.54958649 9.14312433,1.50267201 9.05920377,1.53202339 C8.97430631,1.56089751 8.92848494,1.65491737 8.95676859,1.74206472 C8.96937528,1.78096126 9.04152649,1.9762553 9.22016005,2.00088183 C9.23211547,2.0025045 9.24397786,2.00331584 9.2557472,2.00331584 C9.36790489,2.00331584 9.4730847,1.92886357 9.56882112,1.78158169 C9.61836402,1.70536356 9.59826774,1.60222807 9.52388361,1.55130462 C9.44940645,1.50052435 9.34887855,1.520951 9.29942869,1.59740776 C9.28663592,1.61702307 9.27556436,1.63196125 9.26630705,1.64312909 Z" id="Path"></path>
                            <path d="M8.9485347,4.66040304 C8.9485347,3.95219962 8.91820421,3.28780851 8.87605785,2.70564898 C9.105909,3.11461152 9.31268665,3.52786937 9.4444289,3.8883902 C9.46885145,3.95506317 9.53048933,3.99610738 9.59598831,3.99610738 C9.61487508,3.99610738 9.63408749,3.99267112 9.65278819,3.98555997 C9.73652267,3.95329732 9.77894814,3.85760705 9.74754771,3.77165285 C9.54263083,3.2112563 9.1743852,2.54385846 8.81139623,1.95139015 C8.72291679,1.05676969 8.62383099,0.488927911 8.62210978,0.478810038 C8.60615371,0.38851279 8.52204708,0.327519194 8.4339398,0.345130021 C8.34597208,0.361499977 8.28763706,0.447931433 8.30359313,0.53813323 C8.30489566,0.545339828 8.35588066,0.837851367 8.41686727,1.33014318 C8.29247505,1.14081486 8.17692146,0.970004157 8.07997554,0.829403897 L8.0878838,0.831981091 C8.17315341,0.861141566 8.26437748,0.813988458 8.29270764,0.727032017 C8.32099129,0.639932399 8.27516992,0.545864812 8.1903655,0.516990692 L7.70470552,0.350904845 C7.63734578,0.32756692 7.56342684,0.352241168 7.52221087,0.411278005 C7.51118583,0.427027525 7.50364973,0.444304271 7.49853262,0.462153727 C7.40163322,0.388655967 7.27733403,0.328903243 7.16066399,0.379015352 C7.09009443,0.409034892 7.0059878,0.484584862 7.0059878,0.674485892 C7.0059878,0.820288266 7.06018262,0.977926643 7.11768029,1.14496701 C7.21299804,1.42196765 7.27268212,1.62566145 7.17173555,1.72283121 C7.11595908,1.77647503 7.06018262,1.7967585 7.00584824,1.78267939 C6.90601814,1.75671654 6.80721145,1.62031615 6.74138684,1.41776778 C6.73850266,1.40898623 6.7325482,1.40259097 6.72845452,1.39471621 C6.76250654,1.13747405 6.74766693,0.82754259 6.67905118,0.475851037 C6.66160649,0.385840144 6.57652296,0.327280565 6.48855523,0.34560728 C6.40086662,0.363599913 6.34406674,0.451033612 6.36160446,0.541044504 C6.46729598,1.08335297 6.43556991,1.52577131 6.27680004,1.72450161 C6.21539475,1.80138791 6.13845207,1.83703909 6.03471435,1.83703909 C6.00191835,1.83703909 5.97954263,1.82634851 5.95725996,1.80005158 C5.82956488,1.6490471 5.83007659,1.16186195 5.87129256,0.863909663 C5.87785176,0.816422475 5.86394253,0.768076221 5.83319337,0.731709147 C5.80244421,0.6953898 5.75787886,0.674485892 5.71098755,0.674485892 C5.43247736,0.674485892 5.32687888,0.999498713 5.23365449,1.28623543 C5.19281067,1.41227931 5.1166123,1.64661308 5.06348742,1.67095325 C4.96551808,1.67095325 4.90215899,1.37576906 4.90160076,1.17255253 C4.90132165,1.08091896 4.82898436,1.00680076 4.7397141,1.00680076 C4.7397141,1.00680076 4.73957454,1.00680076 4.73943498,1.00680076 C4.65011821,1.00680076 4.57778092,1.08106214 4.57778092,1.17269571 C4.57778092,1.55574312 4.70496429,2.00307721 5.0634409,2.00307721 C5.33036782,2.00307721 5.43847833,1.70464767 5.52900461,1.42731295 C5.54472809,1.64785395 5.59329408,1.87636517 5.71261572,2.01749041 C5.79648976,2.11676011 5.9078101,2.16911534 6.03471435,2.16911534 C6.23456064,2.16911534 6.40477423,2.08817235 6.52711961,1.93506792 C6.54930925,1.90738695 6.5683821,1.87555383 6.58722236,1.84343435 C6.68119106,1.9805029 6.79651204,2.07094333 6.92644004,2.10459003 C6.96453923,2.11446927 7.00287102,2.11948048 7.04078413,2.11948048 C7.16573458,2.11948048 7.28784736,2.06660028 7.39330629,1.96489656 C7.41521681,1.9437063 7.43066117,1.92065473 7.44736155,1.89788951 C7.48694935,1.90948689 7.52709538,1.9163594 7.5669623,1.9163594 C7.6980998,1.9163594 7.82435278,1.8621906 7.90269104,1.81059899 C7.9776334,1.76129822 7.99931133,1.65945132 7.95172223,1.58223095 C7.9040401,1.50520148 7.80430303,1.48214991 7.72884896,1.53049616 C7.72745338,1.53116433 7.61934287,1.59492602 7.54561,1.57994011 C7.54579608,1.39786612 7.48159965,1.20452883 7.42298551,1.03419538 C7.38963128,0.937168794 7.35539318,0.837803641 7.33925103,0.756574299 C7.35260203,0.768123947 7.36562739,0.780103127 7.3773037,0.791748227 C7.44038367,0.856607613 7.54291189,0.856607613 7.60613143,0.791748227 C7.61659824,0.781009918 7.62264573,0.767980769 7.6296236,0.755428879 C7.79741819,0.992578469 8.14254381,1.49093146 8.49753149,2.06540713 C8.56530989,2.77151061 8.62476138,3.67223997 8.62476138,4.66016441 C8.62476138,4.75194116 8.69723822,4.82625062 8.78664804,4.82625062 C8.87605785,4.82644116 8.9485347,4.75222751 8.9485347,4.66040304 Z" id="Path"></path>
                            <path d="M9.11037484,1.00675304 C9.11037484,1.09852978 9.18285168,1.17283888 9.2722615,1.17283888 C9.36167132,1.17283888 9.43414816,1.09857751 9.43414816,1.00675304 C9.43414816,0.811315812 9.28510079,0.4955618 9.25518897,0.434234124 C9.2151825,0.35233662 9.1180505,0.319262628 9.03799103,0.359972751 C8.95802461,0.401016954 8.92555424,0.500763914 8.96560723,0.582804595 C9.02398877,0.702644124 9.11037484,0.920130677 9.11037484,1.00675304 Z" id="Path"></path>
                            <path d="M8.37383705,4.67853885 C8.29447537,4.63701739 8.19697122,4.6699482 8.15654607,4.75170253 C8.13914791,4.78654237 8.11221332,4.82534346 8.08946545,4.85030407 C8.0823015,4.78429926 8.09942055,4.65243283 8.132077,4.5431407 C8.15380144,4.47016793 8.1243083,4.39132488 8.06062358,4.35209425 C7.99717145,4.31272045 7.91534425,4.32293378 7.86282413,4.37691168 L7.53909732,4.70903565 C7.47587779,4.77389503 7.47587779,4.87898728 7.53909732,4.94384667 C7.60231686,5.00870606 7.70475204,5.00870606 7.76797157,4.94384667 L7.77620546,4.9353992 C7.79020772,5.00207217 7.81700276,5.06287486 7.86287065,5.10993252 C7.92357814,5.17221471 7.99693885,5.20514552 8.07318375,5.20514552 C8.08797684,5.20514552 8.10281645,5.2038092 8.11770258,5.20142291 C8.30108109,5.17092611 8.4152391,4.96350971 8.4458487,4.90070253 C8.48562258,4.81880503 8.45338481,4.71977395 8.37383705,4.67853885 Z" id="Path"></path>
                            <path d="M8.31108271,3.34216822 L7.17020042,3.34216822 C7.18029508,3.30083766 7.19071537,3.26136841 7.20136825,3.22395137 C7.6563256,3.12692478 7.92674145,2.97625437 8.00624268,2.77523322 C8.0337355,2.7055058 8.06243782,2.56457146 7.94534911,2.40254231 C7.83979714,2.25654903 7.69084281,2.19106921 7.5361201,2.22347504 C7.30608287,2.27129631 7.10111947,2.52557947 6.95407242,2.9326807 C6.49711476,3.01295552 6.20460231,3.18123676 6.01940955,3.34727488 C5.9537245,2.66670471 5.69624098,2.26241931 5.6836808,2.2431858 C5.63404486,2.16677677 5.53347045,2.14615922 5.45922588,2.19708266 C5.38484175,2.24800611 5.36479199,2.35099843 5.41428837,2.42735974 C5.41721908,2.43189369 5.71084799,2.89263874 5.71084799,3.66384023 C5.71084799,4.4218694 5.12168289,4.99243155 4.73962106,4.99243155 C4.55787072,4.99243155 4.47827644,4.77079285 4.44334056,4.58332584 C4.81744761,4.31434313 5.14754754,4.00307535 5.22044305,3.70402537 C5.31911018,3.29935816 5.19495056,3.00111952 5.11279773,2.80377326 C5.10893664,2.79470536 5.10488947,2.78496929 5.10079578,2.77489914 C5.10428472,2.7781445 5.10758758,2.78153303 5.11089044,2.78477839 C5.17397042,2.84963777 5.27649864,2.84963777 5.33971817,2.78477839 C5.4029377,2.719919 5.4029377,2.61482675 5.33971817,2.54996736 C5.24509821,2.4527976 5.06134754,2.30017043 4.89429725,2.37190234 C4.82372769,2.40192188 4.73962106,2.47747185 4.73962106,2.66737288 C4.73962106,2.7531839 4.77455695,2.83699043 4.81502861,2.93430338 C4.88792413,3.10931395 4.97858996,3.32713458 4.9062992,3.62355964 C4.86354809,3.79899975 4.65356062,4.01180917 4.37644601,4.22313909 C4.34672027,4.18667657 4.30382961,4.16219322 4.25396108,4.16219322 L4.25368196,4.16219322 C4.16436518,4.1623364 4.0920279,4.2364546 4.0920279,4.32808817 C4.0920279,4.35796453 4.09333043,4.3898931 4.0951912,4.42268074 C3.74876305,4.65286236 3.35674612,4.86591041 3.05372034,5.00727428 C2.97240486,5.04526403 2.93644555,5.14367467 2.97342828,5.22719485 C3.00054895,5.28833163 3.05934916,5.3245078 3.12084749,5.3245078 C3.14326972,5.3245078 3.1660641,5.31983067 3.18774203,5.30961734 C3.2787335,5.26718909 3.7107569,5.06067947 4.15454964,4.77852444 C4.2362838,5.06320894 4.40947461,5.32460325 4.73957454,5.32460325 C5.12791645,5.32460325 5.56845286,4.99882681 5.82268004,4.512453 C5.85338268,4.56805358 5.8886442,4.62131559 5.93074404,4.67099817 C6.33820532,5.15302893 7.13405504,5.1585174 7.1677349,5.1585174 C7.2549118,5.1585174 7.32636522,5.08778774 7.32952853,4.99844501 C7.33259879,4.90905455 7.26621596,4.8331705 7.17931817,4.82687069 C7.17801564,4.82672751 7.04901802,4.81212341 6.97728548,4.72616921 C6.93397615,4.67429125 6.91667102,4.60289343 6.92430016,4.50806223 C6.94086098,4.30341392 7.58436046,4.15040495 8.15147549,4.14138477 C8.21906782,4.14023935 8.27889145,4.09628387 8.30154628,4.03094722 L8.46343294,3.56390237 C8.48101718,3.5131221 8.47348108,3.45651928 8.44310407,3.41261152 C8.41309922,3.36841742 8.36364936,3.34216822 8.31108271,3.34216822 Z M7.60054913,2.5491083 C7.60361939,2.54848786 7.60771308,2.54748562 7.6128767,2.54748562 C7.62836758,2.54748562 7.65279014,2.55526493 7.68535355,2.60036583 C7.69149408,2.6088133 7.7112182,2.63763969 7.70624065,2.65033476 C7.68767951,2.69734469 7.57589398,2.77504232 7.3430656,2.8454379 C7.44545426,2.64040779 7.54561,2.56046704 7.60054913,2.5491083 Z M6.62294907,4.73223039 C6.45850386,4.67739343 6.29089534,4.59048471 6.17487657,4.45279573 C6.04736756,4.30150489 6.00029018,4.11012436 6.0311789,3.86796355 C6.03583081,3.85522076 6.04643718,3.83016471 6.0649518,3.79756797 C6.29289566,3.77613908 6.90187793,3.86829764 6.9440708,4.04722173 C6.75622645,4.14558464 6.61787849,4.28389406 6.6018759,4.48052443 C6.59382808,4.57917369 6.60364362,4.66269388 6.62294907,4.73223039 Z" id="Shape"></path>
                            <path d="M10.0733679,0.954206911 L9.91148122,0.455949371 C9.88538397,0.375865448 9.80439412,0.327996453 9.72405554,0.346132264 C9.64334481,0.363838542 9.58859176,0.440820287 9.59682565,0.52500863 C9.70851814,1.67100097 9.91980815,3.90585785 9.91980815,4.1621455 C9.91980815,4.39227939 9.52081335,4.84538831 8.87615089,5.17612823 C8.79618446,5.21717243 8.76371409,5.31687166 8.80376709,5.39896007 C8.83214377,5.45718557 8.88926929,5.49073682 8.94872077,5.49073682 C8.97300377,5.49073682 8.99775196,5.48505745 9.02096502,5.47322144 C9.60985101,5.17111702 10.2435815,4.63200618 10.2435815,4.1621455 C10.2435815,3.91678707 10.0781594,2.15126588 9.98339983,1.15952338 C10.0601099,1.1259244 10.1002094,1.03696348 10.0733679,0.954206911 Z" id="Path"></path>
                            <path d="M11.4240516,2.4527976 C11.4552194,2.4847739 11.4966214,2.50147793 11.5385817,2.50147793 C11.565935,2.50147793 11.5935208,2.49436679 11.6185482,2.47971496 C11.6818607,2.44272745 11.7133077,2.3668434 11.6953978,2.29434788 C11.6664164,2.17761053 11.6567404,2.03161725 11.6720917,1.97195998 C11.7531746,1.97453718 11.8284426,1.91535716 11.8403515,1.82954614 C11.8529582,1.73872391 11.7915064,1.65453557 11.7030269,1.64160187 C11.5959864,1.62671141 11.5020177,1.65897407 11.4363791,1.73385587 C11.3938606,1.78253621 11.3685542,1.84496158 11.3548311,1.91211181 L11.1673589,1.71977676 C11.1041393,1.65491737 11.0017041,1.65491737 10.9384846,1.71977676 C10.8752651,1.78463615 10.8752651,1.8897284 10.9384846,1.95458778 L11.4240516,2.4527976 Z" id="Path"></path>
                            <path d="M11.7882035,2.62599459 L11.181175,3.07232644 C11.1085586,3.12568391 11.0917652,3.22948756 11.1438667,3.30408301 C11.1754997,3.34932709 11.2251822,3.37333318 11.2756555,3.37333318 C11.3083119,3.37333318 11.3412475,3.36326303 11.3698102,3.34221594 L11.9768387,2.89588409 C12.0494551,2.84252663 12.0662485,2.73872297 12.014147,2.66412752 C11.9619526,2.58948434 11.8606338,2.57211214 11.7882035,2.62599459 Z" id="Path"></path>
                            <path d="M11.7344274,3.25053465 C11.6834889,3.31782805 11.6907924,3.4125638 11.7486157,3.4707893 C11.7555471,3.4828162 11.7871336,3.54633927 11.7814117,3.70984792 C11.7782484,3.80162467 11.8481202,3.87851096 11.937437,3.88175632 C11.9393908,3.88189949 11.9413911,3.88189949 11.9432984,3.88189949 C12.0301031,3.88189949 12.1018822,3.81131301 12.104999,3.7218271 C12.1167683,3.38287834 12.0086578,3.25898212 11.9616269,3.22146962 C11.8911969,3.16491453 11.78932,3.17823003 11.7344274,3.25053465 Z" id="Path"></path>
                            <path d="M13.1471211,4.47355646 C13.2365309,4.47355646 13.3090077,4.39929509 13.3090077,4.30747061 C13.3090077,4.06244626 13.2967267,3.78888187 13.2766769,3.50429282 C13.4372145,3.7741346 13.5705384,4.02292929 13.6560406,4.22752987 C13.6822774,4.2906234 13.742008,4.32823134 13.8048554,4.32823134 C13.8261147,4.32823134 13.8477461,4.32403147 13.8685401,4.31477266 C13.950693,4.27859649 13.9887456,4.18094947 13.9534841,4.09680885 C13.8052741,3.74196739 13.528299,3.27196354 13.2128526,2.78673515 C13.149354,2.177181 13.0664103,1.57989239 13.0019348,1.15145772 C13.0362194,1.15503715 13.0718066,1.14644651 13.1030209,1.12563805 C13.1541455,1.09203907 13.1781028,1.0336704 13.1746604,0.975588078 C13.1788006,0.991910307 13.1832665,1.00828026 13.1925703,1.0233139 C13.1936868,1.02493657 13.2977036,1.20118802 13.2515566,1.42993787 C13.2334141,1.51961468 13.2897488,1.60752563 13.3772979,1.6261387 C13.3883694,1.62838182 13.399441,1.62957496 13.4102334,1.62957496 C13.4853619,1.62957496 13.5527216,1.57554934 13.5686312,1.49708809 C13.6417127,1.13427642 13.4728947,0.856655339 13.4657308,0.844962514 C13.4176765,0.76774214 13.3175673,0.745072377 13.2421597,0.794039066 C13.1908491,0.827590316 13.1665661,0.886006717 13.169869,0.944232215 C13.1656822,0.927814534 13.1610768,0.911301401 13.1516334,0.896267768 L12.8784264,0.460340146 C12.8366988,0.393810356 12.7550111,0.366892994 12.6833716,0.395480759 C12.6114995,0.424354879 12.5694462,0.501050269 12.5827972,0.578891078 C12.5850766,0.591967952 12.7087711,1.32074119 12.8184167,2.19913487 C12.6943036,2.01935172 12.570237,1.84357753 12.449892,1.67577355 C12.4303539,1.42449712 12.4107229,1.19221557 12.3937434,1.00011915 C12.402675,0.997398777 12.4114672,0.99381934 12.4200732,0.989428565 C12.5000396,0.948384361 12.53251,0.848637402 12.492457,0.76659672 L12.3305703,0.434472753 C12.2956345,0.362788574 12.2159006,0.327089662 12.1408187,0.34913899 C12.0658298,0.371522399 12.0169382,0.445449691 12.0247069,0.525247259 C12.0440123,0.723452581 12.0641086,0.942848167 12.0838327,1.17331614 C11.9814441,1.03486354 11.8867311,0.908103771 11.8056482,0.800768406 C11.8214647,0.786832467 11.8349553,0.769507995 11.8449104,0.749033619 C11.8849168,0.666992938 11.852493,0.567245979 11.7725266,0.526201775 L11.4487998,0.360115928 C11.3808818,0.325419259 11.2984498,0.343602795 11.2504886,0.40426231 C11.2027599,0.464921825 11.2024808,0.551496459 11.2500234,0.612490054 C11.258769,0.623657895 11.6573451,1.13623318 12.13412,1.79780847 C12.216831,2.89507275 12.2719097,4.03653114 12.1941297,4.2758284 C12.1798948,4.31959297 12.1550536,4.37118458 12.1317475,4.37299816 C12.0339177,4.3869341 11.8003915,4.1625273 11.6831167,3.92198918 C11.6155244,3.78348886 11.5182994,3.76907566 11.466291,3.77146195 C11.2923093,3.78248661 11.2244379,3.97887836 11.1010691,4.33539022 C11.0126361,4.59081879 10.9027579,4.90838639 10.7793891,5.03829606 C10.7125411,4.95448953 10.6261085,4.67333673 10.5781007,4.38445236 C10.600616,4.4483095 10.6589045,4.49450809 10.7289623,4.49450809 C10.8183722,4.49450809 10.890849,4.42024672 10.890849,4.32842225 C10.890849,4.08072525 10.722031,2.1945532 10.6277367,1.1608597 C10.7064936,1.12840615 10.7478956,1.0381089 10.7206819,0.954397814 L10.5587953,0.456140274 C10.5327911,0.376056351 10.4529177,0.328807792 10.3716952,0.346179989 C10.2911706,0.363695365 10.2362314,0.440390754 10.2440467,0.52443592 C10.3540645,1.70918163 10.5603304,3.99753915 10.56675,4.31338861 C10.5663314,4.31052507 10.5657731,4.30775697 10.565401,4.30489342 C10.5528408,4.21407119 10.4702228,4.15178899 10.3822551,4.16395908 C10.2937291,4.17708368 10.2323238,4.26112884 10.2449305,4.35190335 C10.292194,4.69137709 10.4130042,5.27501612 10.6911888,5.37008595 C10.7131458,5.37772208 10.742732,5.38449915 10.7774353,5.38449915 C10.8412596,5.38449915 10.9222959,5.3613044 11.0052396,5.27616154 C11.1815472,5.09532842 11.3008688,4.75050938 11.4061417,4.44644819 C11.429913,4.37767529 11.4581036,4.29625505 11.4846195,4.22652763 C11.6331086,4.44902539 11.8922203,4.72602604 12.1547279,4.70435852 C12.2470219,4.69758145 12.4149096,4.646658 12.5012491,4.38096837 C12.5873096,4.11604236 12.5533041,3.19211825 12.4952947,2.30756793 C12.6316888,2.50367332 12.768176,2.70450356 12.8984297,2.90280434 C12.9489495,3.40015509 12.9850483,3.89841263 12.9850483,4.30766152 C12.9852809,4.39924736 13.0577578,4.47355646 13.1471211,4.47355646 Z" id="Path"></path>
                            <path d="M14.3755989,3.60003081 C14.2609292,2.72359389 14.1011824,1.70832256 14.0000033,1.08521428 C14.0456851,1.09676393 14.0954606,1.08731422 14.1356066,1.055672 C14.2067344,1.00007142 14.2203645,0.895742784 14.1660767,0.822960912 L13.8726804,0.428507025 C13.8274172,0.367847511 13.7475438,0.346466344 13.6792072,0.377106319 C13.610824,0.407746295 13.5717479,0.482389474 13.5844942,0.557796267 C13.5874249,0.574786658 13.8760763,2.27964833 14.0546168,3.64412947 C14.1228139,4.16553403 14.0232629,4.63152892 13.7881085,4.89034603 C13.6369678,5.05662278 13.4367028,5.13183867 13.194338,5.11737774 C13.1053469,5.11250971 13.0281716,5.18123489 13.0225893,5.27272528 C13.017007,5.36421568 13.0846924,5.44305873 13.1739626,5.44883355 C13.2013159,5.45064713 13.2282505,5.45141075 13.2549525,5.45141075 C13.5602112,5.45141075 13.8251378,5.33663015 14.024891,5.11666186 C14.3300102,4.78105391 14.4578448,4.2281503 14.3755989,3.60003081 Z" id="Path"></path>
                            <path d="M12.5947991,4.69476563 C12.5353011,4.76110451 12.53986,4.8655286 12.6028004,4.9281926 C12.6115926,4.93692643 12.6221059,4.95415545 12.6221524,4.96260292 C12.6222455,4.96728005 12.6156862,4.98126371 12.5976833,4.9997336 C12.5344638,5.06459299 12.5344638,5.16968524 12.5976833,5.23454463 C12.6293164,5.26699818 12.6707184,5.28322496 12.712167,5.28322496 C12.753569,5.28322496 12.7950176,5.26699818 12.8266506,5.23454463 C12.9293184,5.12926147 12.9481587,5.02240337 12.9458327,4.95119645 C12.9408551,4.79794884 12.8391178,4.69901322 12.8188354,4.68068651 C12.7526386,4.62164967 12.6542506,4.62876082 12.5947991,4.69476563 Z" id="Path"></path>
                        </g>
                        <path d="M12.0241487,8.33686598 L11.862262,8.33686598 L10.8910351,8.33686598 L10.8910351,8.17078013 C10.8910351,8.07900338 10.8185582,8.00469428 10.7291484,8.00469428 C10.6397386,8.00469428 10.5672618,8.07895566 10.5672618,8.17078013 L10.5672618,8.33686598 L1.98782693,8.33686598 C2.31155374,8.66898995 2.95905386,8.83512352 3.44471385,8.83512352 C3.79300276,8.83512352 8.13751974,8.83512352 10.5672618,8.83512352 L10.5672618,9.16724749 C10.5672618,9.25902423 10.6397386,9.33333333 10.7291484,9.33333333 L12.0241487,9.33333333 C12.2919594,9.33333333 12.5098087,9.10983333 12.5098087,8.83507579 C12.5098087,8.56031826 12.2919594,8.33686598 12.0241487,8.33686598 Z M12.0241487,9.00116164 L10.8909886,9.00116164 L10.8909886,8.83507579 C11.6711148,8.83507579 12.1859888,8.83507579 12.1859888,8.83507579 L12.1569143,8.74568534 C12.1737543,8.77183908 12.1859888,8.80138137 12.1859888,8.83507579 C12.1859888,8.92675709 12.1133724,9.00116164 12.0241487,9.00116164 Z" id="Shape" fill="#F5F5F5" fill-rule="nonzero"></path>
                    </g>
                </g>
            </g>
        </g>
    </g>
</svg>