<svg xmlns="http://www.w3.org/2000/svg" xmlns:xlink="http://www.w3.org/1999/xlink" width="20" height="16" viewBox="0 0 20 16">
  <defs>
    <rect id="flag-slovakia-a" width="20" height="16" x="0" y="0" rx="1.6"/>
  </defs>
  <g fill="none" fill-rule="evenodd">
    <mask id="flag-slovakia-b" fill="#fff">
      <use xlink:href="#flag-slovakia-a"/>
    </mask>
    <use fill="#FFF" xlink:href="#flag-slovakia-a"/>
    <rect width="24" height="16" x="-2" fill="#EE1C25" fill-rule="nonzero" mask="url(#flag-slovakia-b)"/>
    <path fill="#FFF" fill-rule="nonzero" stroke="#DEE2E6" stroke-width=".5" d="M18.4,0.25 C18.7727922,0.25 19.1102922,0.401103897 19.3545942,0.645405845 C19.5988961,0.889707794 19.75,1.22720779 19.75,1.6 L19.75,1.6 L19.75,5.08333333 L0.25,5.08333333 L0.25,1.6 C0.25,1.22720779 0.401103897,0.889707794 0.645405845,0.645405845 C0.889707794,0.401103897 1.22720779,0.25 1.6,0.25 L1.6,0.25 Z" mask="url(#flag-slovakia-b)"/>
    <rect width="24" height="6" x="-2" y="4.667" fill="#0B4EA2" fill-rule="nonzero" mask="url(#flag-slovakia-b)"/>
    <g fill-rule="nonzero" mask="url(#flag-slovakia-b)">
      <g transform="translate(2.948 3.64)">
        <path fill="#FFF" d="M3.4856,8.72 C2.05144,8.0292 -1.5720758e-13,6.65805333 -1.5720758e-13,3.94578667 C-1.5720758e-13,1.23349333 0.12968,0 0.12968,0 L3.4856,0 L6.8416,0 C6.8416,0 6.97130667,1.23349333 6.97130667,3.94578667 C6.97130667,6.65805333 4.91986667,8.0292 3.4856,8.72 Z"/>
        <path fill="#EE1C25" d="M3.4856,8.36 C2.16986667,7.72624 0.287813333,6.46832 0.287813333,3.97997333 C0.287813333,1.491632 0.406778667,0.36 0.406778667,0.36 L3.48560533,0.36 L6.564512,0.36 C6.564512,0.36 6.68351467,1.49164 6.68351467,3.97997333 C6.68351467,6.46831467 4.80144533,7.72624 3.48562133,8.36 L3.4856,8.36 Z"/>
        <path fill="#FFF" d="M3.76701333,3.32757333 C4.12327733,3.33333333 4.81836,3.34728 5.43728533,3.14017867 C5.43728533,3.14017867 5.42093867,3.36165867 5.42093867,3.61965867 C5.42093867,3.87772 5.43728533,4.099184 5.43728533,4.099184 C4.86957867,3.909184 4.16848533,3.90523733 3.76701867,3.91033067 L3.76701867,5.28470667 L3.204264,5.28470667 L3.204264,3.91033067 C2.80281067,3.90523733 2.10173067,3.9091968 1.533992,4.09917067 C1.533992,4.09917067 1.55033867,3.87770667 1.55033867,3.61964533 C1.55033867,3.36164533 1.533992,3.14016533 1.533992,3.14016533 C2.15292533,3.347272 2.848,3.33331733 3.204264,3.32756 L3.204264,2.464424 C2.87955467,2.461544 2.41164,2.47703733 1.882584,2.65409333 C1.882584,2.65409333 1.89893067,2.43261333 1.89893067,2.174568 C1.89893067,1.916552 1.882584,1.695072 1.882584,1.695072 C2.41085867,1.87182667 2.8782,1.887584 3.20281867,1.88477067 C3.18612533,1.33815733 3.02689867,0.649250667 3.02689867,0.649250667 C3.02689867,0.649250667 3.35460533,0.674824 3.485608,0.674824 C3.61674933,0.674824 3.94435733,0.649250667 3.94435733,0.649250667 C3.94435733,0.649250667 3.78517067,1.33817333 3.76845333,1.88472 C4.093096,1.88754667 4.560424,1.87178667 5.08868267,1.69502133 C5.08868267,1.69502133 5.072336,1.91650133 5.072336,2.17451733 C5.072336,2.43256267 5.08868267,2.65404267 5.08868267,2.65404267 C4.559648,2.47699733 4.09171467,2.46149067 3.76701067,2.46437333 L3.76701067,3.32750933 L3.76701333,3.32757333 Z"/>
        <path fill="#0B4EA2" d="M3.48546667,5.13584 C2.82288,5.13584 2.467968,6.055008 2.467968,6.055008 C2.467968,6.055008 2.27107733,5.61917333 1.73046933,5.61917333 C1.36470667,5.61917333 1.09515467,5.94453333 0.923802667,6.24584 C1.58924267,7.30464 2.65094933,7.95802667 3.485456,8.36 C4.320096,7.958 5.382496,7.30477333 6.04796267,6.24584 C5.87661333,5.94453333 5.60705867,5.61917333 5.241296,5.61917333 C4.700672,5.61917333 4.50296267,6.055008 4.50296267,6.055008 C4.50296267,6.055008 4.14810133,5.13584 3.485464,5.13584 L3.48546667,5.13584 Z"/>
      </g>
    </g>
  </g>
</svg>
