<svg xmlns="http://www.w3.org/2000/svg" width="24" height="24" viewBox="0 0 24 24">
  <path d="M20.372093,4 C20.6841981,4 20.9431187,4.2290417 20.9917818,4.52913356 L21,4.63157895 L21,8.84210526 C21,9.15603554 20.7722899,9.41647027 20.4739428,9.46541791 L20.372093,9.47368421 L5.30232558,9.47263158 L5.30232558,18.7368421 L9.90697674,18.7368421 C10.2190818,18.7368421 10.4780024,18.9658838 10.5266655,19.2659757 L10.5348837,19.3684211 C10.5348837,19.6823513 10.3071737,19.9427861 10.0088265,19.9917337 L9.90697674,20 L4.6744186,20 C4.3623135,20 4.10339293,19.7709583 4.05472987,19.4708664 L4.04651163,19.3684211 L4.04651163,9.47263158 L3.62790698,9.47368421 C3.31580187,9.47368421 3.05688131,9.24464251 3.00821824,8.94455065 L3,8.84210526 L3,4.63157895 C3,4.31764867 3.22771006,4.05721394 3.5260572,4.0082663 L3.62790698,4 L20.372093,4 Z M15.877907,10.9473684 C18.0453035,10.9473684 19.8023256,12.7146655 19.8023256,14.8947368 C19.8023256,15.8382624 19.4732141,16.7044702 18.9241609,17.3835522 L20.3194376,18.9416304 C20.5514803,19.2008485 20.5306732,19.6001941 20.2729635,19.8335952 C20.0410236,20.0436549 19.6962403,20.0477086 19.4604434,19.8574492 L19.3861853,19.7868487 L17.9869775,18.2241906 C17.3778489,18.615388 16.6542003,18.8421053 15.877907,18.8421053 C13.7105104,18.8421053 11.9534884,17.0748082 11.9534884,14.8947368 C11.9534884,12.7146655 13.7105104,10.9473684 15.877907,10.9473684 Z M15.877907,12.2105263 C14.4040773,12.2105263 13.2093023,13.4122883 13.2093023,14.8947368 C13.2093023,16.3771854 14.4040773,17.5789474 15.877907,17.5789474 C16.5470508,17.5789474 17.1586727,17.3312263 17.6270729,16.9219852 L17.6464793,16.8995304 L17.6464793,16.8995304 L17.6741922,16.8798301 C18.2101412,16.3888832 18.5465116,15.6813215 18.5465116,14.8947368 C18.5465116,13.4122883 17.3517366,12.2105263 15.877907,12.2105263 Z M19.744186,5.26315789 L4.25581395,5.26315789 L4.25581395,8.21052632 L19.744186,8.21052632 L19.744186,5.26315789 Z"/>
</svg>
