<?xml version="1.0" encoding="UTF-8"?>
<svg width="64px" height="32px" viewBox="0 0 64 32" version="1.1" xmlns="http://www.w3.org/2000/svg" xmlns:xlink="http://www.w3.org/1999/xlink">
    <title>carrier-ups</title>
    <g id="Symbols" stroke="none" stroke-width="1" fill="none" fill-rule="evenodd">
        <g id="Logos/Carrier/UPS">
            <g id="Group-Copy-10" fill="#301506" stroke="#E5E5E5" stroke-width="0.5">
                <g id="Rectangle-4-Copy-2">
                    <rect id="Rectangle-4-Copy" x="-0.25" y="-0.25" width="64.5" height="32.5" rx="3"></rect>
                </g>
            </g>
            <g id="United_Parcel_Service_logo_2014" transform="translate(22.000000, 4.000000)">
                <g id="Group" transform="translate(10.000000, 12.000000) scale(-1, 1) rotate(-180.000000) translate(-10.000000, -12.000000) ">
                    <polygon id="Path" fill="#301506" points="0.519592288 16.8416247 0.606137336 6.93627991 2.81306289 4.18719498 9.4340835 0.65267829 17.5694839 4.66721111 19.2571587 8.72538177 19.0840686 21.8600244 12.9392189 22.0345659 6.53481707 20.9873071 0.692940961 17.583704"></polygon>
                    <path d="M9.99919988,0 C6.1426054,0 2.77857465,0.753109257 0,2.23787783 L0,14.1081549 C0,16.6058722 0.930680046,18.6945057 2.69095139,20.1495592 C4.32534966,21.5014956 9.37998248,23.7294159 9.99939503,24 C10.5868026,23.7422072 15.7013471,21.4798489 17.3097902,20.1495592 C19.0690858,18.6952928 20,16.6060296 20,14.1081549 L20,2.23787783 C17.221035,0.752912469 13.8570043,0 9.9988486,0 L9.99919988,0 Z M15.7097387,2.29860674 C16.8598086,2.31376929 17.9890754,2.38541011 19.0806778,2.4877086 L19.0806778,14.1080644 C19.0806778,16.3411406 18.2771198,18.1449819 16.7266759,19.4327653 C15.3415648,20.5829935 11.164843,22.4699976 9.99939503,22.9880235 C8.81833492,22.462992 4.6311529,20.5521765 3.27094323,19.4332376 C1.7296715,18.1674945 0.918385468,16.320832 0.918385468,14.1085367 L0.918385468,7.31854928 C5.34755601,3.22259525 10.725946,2.2331431 15.7093484,2.29887043 L15.7097387,2.29860674 Z M10.259923,7.70950094 C9.31101575,7.70950094 8.54539529,7.92338634 7.91505422,8.33367443 L7.91505422,19.7666877 L9.65542005,19.7666877 L9.65542005,16.0730479 C9.82910536,16.1247048 10.0812028,16.172981 10.438331,16.172981 C12.368853,16.172981 13.4784484,14.4181006 13.4784484,11.8558367 C13.4784484,9.29857132 12.3359113,7.70950094 10.259962,7.70950094 L10.259923,7.70950094 Z M16.2065957,7.70950094 C15.0620291,7.74295497 13.8650836,8.57903023 13.8723491,9.99637909 C13.8753096,10.9296285 14.131872,11.6275582 15.5662239,12.476228 C16.3316882,12.9293136 16.6401065,13.227881 16.6532988,13.7784162 C16.6679352,14.3904282 16.2485925,14.7594458 15.6104453,14.7569663 C15.0552378,14.7525386 14.3915257,14.4418293 13.9470865,14.0428212 L13.9470865,15.6578637 C14.492029,15.9855164 15.1720168,16.2021017 15.8589519,16.2021017 C17.5782413,16.2021017 18.3459694,14.977448 18.3791453,13.8552424 C18.4118332,12.832415 18.1315442,12.0584855 16.6776537,11.1970639 C16.0287732,10.8133265 15.516343,10.5611225 15.5334383,9.92254408 C15.5505141,9.2991971 16.0637054,9.08021096 16.5564643,9.08465838 C17.1643629,9.09007006 17.752395,9.42956156 18.1153778,9.80494332 L18.1153778,8.27983312 C17.809477,8.04221111 17.1618259,7.67994332 16.2065567,7.70946159 L16.2065957,7.70950094 Z M1.8070688,7.887071 L1.8070688,13.4018695 C1.8070688,15.2610477 2.67924226,16.2022473 4.4004832,16.2022473 C5.46554493,16.2022473 6.35758488,15.9536799 7.02207755,15.498099 L7.02207755,7.887071 L5.2855367,7.887071 L5.2855367,14.4995946 C5.09623923,14.6304589 4.81545448,14.7140625 4.4622293,14.7140625 C3.66503324,14.7140625 3.54591244,13.9768931 3.54591244,13.4795301 L3.54591244,7.88719695 L1.8070688,7.88719695 L1.8070688,7.887071 Z M10.2716321,9.12239059 C11.2810365,9.12239059 11.6994425,9.93504802 11.6994425,11.900492 C11.6994425,13.8181951 11.2209297,14.7447143 10.2197997,14.7447143 C9.98415365,14.7447143 9.7793416,14.6858627 9.65491266,14.6386335 L9.65491266,9.24938602 C9.79591,9.17854219 10.0354903,9.12254802 10.2716321,9.12254802 L10.2716321,9.12239059 Z" id="Shape" fill="#FAB80A" fill-rule="nonzero" transform="translate(10.000000, 12.000000) scale(-1, 1) rotate(-180.000000) translate(-10.000000, -12.000000) "></path>
                </g>
            </g>
        </g>
    </g>
</svg>