<?xml version="1.0" encoding="UTF-8"?>
<svg width="50px" height="24px" viewBox="0 0 50 24" version="1.1" xmlns="http://www.w3.org/2000/svg" xmlns:xlink="http://www.w3.org/1999/xlink">
    <title>maestro</title>
    <g id="--↳-Payment-Options-+-Credit-Card-Input-Component" stroke="none" stroke-width="1" fill="none" fill-rule="evenodd">
        <g id="DT-3535-/-Components-/-Payment-Component-/-Desktop-/-Returning-User-/-Payment-NotAvailable-Clicked" transform="translate(-638.000000, -1117.000000)">
            <g id="Group-2" transform="translate(160.000000, 723.000000)">
                <g id="Components-/-Tab-Switcher-/-Inactive" transform="translate(0.000000, 382.000000)">
                    <g id="maestro" transform="translate(478.000000, 12.000000)">
                        <rect id="Rectangle-Copy-11" fill="#FFFFFF" opacity="0" x="0" y="0" width="50" height="24"></rect>
                        <g id="Group" transform="translate(14.000000, 4.000000)" fill-rule="nonzero">
                            <path d="M22.873515,10.4575849 L22.873515,10.7349562 L22.8010641,10.7349562 L22.7172216,10.5444339 L22.6338348,10.7349562 L22.5609283,10.7349562 L22.5609283,10.4575849 L22.6124185,10.4575849 L22.6124185,10.6667501 L22.690793,10.4862314 L22.7441059,10.4862314 L22.8224804,10.6672048 L22.8224804,10.4575849 L22.873515,10.4575849 Z M22.4137482,10.4575849 L22.4137482,10.6876666 L22.506704,10.6876666 L22.506704,10.7345015 L22.2697579,10.7345015 L22.2697579,10.6876666 L22.3627137,10.6876666 L22.3627137,10.4575849 L22.4137482,10.4575849 Z" id="Shape" fill="#0099DF" transform="translate(22.832258, 11.020085) scale(-1, 1) rotate(-180.000000) translate(-22.832258, -11.020085) "></path>
                            <polygon id="Path" fill="#6C6BBD" points="14.666424 12.7757624 8.42176937 12.7757624 8.42176937 1.53001795 14.666424 1.53001795"></polygon>
                            <path d="M8.82168883,7.15208742 C8.82168883,9.43335274 9.88764291,11.4654386 11.5476088,12.7749949 C10.333719,13.732608 8.80172206,14.3041748 7.1367644,14.3041748 C3.19513946,14.3041748 0,11.1021277 0,7.15208742 C0,3.20204714 3.19513946,0 7.1367644,0 C8.80172206,0 10.333719,0.571566778 11.5476088,1.52917986 C9.88764291,2.8387362 8.82168883,4.87082206 8.82168883,7.15208742" id="Path" fill="#EB001B" transform="translate(5.773804, 7.152087) scale(-1, 1) rotate(-180.000000) translate(-5.773804, -7.152087) "></path>
                            <path d="M23.0888533,7.15208742 C23.0888533,3.20204714 19.8937139,0 15.9520889,0 C14.2871313,0 12.7551343,0.571566778 11.5407907,1.52917986 C13.2012104,2.8387362 14.2671645,4.87082206 14.2671645,7.15208742 C14.2671645,9.43335274 13.2012104,11.4654386 11.5407907,12.7749949 C12.7551343,13.732608 14.2871313,14.3041748 15.9520889,14.3041748 C19.8937139,14.3041748 23.0888533,11.1021277 23.0888533,7.15208742" id="Path" fill="#0099DF" transform="translate(17.314822, 7.152087) scale(-1, 1) rotate(-180.000000) translate(-17.314822, -7.152087) "></path>
                            <path d="M16.7722262,17.4304548 C16.8552699,17.4304548 16.9746168,17.41454 17.0658287,17.3786182 L16.9387673,16.9893889 C16.8516396,17.0253108 16.7645118,17.0371332 16.6810143,17.0371332 C16.4114627,17.0371332 16.2766869,16.8625257 16.2766869,16.5487778 L16.2766869,15.4838538 L15.8641913,15.4838538 L15.8641913,17.3827105 L16.2726027,17.3827105 L16.2726027,17.1521741 C16.3796973,17.3190515 16.5344399,17.4304548 16.7722262,17.4304548 M15.2483974,17.0053037 L14.5745184,17.0053037 L14.5745184,16.1472714 C14.5745184,15.9567492 14.6416794,15.8294312 14.8481541,15.8294312 C14.9552487,15.8294312 15.0900245,15.8653531 15.212548,15.9367421 L15.3314411,15.5834347 C15.2007494,15.4920386 14.9947285,15.4361096 14.8163888,15.4361096 C14.3285639,15.4361096 14.1583925,15.6984756 14.1583925,16.1395414 L14.1583925,17.0053037 L13.7735781,17.0053037 L13.7735781,17.3827105 L14.1583925,17.3827105 L14.1583925,17.9588244 L14.5745184,17.9588244 L14.5745184,17.3827105 L15.2483974,17.3827105 L15.2483974,17.0053037 Z M9.9712668,16.6001597 C10.0152845,16.874348 10.1813718,17.0612326 10.4749743,17.0612326 C10.7404418,17.0612326 10.9110671,16.8943551 10.954631,16.6001597 L9.9712668,16.6001597 Z M11.3830093,16.4332822 C11.3789252,17.0253108 11.0140776,17.4304548 10.4826888,17.4304548 C9.92770293,17.4304548 9.53925817,17.0253108 9.53925817,16.4332822 C9.53925817,15.8298859 9.94358559,15.4365643 10.5108238,15.4365643 C10.7962581,15.4365643 11.0576414,15.5079533 11.2877133,15.7025679 L11.0853227,16.0085858 C10.9269498,15.8812678 10.7245592,15.8098788 10.5344209,15.8098788 C10.2689534,15.8098788 10.027083,15.9331044 9.96763647,16.2745894 L11.3748411,16.2745894 C11.3789252,16.326426 11.3830093,16.3778079 11.3830093,16.4332822 M13.1945413,16.8979928 C13.0797323,16.9698365 12.8460301,17.0612326 12.6041597,17.0612326 C12.378172,17.0612326 12.2433962,16.9775665 12.2433962,16.8384262 C12.2433962,16.7115629 12.3858865,16.6756411 12.5642262,16.6519963 L12.7584485,16.6242592 C13.1709442,16.5642378 13.420529,16.3896303 13.420529,16.0558753 C13.420529,15.6943832 13.1033294,15.4361096 12.5565117,15.4361096 C12.2470265,15.4361096 11.9615923,15.5156833 11.7356046,15.6825608 L11.9298269,16.0044934 C12.0686869,15.8971826 12.2751616,15.8057864 12.5605958,15.8057864 C12.841946,15.8057864 12.9926045,15.8889978 12.9926045,16.0363229 C12.9926045,16.1431791 12.8855099,16.2032004 12.6595222,16.2345752 L12.4652998,16.2623123 C12.0410056,16.3223337 11.8109338,16.5128559 11.8109338,16.8225114 C11.8109338,17.1999183 12.120419,17.4304548 12.6000756,17.4304548 C12.9013925,17.4304548 13.1750283,17.3627034 13.372881,17.2317478 L13.1945413,16.8979928 Z M18.2792647,17.0380426 C18.1944059,17.0380426 18.1159001,17.0230372 18.0428398,16.9934813 C17.9702333,16.9634706 17.9071564,16.9216376 17.8540629,16.8679821 C17.8009694,16.8143267 17.7592207,16.7497583 17.7288167,16.6747316 C17.6984128,16.599705 17.6834377,16.5169483 17.6834377,16.4269163 C17.6834377,16.3364296 17.6984128,16.2541276 17.7288167,16.1791009 C17.7592207,16.1040743 17.8009694,16.0395059 17.8540629,15.9858504 C17.9071564,15.932195 17.9702333,15.890362 18.0428398,15.8603513 C18.1159001,15.8303406 18.1944059,15.81579 18.2792647,15.81579 C18.3641235,15.81579 18.4430831,15.8303406 18.5156896,15.8603513 C18.5887499,15.890362 18.6522805,15.932195 18.7053741,15.9858504 C18.7593751,16.0395059 18.8011239,16.1040743 18.8319816,16.1791009 C18.8623856,16.2541276 18.8773607,16.3364296 18.8773607,16.4269163 C18.8773607,16.5169483 18.8623856,16.599705 18.8319816,16.6747316 C18.8011239,16.7497583 18.7593751,16.8143267 18.7053741,16.8679821 C18.6522805,16.9216376 18.5887499,16.9634706 18.5156896,16.9934813 C18.4430831,17.0230372 18.3641235,17.0380426 18.2792647,17.0380426 M18.2792647,17.4304548 C18.4262928,17.4304548 18.56243,17.4049912 18.6876762,17.3536093 C18.8129224,17.3026821 18.9213784,17.2322025 19.0125903,17.1426252 C19.104256,17.0530479 19.1755011,16.9471012 19.2272332,16.8252397 C19.2789653,16.7029235 19.3048314,16.570149 19.3048314,16.4269163 C19.3048314,16.2836836 19.2789653,16.1509091 19.2272332,16.0285929 C19.1755011,15.9067314 19.104256,15.80033 19.0125903,15.7107527 C18.9213784,15.6211754 18.8129224,15.5511505 18.6876762,15.4997686 C18.56243,15.4488414 18.4262928,15.4233778 18.2792647,15.4233778 C18.1322366,15.4233778 17.9960994,15.4488414 17.8708532,15.4997686 C17.745607,15.5511505 17.6380586,15.6211754 17.5473005,15.7107527 C17.4565424,15.80033 17.3852972,15.9067314 17.3335651,16.0285929 C17.281833,16.1509091 17.2559669,16.2836836 17.2559669,16.4269163 C17.2559669,16.570149 17.281833,16.7029235 17.3335651,16.8252397 C17.3852972,16.9471012 17.4565424,17.0530479 17.5473005,17.1426252 C17.6380586,17.2322025 17.745607,17.3026821 17.8708532,17.3536093 C17.9960994,17.4049912 18.1322366,17.4304548 18.2792647,17.4304548 M7.56254641,16.4332822 C7.56254641,16.7670372 7.78081967,17.0412255 8.13749907,17.0412255 C8.4782958,17.0412255 8.70836762,16.7788596 8.70836762,16.4332822 C8.70836762,16.0877048 8.4782958,15.8257935 8.13749907,15.8257935 C7.78081967,15.8257935 7.56254641,16.0995272 7.56254641,16.4332822 M9.09681237,16.4332822 L9.09681237,17.3827105 L8.68477052,17.3827105 L8.68477052,17.1521741 C8.55362504,17.3231439 8.35577237,17.4304548 8.08622076,17.4304548 C7.55483197,17.4304548 7.13870602,17.0134884 7.13870602,16.4332822 C7.13870602,15.8535307 7.55483197,15.4361096 8.08622076,15.4361096 C8.35577237,15.4361096 8.55362504,15.5434205 8.68477052,15.7143903 L8.68477052,15.4838538 L9.09681237,15.4838538 L9.09681237,16.4332822 Z M6.7738584,15.4838538 L6.7738584,16.6756411 C6.7738584,17.1244369 6.48842413,17.4263624 6.02873427,17.4304548 C5.78686389,17.4345471 5.53682528,17.3590658 5.3625697,17.0926074 C5.23187802,17.3031368 5.0254033,17.4304548 4.73588492,17.4304548 C4.53394811,17.4304548 4.33564163,17.3708881 4.18089904,17.1485364 L4.18089904,17.3827105 L3.7688572,17.3827105 L3.7688572,15.4838538 L4.18498315,15.4838538 L4.18498315,16.5365007 C4.18498315,16.8661633 4.36740697,17.0412255 4.64875712,17.0412255 C4.92239284,17.0412255 5.06125276,16.8625257 5.06125276,16.5405931 L5.06125276,15.4838538 L5.47737872,15.4838538 L5.47737872,16.5365007 C5.47737872,16.8661633 5.66797076,17.0412255 5.94115269,17.0412255 C6.22295664,17.0412255 6.35773244,16.8625257 6.35773244,16.5405931 L6.35773244,15.4838538 L6.7738584,15.4838538 Z" id="Shape" fill="#231F20" transform="translate(11.536844, 16.691101) scale(-1, 1) rotate(-180.000000) translate(-11.536844, -16.691101) "></path>
                            <path d="M19.7496159,17.1191777 L19.7496159,17.0723429 L19.7929041,17.0723429 C19.8024731,17.0723429 19.8106751,17.0746164 19.8161431,17.0782541 C19.8220667,17.0818917 19.8252564,17.0882576 19.8252564,17.0959876 C19.8252564,17.1037177 19.8220667,17.1096288 19.8161431,17.1132665 C19.8106751,17.1173589 19.8024731,17.1191777 19.7929041,17.1191777 L19.7496159,17.1191777 Z M19.7933598,17.1519166 C19.8156874,17.1519166 19.8330027,17.1469148 19.8453057,17.1369113 C19.8576087,17.1269077 19.8635323,17.1132665 19.8635323,17.0959876 C19.8635323,17.081437 19.8589757,17.0696146 19.848951,17.0600658 C19.839382,17.0509716 19.8252564,17.0450604 19.8074854,17.0427869 L19.8648993,16.9768544 L19.8202441,16.9768544 L19.7669312,17.0423322 L19.7496159,17.0423322 L19.7496159,16.9768544 L19.7122513,16.9768544 L19.7122513,17.1519166 L19.7933598,17.1519166 Z M19.7819681,16.916833 C19.8024731,16.916833 19.8216111,16.9204707 19.8389264,16.9282007 C19.8566973,16.9359307 19.87219,16.946389 19.8854043,16.9595755 C19.8986186,16.972762 19.9090989,16.9882221 19.9168452,17.0064103 C19.9241359,17.0241439 19.9282368,17.0432416 19.9282368,17.0637034 C19.9282368,17.0841653 19.9241359,17.1032629 19.9168452,17.1209965 C19.9090989,17.1387301 19.8986186,17.1546448 19.8854043,17.1678314 C19.87219,17.1810179 19.8566973,17.1914761 19.8389264,17.1987514 C19.8216111,17.2064815 19.8024731,17.2101191 19.7819681,17.2101191 C19.7614632,17.2101191 19.7418696,17.2064815 19.7240986,17.1987514 C19.705872,17.1914761 19.6899237,17.1810179 19.6767094,17.1678314 C19.6634951,17.1546448 19.6530147,17.1387301 19.6457241,17.1209965 C19.6379778,17.1032629 19.6343324,17.0841653 19.6343324,17.0637034 C19.6343324,17.0432416 19.6379778,17.0241439 19.6457241,17.0064103 C19.6530147,16.9882221 19.6634951,16.972762 19.6767094,16.9595755 C19.6899237,16.946389 19.705872,16.9359307 19.7240986,16.9282007 C19.7418696,16.9204707 19.7614632,16.916833 19.7819681,16.916833 M19.7819681,17.2524069 C19.8088524,17.2524069 19.8334584,17.2474051 19.8566973,17.2374015 C19.8803919,17.2278527 19.9004412,17.2142115 19.9182122,17.1969326 C19.9355275,17.1801084 19.9491975,17.1601013 19.9592221,17.1369113 C19.9692468,17.1141759 19.9742591,17.0896217 19.9742591,17.0637034 C19.9742591,17.0377851 19.9692468,17.0132309 19.9592221,16.9904956 C19.9491975,16.9677602 19.9355275,16.9477531 19.9182122,16.930929 C19.9004412,16.9136501 19.8803919,16.9000089 19.8566973,16.8900053 C19.8334584,16.8800018 19.8088524,16.875 19.7819681,16.875 C19.7546282,16.875 19.7295666,16.8800018 19.705872,16.8900053 C19.6821773,16.9000089 19.6616724,16.9136501 19.6443571,16.930929 C19.6270418,16.9477531 19.6133718,16.9677602 19.6033472,16.9904956 C19.5933225,17.0132309 19.5883102,17.0377851 19.5883102,17.0637034 C19.5883102,17.0896217 19.5933225,17.1141759 19.6033472,17.1369113 C19.6133718,17.1601013 19.6270418,17.1801084 19.6443571,17.1969326 C19.6616724,17.2142115 19.6821773,17.2278527 19.705872,17.2374015 C19.7295666,17.2474051 19.7546282,17.2524069 19.7819681,17.2524069" id="Shape" fill="#231F20" transform="translate(20.150810, 17.437500) scale(-1, 1) rotate(-180.000000) translate(-20.150810, -17.437500) "></path>
                        </g>
                    </g>
                </g>
            </g>
        </g>
    </g>
</svg>