<?xml version="1.0" encoding="UTF-8"?>
<svg width="50px" height="24px" viewBox="0 0 50 24" version="1.1" xmlns="http://www.w3.org/2000/svg" xmlns:xlink="http://www.w3.org/1999/xlink">
    <title>mastercard</title>
    <g id="--↳-Payment-Options-+-Credit-Card-Input-Component" stroke="none" stroke-width="1" fill="none" fill-rule="evenodd">
        <g id="DT-3535-/-Components-/-Payment-Component-/-Desktop-/-Returning-User-/-Payment-NotAvailable-Clicked" transform="translate(-588.000000, -1117.000000)">
            <g id="Group-2" transform="translate(160.000000, 723.000000)">
                <g id="Components-/-Tab-Switcher-/-Inactive" transform="translate(0.000000, 382.000000)">
                    <g id="mastercard" transform="translate(428.000000, 12.000000)">
                        <rect id="Rectangle-Copy-12" fill="#FFFFFF" opacity="0" x="0" y="0" width="50" height="24"></rect>
                        <g id="Group" transform="translate(13.750000, 4.000000)" fill-rule="nonzero">
                            <path d="M4.09507951,17.8597888 L4.09507951,16.6700864 C4.09507951,16.2232941 3.81677314,15.9219447 3.36924018,15.9167129 C3.10928368,15.8999712 2.85952154,16.0297189 2.72087807,16.2546846 C2.59242898,16.0349507 2.35795841,15.9062494 2.10921571,15.9177592 C1.89309501,15.9072957 1.68818812,16.0223944 1.56891396,16.2002743 L1.56891396,15.9700769 L1.17133342,15.9700769 L1.17133342,17.8639742 L1.57910833,17.8639742 L1.57910833,16.8176221 C1.57910833,16.4932529 1.75547098,16.3153731 2.02969961,16.3153731 C2.30494767,16.3153731 2.43135789,16.4932529 2.43135789,16.8176221 L2.43135789,17.8744377 L2.8391328,17.8744377 L2.8391328,16.8280856 C2.8391328,16.5037164 3.02467038,16.3258366 3.29074351,16.3258366 C3.55579721,16.3258366 3.69851842,16.5037164 3.69851842,16.8280856 L3.69851842,17.8849013 L4.10629331,17.8849013 L4.09609895,17.8744377 L4.09507951,17.8597888 Z M10.0954873,15.9658914 L9.44304743,15.9658914 L9.44304743,15.3903978 L9.03527254,15.3903978 L9.03527254,15.9658914 L8.66011962,15.9658914 L8.66011962,16.3425782 L9.03425309,16.3425782 L9.03425309,17.2058187 C9.03425309,17.6452866 9.19940192,17.9068746 9.67445968,17.9068746 C9.85184179,17.9068746 10.0251461,17.8566497 10.1760228,17.7603854 L10.059807,17.4077647 C9.95174664,17.4726385 9.83043359,17.5092608 9.7050428,17.5123999 C9.50115538,17.5123999 9.43998913,17.3868377 9.43998913,17.1984942 L9.43998913,16.3425782 L10.0954873,16.3425782 L10.0954873,15.9658914 L10.0934484,15.9658914 L10.0954873,15.9658914 Z M13.5207965,15.9177592 C13.3209868,15.9177592 13.1334104,16.0223944 13.0345249,16.2002743 L13.0345249,15.9700769 L12.6369444,15.9700769 L12.6369444,17.8639742 L13.0447193,17.8639742 L13.0447193,16.8071586 C13.0447193,16.4932529 13.1772461,16.3258366 13.4422999,16.3258366 C13.5340492,16.3258366 13.6156042,16.3467636 13.6971592,16.3781542 L13.8194916,15.9910039 C13.7277423,15.9596133 13.6359929,15.9386863 13.5340492,15.9386863 L13.5207965,15.9177592 Z M8.34205518,16.1165661 C8.1157401,15.9805404 7.85272528,15.9177592 7.5897105,15.9177592 C7.12280821,15.9177592 6.82105479,16.1479567 6.82105479,16.5246435 C6.82105479,16.8385491 7.04533098,17.0268925 7.45820309,17.0896736 L7.65189615,17.1210642 C7.87617234,17.1524548 7.97811607,17.2152359 7.97811607,17.3198711 C7.97811607,17.4663604 7.83539485,17.5500686 7.56014678,17.5500686 C7.34606496,17.5605321 7.13198313,17.4872874 6.94848443,17.3512617 L6.75479137,17.6756308 C6.98926192,17.8430472 7.27470435,17.9267553 7.56014678,17.9267553 C8.10044856,17.9267553 8.40627972,17.6756308 8.40627972,17.3094076 C8.40627972,16.9745749 8.16161477,16.8071586 7.76403424,16.7443774 L7.5907299,16.7234504 C7.41742557,16.7025233 7.27470435,16.6711328 7.27470435,16.535107 C7.27470435,16.4095447 7.4072312,16.3153731 7.63150739,16.3153731 C7.83539485,16.3153731 8.02908795,16.3781542 8.21258665,16.4827894 L8.38385211,16.1479567 L8.34205518,16.1165661 Z M19.1011962,15.9177592 C18.9013864,15.9177592 18.71381,16.0223944 18.6149246,16.2002743 L18.6149246,15.9700769 L18.217344,15.9700769 L18.217344,17.8639742 L18.6190023,17.8639742 L18.6190023,16.8071586 C18.6190023,16.4932529 18.7413348,16.3258366 19.0063885,16.3258366 C19.0879435,16.3258366 19.1796928,16.3467636 19.2510534,16.3781542 L19.3733859,15.9910039 C19.2816365,15.9596133 19.1796928,15.9386863 19.0879435,15.9386863 L19.1011962,15.9177592 Z M13.9265326,16.9222573 C13.9265326,17.497751 14.316977,17.9162918 14.911309,17.9162918 C15.1518962,17.9372189 15.3904445,17.8535107 15.5739432,17.6965579 L15.3843279,17.3617252 C15.2456844,17.4768239 15.0764578,17.5291415 14.902134,17.5396051 C14.5820307,17.5396051 14.3465407,17.2989441 14.3465407,16.9327208 C14.3465407,16.5664976 14.5810113,16.3363001 14.902134,16.3258366 C15.0754384,16.3363001 15.2456844,16.3886177 15.3843279,16.5037164 L15.5780209,16.1793473 C15.3914639,16.0223944 15.153935,15.9386863 14.9133478,15.9491498 C14.3190159,15.9491498 13.9285714,16.3676907 13.9285714,16.9431843 L13.9265326,16.9431843 L13.9265326,16.9222573 Z M17.6882561,16.9222573 L17.6882561,15.9805404 L17.2855783,15.9805404 L17.2855783,16.2107378 C17.1530515,16.032858 16.9287753,15.9282227 16.7044991,15.9386863 C16.1845861,15.9386863 15.7870056,16.3572271 15.7870056,16.9327208 C15.7870056,17.5082145 16.1947805,17.9267553 16.7146935,17.9267553 C16.9389697,17.9372189 17.1632459,17.8325836 17.2957727,17.6547038 L17.2957727,17.8849013 L17.7035476,17.8849013 L17.7035476,16.9431843 L17.6882561,16.9222573 Z M16.1927416,16.9222573 C16.1927416,16.5874246 16.3966291,16.3153731 16.7432377,16.3153731 C17.0694577,16.3153731 17.2937339,16.5769611 17.2937339,16.9222573 C17.2937339,17.2675535 17.0694577,17.5291415 16.7330433,17.5291415 C16.3864347,17.5291415 16.1723528,17.25709 16.1723528,16.9222573 L16.1927416,16.9222573 Z M11.3402202,15.9282227 C10.7999184,15.9282227 10.4227267,16.3363001 10.4227267,16.9222573 C10.4227267,17.5082145 10.8101128,17.9162918 11.3708033,17.9162918 C11.6460514,17.9267553 11.9111051,17.8325836 12.1251869,17.6547038 L11.9212994,17.3512617 C11.7683839,17.4768239 11.5746908,17.5500686 11.3809977,17.5500686 C11.115944,17.5500686 10.8814734,17.4349698 10.8305015,17.0896736 L12.1965475,17.0896736 C12.1965475,17.037356 12.2067419,16.9850384 12.2067419,16.9327208 C12.2067419,16.3467636 11.8397445,15.9386863 11.3300258,15.9386863 L11.3402202,15.9282227 Z M11.3300258,16.294446 C11.5848852,16.294446 11.7479951,16.4618624 11.798967,16.7548409 L10.8417154,16.7548409 C10.8865706,16.4827894 11.0456028,16.294446 11.3341036,16.294446 L11.3300258,16.294446 Z M21.402066,16.9222573 L21.402066,15.2051934 L21.0044855,15.2051934 L21.0044855,16.1992279 C20.8617643,16.0140236 20.6476825,15.9104348 20.4132119,15.9208983 C19.8932989,15.9208983 19.485524,16.3394392 19.485524,16.9149328 C19.485524,17.4925192 19.8932989,17.91106 20.4030175,17.91106 C20.6272937,17.9215236 20.8413755,17.8168884 20.9840968,17.6337767 L20.9840968,17.8639742 L21.3816773,17.8639742 L21.3816773,16.9222573 L21.3714829,16.9222573 L21.402066,16.9222573 Z M19.9034933,16.9222573 C19.9034933,16.5978881 20.1175751,16.3153731 20.4641838,16.3153731 C20.7904037,16.3153731 21.0146799,16.5769611 21.0146799,16.9222573 C21.0146799,17.2675535 20.7904037,17.5291415 20.4539894,17.5291415 C20.1073807,17.5291415 19.8932989,17.25709 19.8932989,16.9222573 L19.9034933,16.9222573 Z M6.34497759,16.9222573 L6.34497759,15.9805404 L5.94841647,15.9805404 L5.94841647,16.2107378 C5.80977299,16.032858 5.59161343,15.9282227 5.36529835,15.9386863 C4.84742422,15.9386863 4.44270763,16.3572271 4.44270763,16.9327208 C4.44270763,17.5082145 4.85048252,17.9267553 5.36427891,17.9267553 C5.59059399,17.9372189 5.80875358,17.8325836 5.94739703,17.6547038 L5.94739703,17.8849013 L6.35517195,17.8849013 L6.35517195,16.9327208 L6.34497759,16.9222573 Z M4.84640478,16.9222573 C4.84640478,16.5978881 5.0604866,16.3153731 5.40709528,16.3153731 C5.7333152,16.3153731 5.95759143,16.5769611 5.95759143,16.9222573 C5.95759143,17.2675535 5.7333152,17.5291415 5.39690092,17.5291415 C5.05029224,17.5291415 4.83621042,17.25709 4.83621042,16.9222573 L4.84640478,16.9222573 Z M22.0647003,17.6023862 C22.085089,17.6023862 22.1156721,17.6128497 22.1360609,17.6233132 C22.1564497,17.6337767 22.1768384,17.6547038 22.1870328,17.6651673 C22.1972271,17.6860943 22.2176159,17.7070214 22.2278103,17.7279484 C22.248199,17.7802661 22.248199,17.8325836 22.2278103,17.8744377 C22.2176159,17.8953648 22.1972271,17.9162918 22.1870328,17.9372189 C22.166644,17.9581459 22.1462553,17.9686094 22.1258665,17.9790729 C22.0952834,17.9895365 22.0748946,18 22.0443115,18 C21.9729509,18 21.9015903,17.9581459 21.8710072,17.8849013 C21.8506185,17.8430472 21.8506185,17.7907296 21.8710072,17.7384119 C21.8812016,17.7174849 21.8913959,17.6965579 21.9117847,17.6756308 C21.9321734,17.6651673 21.9525622,17.6442403 21.9729509,17.6337767 C21.9933397,17.6233132 22.0239228,17.6233132 22.0443115,17.6233132 L22.0647003,17.6023862 Z M22.0647003,17.9372189 C22.085089,17.9372189 22.1054778,17.9372189 22.1156721,17.9267553 L22.1564497,17.8953648 C22.1768384,17.8744377 22.1972271,17.8325836 22.1972271,17.7907296 C22.1972271,17.7488755 22.1768384,17.7174849 22.1564497,17.6860943 L22.1054778,17.6547038 C22.085089,17.6442403 22.0647003,17.6442403 22.0443115,17.6442403 C22.0239228,17.6442403 22.003534,17.6547038 21.9831453,17.6547038 L21.9321734,17.6860943 C21.9015903,17.7174849 21.8873182,17.759339 21.8873182,17.7907296 C21.8873182,17.8325836 21.9077069,17.8744377 21.9331929,17.8953648 C21.9495039,17.9162918 21.963776,17.9267553 21.9821259,17.9267553 C22.0025146,17.9372189 22.0157673,17.9476824 22.0351366,17.9372189 L22.0351366,17.9476824 L22.0647003,17.9372189 Z M22.0748946,17.7070214 C22.085089,17.7070214 22.1054778,17.7174849 22.1258665,17.7279484 C22.1360609,17.7384119 22.1360609,17.7488755 22.1360609,17.7698025 C22.1360609,17.7802661 22.1258665,17.7907296 22.1156721,17.8011931 C22.1054778,17.8116566 22.085089,17.8221201 22.0748946,17.8221201 L22.1258665,17.8849013 L22.0748946,17.8849013 L22.0239228,17.8221201 L22.003534,17.8221201 L22.003534,17.8953648 L21.9627566,17.8953648 L21.9627566,17.7164386 L22.0381949,17.7164386 L22.0748946,17.7070214 Z M22.0239228,17.7384119 L22.0239228,17.7907296 L22.085089,17.7907296 C22.085089,17.7907296 22.0952834,17.7802661 22.085089,17.7802661 C22.085089,17.7698025 22.077953,17.7698025 22.0748946,17.759339 L22.0055729,17.759339 L22.0239228,17.7384119 Z" id="Shape" fill="#010101"></path>
                            <polygon id="Path" fill="#F16022" points="8.21156403 1.52938354 14.2944889 1.52938354 14.2944889 12.7464019 8.21156403 12.7464019"></polygon>
                            <path d="M8.59895338,7.13781845 C8.59487564,4.9478034 9.57251599,2.87916525 11.2494903,1.52727828 C8.3971048,-0.772603713 4.30406415,-0.43777103 1.84416202,2.29634711 C-0.614720674,5.0294189 -0.614720674,9.24412531 1.84416202,11.9771971 C4.30406415,14.7113152 8.3971048,15.0461479 11.2474514,12.7462659 C9.5704771,11.3933326 8.59283675,9.32469441 8.59691449,7.13781845 L8.59895338,7.13781845 Z" id="Path" fill="#E91D25"></path>
                            <path d="M22.5,7.13781845 C22.5,9.86879753 20.9810385,12.3591156 18.5853609,13.5519571 C16.1927416,14.7468912 13.3454533,14.4329855 11.2525486,12.7462659 C12.9285035,11.3922862 13.9071633,9.32469441 13.9071633,7.13572576 C13.9071633,4.94675708 12.9285035,2.87916525 11.2525486,1.52727828 C13.3454533,-0.162580419 16.193761,-0.47648606 18.5873998,0.717401728 C20.9810385,1.91024317 22.5,4.40370032 22.5,7.13572576 L22.5,7.13781845 Z M21.833288,11.5586562 L21.833288,11.3284588 L21.9250374,11.3284588 L21.9250374,11.2803265 L21.6946445,11.2803265 L21.6946445,11.3221807 L21.7863939,11.3221807 L21.7863939,11.5523781 L21.833288,11.5523781 L21.833288,11.5586562 Z M22.2798016,11.5586562 L22.2798016,11.2803265 L22.2084409,11.2803265 L22.1289248,11.4686699 L22.0504281,11.2803265 L21.9790675,11.2803265 L21.9790675,11.5523781 L22.0300394,11.5523781 L22.0300394,11.3431077 L22.1064972,11.5209875 L22.1574691,11.5209875 L22.2349463,11.3326442 L22.2349463,11.5419146 L22.2859182,11.5419146 L22.2798016,11.5419146 L22.2798016,11.5586562 Z" id="Shape" fill="#F69E1E"></path>
                        </g>
                    </g>
                </g>
            </g>
        </g>
    </g>
</svg>