<?xml version="1.0" encoding="UTF-8"?>
<svg width="50px" height="24px" viewBox="0 0 50 24" version="1.1" xmlns="http://www.w3.org/2000/svg" xmlns:xlink="http://www.w3.org/1999/xlink">
    <title>paypal</title>
    <g id="--↳-Payment-Options-+-Credit-Card-Input-Component" stroke="none" stroke-width="1" fill="none" fill-rule="evenodd">
        <g id="DT-3535-/-Components-/-Payment-Component-/-Desktop-/-Returning-User-/-Payment-NotAvailable-Clicked" transform="translate(-638.000000, -1164.000000)">
            <g id="Group-2" transform="translate(160.000000, 723.000000)">
                <g id="Components-/-Tab-Switcher-/-Inactive-Copy" transform="translate(0.000000, 429.000000)">
                    <g id="paypal" transform="translate(478.000000, 12.000000)">
                        <rect id="Rectangle-Copy-10" fill="#FFFFFF" opacity="0" x="0" y="0" width="50" height="24"></rect>
                        <g id="Group" transform="translate(3.000000, 7.000000)" fill-rule="nonzero">
                            <path d="M16.574902,2.14634146 L14.178698,2.14634146 C14.0147232,2.14634146 13.8752746,2.27093169 13.8496973,2.44022782 L12.8805643,8.86651835 C12.8612938,8.99330723 12.9551939,9.10763709 13.078175,9.10763709 L14.2221443,9.10763709 C14.3861191,9.10763709 14.5255677,8.98304686 14.551145,8.81338429 L14.8125236,7.08011439 C14.8377504,6.91045182 14.9775495,6.78586159 15.1411739,6.78586159 L15.8997324,6.78586159 C17.4781648,6.78586159 18.3891358,5.98701838 18.6270393,4.40398964 C18.7342536,3.71141456 18.6315942,3.16724843 18.3215137,2.78614891 C17.9809507,2.36767233 17.3769069,2.14634146 16.574902,2.14634146 L16.574902,2.14634146 Z M16.8513467,4.49340144 C16.720307,5.39264972 16.0633568,5.39264972 15.4281297,5.39264972 L15.0665443,5.39264972 L15.3202147,3.71324677 C15.3352807,3.61174238 15.4193704,3.53698824 15.5174749,3.53698824 L15.6832016,3.53698824 C16.1159128,3.53698824 16.5240979,3.53698824 16.7350227,3.7949633 C16.8608068,3.94886887 16.8993478,4.17752858 16.8513467,4.49340144 L16.8513467,4.49340144 Z M23.7375866,4.46445254 L22.5901135,4.46445254 C22.4923593,4.46445254 22.4079193,4.53920667 22.3928532,4.64071106 L22.3420491,4.97637179 L22.2618136,4.8547131 C22.0133988,4.47764445 21.4594584,4.35158845 20.906569,4.35158845 C19.6385675,4.35158845 18.5555632,5.35600553 18.3446383,6.76497441 C18.2349715,7.46780985 18.3908876,8.13986419 18.772094,8.6085433 C19.1217667,9.0394789 19.6221,9.2190354 20.2173845,9.2190354 C21.2390735,9.2190354 21.8056273,8.53195696 21.8056273,8.53195696 L21.7544728,8.86541903 C21.7352023,8.99294079 21.8291023,9.10727064 21.9513827,9.10727064 L22.9849844,9.10727064 C23.1493095,9.10727064 23.2880574,8.98268042 23.313985,8.81301785 L23.9341461,4.70557127 C23.953767,4.57914883 23.8602173,4.46445254 23.7375866,4.46445254 L23.7375866,4.46445254 Z M22.1381317,6.80015282 C22.0274137,7.4857655 21.5071091,7.94601645 20.8435018,7.94601645 C20.5102967,7.94601645 20.2440128,7.83425169 20.0730306,7.62244831 C19.9034498,7.41211069 19.8389811,7.11272771 19.8929386,6.77926564 C19.9962988,6.09951603 20.5253627,5.62424096 21.1788092,5.62424096 C21.5046565,5.62424096 21.7695389,5.73747149 21.9440248,5.95110708 C22.1188612,6.16694132 22.1882351,6.46815652 22.1381317,6.80015282 L22.1381317,6.80015282 Z M29.8488003,4.46445254 L28.6957213,4.46445254 C28.585704,4.46445254 28.4823439,4.52161747 28.4199774,4.61725879 L26.8296323,7.06728892 L26.1555138,4.71290011 C26.1131186,4.56559049 25.98313,4.46445254 25.8359732,4.46445254 L24.7028654,4.46445254 C24.5651687,4.46445254 24.4695167,4.60516621 24.5133134,4.74074969 L25.7834172,8.63895797 L24.5893444,10.4019097 C24.4954443,10.5407911 24.5900452,10.7317073 24.7522681,10.7317073 L25.9039456,10.7317073 C26.0132621,10.7317073 26.1155712,10.6760082 26.1775873,10.582199 L30.0127751,4.79241799 C30.104573,4.65390297 30.0103225,4.46445254 29.8488003,4.46445254 L29.8488003,4.46445254 Z" id="Shape" fill="#253B80"></path>
                            <path d="M33.8091709,2.14667506 L31.3714276,2.14667506 C31.2049911,2.14667506 31.0631458,2.26009689 31.0371289,2.41421715 L30.0513398,8.26444877 C30.031738,8.37987217 30.1272519,8.48395339 30.2516339,8.48395339 L31.5025811,8.48395339 C31.6187659,8.48395339 31.7182002,8.4045581 31.7363763,8.29647376 L32.0161466,6.63817979 C32.041807,6.48372594 32.1840087,6.3703041 32.3504453,6.3703041 L33.1216845,6.3703041 C34.7276013,6.3703041 35.6538725,5.64306997 35.8962212,4.20194546 C36.0056345,3.57145348 35.9004979,3.07606693 35.5850882,2.72912955 C35.2390284,2.34816561 34.6249595,2.14667506 33.8091709,2.14667506 L33.8091709,2.14667506 Z M34.0903667,4.2833423 C33.9574313,5.10198109 33.2891902,5.10198109 32.6426893,5.10198109 L32.2752459,5.10198109 L32.5336324,3.57312145 C32.5489574,3.48071601 32.6337794,3.41266291 32.7339265,3.41266291 L32.9025014,3.41266291 C33.3422931,3.41266291 33.7578499,3.41266291 33.9723999,3.64751283 C34.1003457,3.78762216 34.1391928,3.99578459 34.0903667,4.2833423 L34.0903667,4.2833423 Z M41.0946017,4.25698841 L39.9281202,4.25698841 C39.8279732,4.25698841 39.7427947,4.32504151 39.7278261,4.41744695 L39.6761488,4.72301872 L39.5941779,4.61226563 C39.3414937,4.26899778 38.7783893,4.15424157 38.2159976,4.15424157 C36.9262034,4.15424157 35.8249422,5.06862173 35.6103922,6.35128926 C35.4991969,6.99112186 35.65708,7.60293259 36.044838,8.02959885 C36.4012332,8.42190497 36.9094528,8.58536585 37.5149683,8.58536585 C38.5542167,8.58536585 39.1305077,7.95987778 39.1305077,7.95987778 L39.078474,8.26344799 C39.0588723,8.37953858 39.1543862,8.48361979 39.2794809,8.48361979 L40.3304904,8.48361979 C40.496927,8.48361979 40.6387723,8.37019796 40.6647891,8.2157441 L41.295965,4.47649302 C41.3152104,4.36140322 41.2196965,4.25698841 41.0946017,4.25698841 L41.0946017,4.25698841 Z M39.4676576,6.38331425 C39.3557495,7.00746795 38.8257898,7.42646156 38.1507773,7.42646156 C37.8125583,7.42646156 37.5409851,7.3247155 37.3670642,7.13189838 C37.194569,6.94041563 37.129705,6.66786963 37.1838771,6.36429942 C37.2897265,5.74548322 37.8271705,5.31281227 38.4918475,5.31281227 C38.8232951,5.31281227 39.0927298,5.4158927 39.2702147,5.61037779 C39.4487687,5.80686445 39.5193349,6.08107842 39.4676576,6.38331425 L39.4676576,6.38331425 Z M42.4706437,2.3071336 L41.4702423,8.26444877 C41.4506406,8.37987217 41.5461545,8.48395339 41.6705364,8.48395339 L42.6762837,8.48395339 C42.843433,8.48395339 42.9852783,8.37053155 43.0109388,8.2160777 L43.9974407,2.36617967 C44.0170425,2.25075627 43.9215286,2.14634146 43.7971466,2.14634146 L42.6709378,2.14634146 C42.5715035,2.14667506 42.4859686,2.21472816 42.4706437,2.3071336 Z" id="Shape" fill="#179BD7"></path>
                            <path d="M2.26789223,9.65853659 L2.45904576,8.51791595 L2.03324488,8.5086454 L0,8.5086454 L1.41300103,0.0920187631 C1.41738696,0.0666105971 1.43164124,0.0429191992 1.45247441,0.0260948731 C1.47330759,0.00927054702 1.49998867,0 1.52776624,0 L4.95610293,0 C6.09425223,0 6.87969951,0.222493129 7.28978414,0.661642375 C7.48203415,0.867654531 7.60447474,1.08293723 7.66368482,1.31985121 C7.72581886,1.56843922 7.72691534,1.86544007 7.66624328,2.22767811 L7.66185735,2.25411634 L7.66185735,2.48622337 L7.85410736,2.58854274 C8.01602134,2.66923084 8.14467534,2.76159295 8.24335881,2.86734586 C8.40783125,3.04348625 8.5141901,3.2673528 8.5591459,3.53276512 C8.60556367,3.80573123 8.59021291,4.13054373 8.5141901,4.49827543 C8.42647146,4.92128706 8.28465966,5.28970546 8.09314064,5.59116992 C7.91697238,5.86894297 7.69255887,6.09933324 7.42611352,6.2778771 C7.17172947,6.44749378 6.86946567,6.57625138 6.52772849,6.65865624 C6.19659064,6.73968769 5.81903501,6.78054676 5.40492995,6.78054676 L5.1381191,6.78054676 C4.94733106,6.78054676 4.76202545,6.84509724 4.61655871,6.9608074 C4.47072648,7.07892104 4.37423598,7.24029723 4.34463094,7.41678097 L4.32452875,7.5194437 L3.986812,9.52977899 L3.97146124,9.60360001 C3.9674408,9.62694805 3.96049641,9.63862208 3.95026257,9.64651921 C3.94112521,9.65372964 3.92796742,9.65853659 3.91517511,9.65853659 L2.26789223,9.65853659 Z" id="Path" fill="#253B80"></path>
                            <path d="M7.74566237,3.2195122 C7.73636319,3.27924933 7.72573556,3.34032137 7.71377948,3.40306205 C7.30295523,5.52256233 5.8974514,6.2547594 4.10237857,6.2547594 L3.18840254,6.2547594 C2.96887559,6.2547594 2.78388844,6.41494837 2.74968076,6.63253838 L2.28173301,9.614723 L2.14921977,10.4600535 C2.12696817,10.6028887 2.23656559,10.7317073 2.38003857,10.7317073 L4.00108398,10.7317073 C4.19304552,10.7317073 4.35611319,10.591542 4.38633551,10.4013176 L4.40227695,10.3185533 L4.70748915,8.37225732 L4.72708384,8.26546467 C4.75697404,8.07457282 4.92037383,7.93440747 5.11233536,7.93440747 L5.35477813,7.93440747 C6.92534231,7.93440747 8.15482605,7.2936516 8.51417273,5.4394643 C8.66428798,4.6648839 8.58657345,4.01812094 8.18936584,3.56325102 C8.0691408,3.42608922 7.92002189,3.31228831 7.74566237,3.2195122 L7.74566237,3.2195122 Z" id="Path" fill="#179BD7"></path>
                            <path d="M8.12379472,2.31671343 C8.05637822,2.2956088 7.98682152,2.27642276 7.91548131,2.25915533 C7.8437844,2.24227163 7.77030399,2.22730652 7.69468337,2.21426002 C7.4300112,2.16821354 7.14001326,2.14634146 6.82932666,2.14634146 L4.20686066,2.14634146 C4.14229777,2.14634146 4.08094519,2.16207401 4.02601323,2.19046934 C3.90509158,2.2530158 3.81520292,2.37619013 3.79344416,2.52699235 L3.23556374,6.32812912 L3.2195122,6.43902439 C3.2562524,6.18883853 3.45493488,6.00465261 3.69071426,6.00465261 L4.67235551,6.00465261 C6.6003246,6.00465261 8.10988337,5.16238578 8.55112255,2.72575965 C8.56432049,2.65362016 8.57537822,2.58339929 8.58536585,2.51471329 C8.47371843,2.45101566 8.35279678,2.39652733 8.2226009,2.35009713 C8.19049781,2.33858551 8.15732461,2.32745761 8.12379472,2.31671343 L8.12379472,2.31671343 Z" id="Path" fill="#222D65"></path>
                            <path d="M3.56018674,2.77156441 C3.58277584,2.63008827 3.67609476,2.51453142 3.80163093,2.45621301 C3.85902947,2.42957374 3.92235302,2.41481414 3.98937971,2.41481414 L6.71192218,2.41481414 C7.03446495,2.41481414 7.33552957,2.43533358 7.61030194,2.4785324 C7.68880833,2.49077207 7.76509285,2.50481169 7.8395258,2.52065125 C7.91358843,2.53685081 7.9857995,2.55485032 8.05578869,2.57464978 C8.09059813,2.58472951 8.12503726,2.59516922 8.15873576,2.60560894 C8.29390006,2.64916775 8.41943623,2.70064635 8.53534426,2.76004473 C8.6716195,1.91514777 8.53423332,1.33988346 8.0643059,0.818977664 C7.54623776,0.245513304 6.61119699,0 5.41471512,0 L1.94117753,0 C1.69677083,0 1.48828452,0.172795287 1.45051257,0.407868876 L0.00369899307,9.32302574 C-0.0248151215,9.49942092 0.115163259,9.65853659 0.298097968,9.65853659 L2.44258157,9.65853659 L2.98101693,6.33762716 L3.56018674,2.77156441 Z" id="Path" fill="#253B80"></path>
                        </g>
                    </g>
                </g>
            </g>
        </g>
    </g>
</svg>