<?xml version="1.0" encoding="UTF-8"?>
<svg width="50px" height="24px" viewBox="0 0 50 24" version="1.1" xmlns="http://www.w3.org/2000/svg" xmlns:xlink="http://www.w3.org/1999/xlink">
    <title>visa</title>
    <g id="--↳-Payment-Options-+-Credit-Card-Input-Component" stroke="none" stroke-width="1" fill="none" fill-rule="evenodd">
        <g id="DT-3535-/-Components-/-Payment-Component-/-Desktop-/-Returning-User-/-Payment-NotAvailable-Clicked" transform="translate(-538.000000, -1117.000000)">
            <g id="Group-2" transform="translate(160.000000, 723.000000)">
                <g id="Components-/-Tab-Switcher-/-Inactive" transform="translate(0.000000, 382.000000)">
                    <g id="visa" transform="translate(378.000000, 12.000000)">
                        <rect id="Rectangle-Copy-13" fill="#FFFFFF" opacity="0" x="0" y="0" width="50" height="24"></rect>
                        <g id="Group" transform="translate(5.000000, 5.500000)" fill="#1434CB" fill-rule="nonzero">
                            <polygon id="Path" points="17.3332896 12.7867562 14.0930893 12.7867562 16.1196921 0.227838689 19.3598924 0.227838689"></polygon>
                            <path d="M29.079585,0.534698038 C28.4404596,0.280578845 27.426754,0 26.1733098,0 C22.9734303,0 20.7201014,1.7101103 20.7062805,4.15505304 C20.679702,5.95892637 22.3195981,6.96084149 23.5461093,7.5623102 C24.7997307,8.17691991 25.2258733,8.57807661 25.2258733,9.12591569 C25.2131156,9.96729709 24.2128764,10.3551352 23.2799695,10.3551352 C21.9863032,10.3551352 21.2931348,10.1551784 20.2397385,9.68707338 L19.8130642,9.48640625 L19.3596343,12.3056909 C20.1196034,12.6526852 21.5197611,12.9606116 22.9734303,12.9741078 C26.3733576,12.9741078 28.5868188,11.2904572 28.613043,8.6849807 C28.6259779,7.2552717 27.7600489,6.15977111 25.8931719,5.26458256 C24.7598629,4.68992865 24.0658085,4.30244573 24.0658085,3.71447322 C24.0790977,3.17995276 24.6528399,2.63246885 25.9321538,2.63246885 C26.9855501,2.60565404 27.7595173,2.85941807 28.34584,3.11335968 L28.6389127,3.24672342 L29.079585,0.534698038 L29.079585,0.534698038 L29.079585,0.534698038 Z" id="Path"></path>
                            <path d="M33.3861951,8.3376312 C33.6530437,7.61611739 34.6798614,4.82364758 34.6798614,4.82364758 C34.666395,4.85046237 34.9461785,4.08881512 35.1061813,3.62124291 L35.3326305,4.70342487 C35.3326305,4.70342487 35.9462404,7.70970286 36.0794875,8.3376312 C35.5730777,8.3376312 34.0262065,8.3376312 33.3861951,8.3376312 L33.3861951,8.3376312 Z M37.3859116,0.227659543 L34.8795549,0.227659543 C34.1066508,0.227659543 33.5194422,0.45460876 33.1859701,1.26970806 L28.3729501,12.7867593 L31.7728775,12.7867593 C31.7728775,12.7867593 32.3326216,11.23665 32.4529338,10.9027966 C32.8259194,10.9027966 36.1333534,10.9027966 36.6131847,10.9027966 C36.7062096,11.3437316 36.9998139,12.7867593 36.9998139,12.7867593 L40,12.7867593 L37.3859116,0.227659543 L37.3859116,0.227659543 L37.3859116,0.227659543 Z" id="Shape"></path>
                            <path d="M5.26662708,0.227659543 C5.97326198,0.254119194 6.54664978,0.481245991 6.73323116,1.28338184 L6.73323116,1.28338184 L7.86654025,7.05495969 L8.21330167,8.7918848 L11.3866026,0.227659543 L14.8129313,0.227659543 L9.71977353,12.7736183 L6.29326764,12.7736183 L3.40666965,1.86157046 C2.409859,1.27731966 1.27212569,0.807448216 0,0.481423574 L0,0.481423574 L0.0533342785,0.227659543 Z" id="Combined-Shape"></path>
                        </g>
                    </g>
                </g>
            </g>
        </g>
    </g>
</svg>