<?xml version="1.0" encoding="UTF-8"?>
<svg width="48px" height="20px" viewBox="0 0 48 20" version="1.1" xmlns="http://www.w3.org/2000/svg" xmlns:xlink="http://www.w3.org/1999/xlink">
    <title>Combined Shape</title>
    <g id="Symbols" stroke="none" stroke-width="1" fill="none" fill-rule="evenodd">
        <g id="Components-/-Login-Component-/-Desktop-/-Express-Checkout-V2" transform="translate(-246.000000, -50.000000)" fill="#FFFFFF" fill-rule="nonzero">
            <g id="Group-4" transform="translate(183.000000, 40.000000)">
                <path d="M102.790785,15.1517735 L105.526269,23.9538455 L105.567127,23.9538455 L108.302616,15.1517735 L110.64698,15.1517735 L106.595315,26.534628 C105.670267,29.1568639 104.600822,30 102.359202,30 C102.173958,30 101.61861,29.9793712 101.454383,29.9486298 L101.454383,28.1491049 C101.618606,28.1901627 101.988706,28.1901627 102.173954,28.1901627 C103.202142,28.1901627 103.75749,27.7583762 104.096648,26.6478807 C104.096648,26.6272519 104.292209,25.9897925 104.292209,25.9794801 L100.384937,15.1517735 L102.790785,15.1517735 Z M95.1468184,14.9564091 C97.7688545,14.9564091 99.4448143,16.3445805 99.4448143,18.5142092 L99.4448143,25.9691638 L97.3162474,25.9691638 L97.3162474,24.1902637 L97.2650769,24.1902637 C96.63793,25.3933871 95.2701877,26.1542118 93.8512709,26.1542118 C91.7330125,26.1542118 90.2522173,24.8380355 90.2522173,22.8947163 C90.2522173,21.0025636 91.7020752,19.8406978 94.2729408,19.6967037 L97.2341357,19.5219682 L97.2341357,18.6891445 C97.2341357,17.4860211 96.421741,16.7662504 95.0647067,16.7662504 C93.7790761,16.7662504 92.9769939,17.3830848 92.7818293,18.349786 L90.6841957,18.349786 C90.8075649,16.3959507 92.4732123,14.9564091 95.1468184,14.9564091 Z M72.9704354,13.8838683 L73.2326309,13.8880367 C73.7466623,13.9277981 75.2293727,14.0860526 76.1783199,15.4895496 C76.0992318,15.5496382 74.4188149,16.518564 74.4387818,18.555596 C74.4583922,20.9884129 76.5733138,21.7997501 76.593171,21.8195329 C76.5733177,21.8792611 76.2576586,22.9672871 75.4865646,24.0940953 C74.8144119,25.0835324 74.1222846,26.052705 73.0151965,26.0724996 C71.9476348,26.0922823 71.5915603,25.4392584 70.3665822,25.4392584 C69.1407034,25.4392584 68.7454119,26.0527089 67.7369087,26.0922823 C66.6695194,26.1313779 65.8594512,25.0429955 65.1872907,24.0545219 C63.8031691,22.0565229 62.755449,18.417559 64.1787875,15.9643522 C64.8707935,14.7380504 66.1361243,13.967019 67.4997973,13.9469895 C68.5475174,13.9277981 69.5162082,14.6398336 70.14914,14.6398336 C70.6973787,14.6398336 71.6164294,14.0158849 72.7140547,13.9008622 L72.9704354,13.8838683 Z M84.7665686,11.1312457 C87.6456517,11.1312457 89.6504617,13.1158264 89.6504617,16.005222 C89.6504617,18.9049339 87.6043981,20.8998231 84.6943738,20.8998231 L81.5066776,20.8998231 L81.5066776,25.9691598 L79.2035669,25.9691598 L79.2035669,11.1312457 L84.7665686,11.1312457 Z M97.2341357,21.0644499 L94.570842,21.2288731 C93.2443533,21.321497 92.4938411,21.9075861 92.4938411,22.8330336 C92.4938411,23.7789102 93.2752945,24.3959405 94.4681054,24.3959405 C96.0206999,24.3959405 97.2341357,23.3264989 97.2341357,21.9178985 L97.2341357,21.0644499 Z M84.1596471,13.0747686 L81.5066736,13.0747686 L81.5066736,18.9666166 L84.1493346,18.9666166 C86.1545402,18.9666166 87.2957811,17.8870583 87.2957811,16.0155344 C87.2957811,14.1442103 86.1545402,13.0747686 84.1596471,13.0747686 Z M73.2429943,10 C73.342339,10.9526132 72.965667,11.8848286 72.4105896,12.5791101 C71.8354945,13.2539104 70.9242015,13.7889543 70.0120665,13.7098349 C69.8931309,12.7971555 70.3493492,11.8259072 70.8648022,11.230896 C71.4388713,10.5360701 72.430439,10.0404037 73.2429943,10 Z" id="Combined-Shape"></path>
            </g>
        </g>
    </g>
</svg>
