<svg xmlns="http://www.w3.org/2000/svg" width="24" height="24" viewBox="0 0 24 24">
  <g fill="none" fill-rule="evenodd">
    <rect width="24" height="24"/>
    <path fill="#000" fill-rule="nonzero" d="M12.2226562,7.15384616 C13.0546875,7.15384616 14.0976562,6.60457725 14.7187499,5.87221858 C15.2812499,5.20851865 15.6914063,4.28162746 15.6914063,3.35473615 C15.6914063,3.22886202 15.6796875,3.10298788 15.6562499,3 C14.7304687,3.03432925 13.6171875,3.60648442 12.9492188,4.37317222 C12.421875,4.95677051 11.9414063,5.87221858 11.9414063,6.81055302 C11.9414063,6.94787027 11.9648437,7.08518753 11.9765625,7.13095991 C12.0351562,7.14240304 12.1289063,7.15384616 12.2226562,7.15384616 Z M9.29296874,21 C10.4296875,21 10.9335938,20.2561983 12.3515625,20.2561983 C13.7929687,20.2561983 14.109375,20.9771137 15.375,20.9771137 C16.6171875,20.9771137 17.4492188,19.8556897 18.234375,18.7571518 C19.1132812,17.4984106 19.4765625,16.2625555 19.5,16.20534 C19.4179687,16.1824539 17.0390625,15.2326764 17.0390625,12.5664335 C17.0390625,10.2549269 18.9140625,9.21360456 19.0195313,9.1335028 C17.7773437,7.39415131 15.890625,7.3483788 15.375,7.3483788 C13.9804687,7.3483788 12.8437499,8.17228223 12.1289063,8.17228223 C11.3554687,8.17228223 10.3359374,7.39415131 9.12890625,7.39415131 C6.83203125,7.39415131 4.5,9.24793381 4.5,12.7495232 C4.5,14.9237126 5.36718751,17.2237762 6.43359375,18.7113795 C7.34765625,19.9701208 8.14453125,21 9.29296874,21 Z"/>
  </g>
</svg>
