<?xml version="1.0" encoding="UTF-8"?>
<svg width="80px" height="20px" viewBox="0 0 80 20" version="1.1" xmlns="http://www.w3.org/2000/svg" xmlns:xlink="http://www.w3.org/1999/xlink">
    <title>Group 26</title>
    <defs>
        <path d="M23.9400092,4.19246238 C24.211892,4.19246238 24.4520354,4.3753793 24.5303587,4.64181141 L24.5303587,4.64181141 L25.7758184,8.89987287 L28.7140033,4.46883233 C28.8292161,4.29585325 29.020189,4.19246238 29.2234428,4.19246238 L29.2234428,4.19246238 L31.3537858,4.19246238 C31.6521881,4.19246238 31.8263358,4.53510793 31.6567323,4.78563016 L31.6567323,4.78563016 L24.57114,15.2568296 C24.4565796,15.4264891 24.267541,15.5272252 24.0655922,15.5272252 L24.0655922,15.5272252 L21.9378358,15.5272252 C21.6381285,15.5272252 21.4633516,15.1819412 21.6368468,14.9307635 L21.6368468,14.9307635 L23.8429032,11.7423519 L21.4963728,4.69217713 C21.4154628,4.44695042 21.5921738,4.19246238 21.846579,4.19246238 L21.846579,4.19246238 L23.9400092,4.19246238 Z M14.8328315,3.98834007 C15.8543205,3.98834007 16.8777204,4.2163272 17.3366843,4.89828235 L17.3366843,4.89828235 L17.4849184,5.11831454 L17.5787852,4.51124312 C17.6066097,4.327673 17.7626271,4.19246238 17.9432298,4.19246238 L17.9432298,4.19246238 L20.0632028,4.19246238 C20.2897602,4.19246238 20.4626028,4.39989731 20.4263425,4.62856096 L20.4263425,4.62856096 L19.2805755,12.0571458 C19.2326866,12.3639918 18.9763473,12.5893219 18.6727483,12.5893219 L18.6727483,12.5893219 L16.76316,12.5893219 C16.5372318,12.5893219 16.36376,12.3825495 16.3993679,12.1519169 L16.3993679,12.1519169 L16.4938639,11.5488206 C16.4938639,11.5488206 15.4471371,12.7914566 13.5595474,12.7914566 C12.4597584,12.7914566 11.5353754,12.4667155 10.8893536,11.6873439 C10.1850729,10.8397114 9.8970174,9.62423881 10.0996187,8.35312834 C10.4893011,5.80491202 12.4901928,3.98834007 14.8328315,3.98834007 Z M6.83001034,0 C8.31172167,0 9.42770666,0.400313019 10.0569032,1.1571519 C10.6297751,1.84638548 10.8194429,2.8305583 10.6213625,4.08312281 C10.1818337,6.94613072 8.49880278,8.3908968 5.58261647,8.3908968 L5.58261647,8.3908968 L4.18116266,8.3908968 C3.87886866,8.3908968 3.62057181,8.6162245 3.57396466,8.92306117 L3.57396466,8.92306117 L3.09106794,12.0578084 C3.04380829,12.3646544 2.78618724,12.5899844 2.48324074,12.5899844 L2.48324074,12.5899844 L0.369722835,12.5899844 C0.14251296,12.5899844 -0.0309588668,12.383212 0.0046489987,12.1539045 L0.0046489987,12.1539045 L1.79513272,0.531534506 C1.84239238,0.225351035 2.10001342,0 2.40295992,0 L2.40295992,0 L6.83001034,0 Z M15.3358159,6.29002328 C14.1285508,6.29002328 13.1511056,7.14959984 12.9601328,8.37897605 C12.8604401,8.98205835 12.9795679,9.52350737 13.2928612,9.90392138 C13.6087645,10.2869715 14.1007263,10.4891109 14.7163136,10.4891109 C15.9423381,10.4891109 16.9036107,9.65671176 17.1081695,8.41674452 C17.2007313,7.81629832 17.0725616,7.27153668 16.7495507,6.88118483 C16.4271923,6.49482212 15.9378172,6.29002328 15.3358159,6.29002328 Z M5.18256397,2.51509018 L4.87637827,2.51509018 C4.69514635,2.51509018 4.53978141,2.65027747 4.51193363,2.83387091 L4.51193363,2.83387091 L4.0432754,5.87118762 L4.9462726,5.87070574 C6.04242152,5.86395939 7.11477073,5.76276407 7.34073153,4.24483433 C7.42942494,3.67354847 7.35820921,3.26000832 7.12582594,2.98165547 C6.73614353,2.51509018 5.98201648,2.51509018 5.18256397,2.51509018 L5.18256397,2.51509018 Z" id="path-1"></path>
        <path d="M14.8341374,3.98899326 C15.8556031,3.98899326 16.8783738,4.21698039 17.3373144,4.89893554 L17.3373144,4.89893554 L17.486201,5.11896773 L17.5800678,4.51189631 C17.607263,4.32832619 17.7619755,4.19311557 17.9438599,4.19311557 L17.9438599,4.19311557 L20.0625512,4.19311557 C20.2897611,4.19311557 20.4632329,4.4005505 20.4282775,4.62921415 L20.4282775,4.62921415 L19.2818814,12.057799 C19.2346217,12.364645 18.9769774,12.5899751 18.6746834,12.5899751 L18.6746834,12.5899751 L16.7657476,12.5899751 C16.5385377,12.5899751 16.3650426,12.3832027 16.4006504,12.1525701 L16.4006504,12.1525701 L16.4951464,11.5494738 C16.4951464,11.5494738 16.4898061,11.5558138 16.4792005,11.5675881 L16.3529829,11.6961991 C16.0079471,12.0249723 15.0439595,12.7921098 13.5608532,12.7921098 C12.4610409,12.7921098 11.5379629,12.4673687 10.8906362,11.6879971 C10.1863555,10.8403646 9.89960497,9.624892 10.1015538,8.35378153 C10.4912595,5.80556521 12.4914754,3.98899326 14.8341374,3.98899326 Z M6.82998791,0.000653191406 C8.31172254,0.000653191406 9.42705504,0.40096621 10.0555991,1.15780509 C10.6284709,1.84703867 10.8194438,2.83121149 10.6207109,4.083776 C10.1805296,6.94678391 8.49815116,8.39154999 5.58131235,8.39154999 L5.58131235,8.39154999 L4.18051103,8.39154999 C3.87821704,8.39154999 3.61992019,8.6168777 3.57331303,8.92371436 L3.57331303,8.92371436 L3.06517854,12.2181809 C3.03215737,12.4329059 2.85155465,12.5906376 2.64054076,12.5906376 L2.64054076,12.5906376 L0.368442013,12.5906376 C0.142513835,12.5906376 -0.030957992,12.3838652 0.0046498735,12.1545577 L0.0046498735,12.1545577 L1.7951336,0.532187698 C1.84239325,0.226004226 2.1000143,0.000653191406 2.40230829,0.000653191406 L2.40230829,0.000653191406 L6.82998791,0.000653191406 Z M24.9711933,0 C25.1970982,0 25.3705933,0.207434928 25.3349855,0.436751768 L25.3349855,0.436751768 L23.5431968,12.0584616 C23.4965896,12.3653076 23.2389453,12.5906376 22.9353696,12.5906376 L22.9353696,12.5906376 L21.1086255,12.5906376 C20.8826973,12.5906376 20.7092255,12.3838652 20.7448333,12.1545577 L20.7448333,12.1545577 L22.5618598,0.319433926 C22.5896843,0.135863812 22.7450492,0.000653191406 22.925652,0 L22.925652,0 L24.9711933,0 Z M15.3351643,6.29067647 C14.1278992,6.29067647 13.1517356,7.15025304 12.9594811,8.37962925 C12.8610934,8.98271154 12.9789163,9.52416056 13.2922096,9.90457457 C13.6081129,10.2876247 14.1013564,10.4897641 14.715662,10.4897641 C15.9416865,10.4897641 16.904264,9.65736495 17.1075178,8.41739771 C17.2013846,7.81695151 17.073215,7.27218987 16.7488991,6.88183802 C16.4265407,6.49547531 15.9371656,6.29067647 15.3351643,6.29067647 Z M5.18321734,2.51574337 L4.87703165,2.51574337 C4.69512392,2.51574337 4.54106398,2.65093066 4.51323951,2.83452411 L4.51323951,2.83452411 L4.04392877,5.87184081 L4.94639527,5.87135893 C6.043072,5.86461258 7.1153806,5.76341726 7.3407324,4.24548753 C7.42942582,3.67420166 7.35886259,3.26066151 7.12647932,2.98230866 C6.7367736,2.51574337 5.98201735,2.51574337 5.18321734,2.51574337 L5.18321734,2.51574337 Z" id="path-3"></path>
        <path d="M9.46512691,0 C11.5566136,0 13.1911032,0.451985124 14.0967035,1.50770573 C14.9181546,2.46668403 15.1583213,3.52574058 14.9201121,5.08117595 C14.7174875,4.97183637 14.498061,4.87705363 14.261786,4.79687439 C14.2028746,4.7776519 14.1426815,4.75842941 14.0818358,4.73986011 C13.959492,4.70342136 13.8332566,4.67027189 13.7037819,4.64045837 C13.573678,4.61129804 13.440335,4.58545032 13.3031002,4.56291522 C12.8227902,4.48338917 12.2965022,4.44562071 11.7326954,4.44562071 L11.7326954,4.44562071 L6.9735877,4.44562071 C6.85642198,4.44562071 6.74572999,4.47277481 6.64539411,4.52183415 C6.42595364,4.62919082 6.26282861,4.84192126 6.22334069,5.10238134 L6.22334069,5.10238134 L5.21093078,11.6674449 L4.26972494,17.7811648 L0.521085924,17.7811648 C0.201309581,17.7811648 -0.0433779769,17.4882341 0.00646604374,17.1634953 L0.00646604374,17.1634953 L2.53554965,0.750866849 C2.601578,0.318104215 2.96602031,0 3.39325178,0 L3.39325178,0 L9.46512691,0 Z" id="path-5"></path>
        <path d="M8.77768141,0 C10.7934478,0 12.1845315,0.429473349 12.9108341,1.27710584 C13.2513227,1.67473611 13.4681625,2.09028248 13.5730286,2.54756312 C13.6830913,3.02737887 13.6850255,3.60064764 13.5775727,4.29984238 L13.5698127,4.3508613 L13.5698127,4.79888062 L13.9103012,4.9963777 C14.1970517,5.1521172 14.4249141,5.33039179 14.5996909,5.53451411 C14.8909856,5.87450024 15.0793485,6.30658635 15.1589768,6.81889837 C15.2411918,7.34576722 15.2139965,7.97271433 15.0793485,8.6825001 C14.9240068,9.49898936 14.6728409,10.2101048 14.333634,10.7919817 C14.0216224,11.3281353 13.6241799,11.772842 13.1522825,12.1174471 C12.7017544,12.4448359 12.1664013,12.6933753 11.5611608,12.8524274 C10.9746797,13.0088201 10.3060069,13.0876929 9.57259206,13.0876929 L9.10004678,13.0876929 C8.76214492,13.0876929 8.43395365,13.2122892 8.17631863,13.435634 C7.9180381,13.6636211 7.74714364,13.9751001 7.6947106,14.3157394 L7.65910972,14.513913 L7.0609838,18.3942152 L7.03379552,18.536702 C7.02667628,18.5817675 7.01437665,18.6043026 6.99625113,18.6195453 C6.98006913,18.6334629 6.95676555,18.6427406 6.93410981,18.6427406 L4.01663015,18.6427406 L4.35517986,16.4411356 L3.60105047,16.4232405 L4.13954682e-15,16.4232405 L2.50254549,0.177621406 C2.51031257,0.128585394 2.53555967,0.0828619955 2.57245622,0.0503890513 C2.60935277,0.0178927789 2.65660777,0 2.70580395,0 L8.77768141,0 Z" id="path-7"></path>
        <path d="M10.9136253,0 C11.2534613,0.184246633 11.5441268,0.410227531 11.7784443,0.682608347 C12.5526357,1.5859254 12.704109,2.87030966 12.4115326,4.40850544 C11.7111203,8.09066203 9.31474353,9.36312555 6.25355771,9.36312555 L6.25355771,9.36312555 L5.78101243,9.36312555 C5.40685953,9.36312555 5.08837886,9.64145507 5.03011992,10.0205394 L5.03011992,10.0205394 L4.99192769,10.2326166 L4.39703864,14.0976948 L4.36596798,14.2620541 C4.3070612,14.6398133 3.98922604,14.9181615 3.61507546,14.9181615 L3.61507546,14.9181615 L0.455497271,14.9181615 C0.175854348,14.9181615 -0.0377602204,14.6623461 0.0056100666,14.3786954 L0.0056100666,14.3786954 L0.263890601,12.6999888 L1.17596697,6.77779397 C1.24264083,6.34568452 1.60319843,6.02758031 2.03107774,6.02758031 L2.03107774,6.02758031 L3.81250803,6.02758031 C7.31128842,6.02758031 10.0507404,4.57352958 10.8514746,0.364504133 C10.8747782,0.239907872 10.8954951,0.118624225 10.9136253,0 Z" id="path-9"></path>
        <path d="M6.55089414,0 C7.11470088,0 7.64098886,0.0377917885 8.12129888,0.117317842 C8.25853365,0.139852946 8.39187672,0.165700663 8.52198059,0.194860993 C8.65145526,0.224674515 8.77769074,0.257800651 8.90003451,0.294262728 C8.96088015,0.312808699 9.02107329,0.332031188 9.07933224,0.351930198 C9.3156072,0.432109443 9.53505699,0.526215662 9.73765828,0.636231757 C9.7195281,0.754855982 9.69946372,0.876139629 9.67550764,1.00073589 C8.87477344,5.20910815 6.13532145,6.66381206 2.63654106,6.66381206 L2.63654106,6.66381206 L0.855110773,6.66381206 C0.427231467,6.66381206 0.0666738639,6.98191628 0,7.41402572 L0,7.41402572 L0.0291294711,7.22250067 L1.04153939,0.65743715 C1.0810273,0.396977077 1.24415234,0.184246633 1.4635928,0.0762134401 C1.56328084,0.0271774281 1.67462067,0 1.79178639,0 L1.79178639,0 L6.55089414,0 Z" id="path-11"></path>
    </defs>
    <g id="Symbols" stroke="none" stroke-width="1" fill="none" fill-rule="evenodd">
        <g id="Components-/-Login-Component-/-Desktop-/-Express-Checkout-V2" transform="translate(-75.000000, -50.000000)">
            <g id="Group-3" transform="translate(0.000000, 40.000000)">
                <g id="Group-2" transform="translate(19.000000, 10.000000)">
                    <g id="Group-26" transform="translate(56.000000, 0.000000)">
                        <g id="Group" transform="translate(0.000000, 0.000000)">
                            <g id="Group-10" transform="translate(23.083367, 4.472775)">
                                <mask id="mask-2" fill="white">
                                    <use xlink:href="#path-1"></use>
                                </mask>
                                <g id="Clip-9"></g>
                                <polygon id="Fill-8" fill="#253B80" mask="url(#mask-2)" points="-11.6518002 -11.6641322 43.3750292 -11.6641322 43.3750292 27.1913574 -11.6518002 27.1913574"></polygon>
                            </g>
                            <g id="Group-13" transform="translate(54.660365, 4.472122)">
                                <mask id="mask-4" fill="white">
                                    <use xlink:href="#path-3"></use>
                                </mask>
                                <g id="Clip-12"></g>
                                <polygon id="Fill-11" fill="#179BD7" mask="url(#mask-4)" points="-11.6517993 -11.6641322 36.9914113 -11.6641322 36.9914113 24.4562421 -11.6517993 24.4562421"></polygon>
                            </g>
                            <g id="Group-25" transform="translate(0.000000, 0.000000)">
                                <mask id="mask-6" fill="white">
                                    <use xlink:href="#path-5"></use>
                                </mask>
                                <g id="Clip-24"></g>
                                <polygon id="Fill-23" fill="#253B80" mask="url(#mask-6)" points="-11.6517894 -11.6641322 26.6593356 -11.6641322 26.6593356 29.445297 -11.6517894 29.445297"></polygon>
                            </g>
                        </g>
                        <g id="Group-16" transform="translate(0.686800, 0.678619)">
                            <mask id="mask-8" fill="white">
                                <use xlink:href="#path-7"></use>
                            </mask>
                            <g id="Clip-15"></g>
                            <polygon id="Fill-14" fill="#253B80" mask="url(#mask-8)" points="-11.6517885 -11.6641322 26.8572093 -11.6641322 26.8572093 30.3068728 -11.6517885 30.3068728"></polygon>
                        </g>
                        <g id="Group-19" transform="translate(4.005834, 5.081176)">
                            <mask id="mask-10" fill="white">
                                <use xlink:href="#path-9"></use>
                            </mask>
                            <g id="Clip-18"></g>
                            <polygon id="Fill-17" fill="#179BD7" mask="url(#mask-10)" points="-11.6517899 -11.6641322 24.2020705 -11.6641322 24.2020705 26.5822938 -11.6517899 26.5822938"></polygon>
                        </g>
                        <g id="Group-22" transform="translate(5.181801, 4.444944)">
                            <mask id="mask-12" fill="white">
                                <use xlink:href="#path-11"></use>
                            </mask>
                            <g id="Clip-21"></g>
                            <polygon id="Fill-20" fill="#222D65" mask="url(#mask-12)" points="-11.6517885 -11.6641322 21.3894467 -11.6641322 21.3894467 19.0781533 -11.6517885 19.0781533"></polygon>
                        </g>
                    </g>
                </g>
            </g>
        </g>
    </g>
</svg>
