<svg width="20" height="20" xmlns="http://www.w3.org/2000/svg">
    <path d="M10 1.667A8.358 8.358 0 0 1 18.333 10 8.333 8.333 0 1 1 10 1.667zM7.639 6.733a.348.348 0 0 0-.395 0l-.048.04-.423.423-.04.048a.348.348 0 0 0 0 .395l.04.048L9.086 10l-2.313 2.313a.347.347 0 0 0-.04.443l.04.048.423.423.048.04a.348.348 0 0 0 .395 0l.048-.04L10 10.914l2.313 2.313c.12.12.308.134.443.04l.048-.04.423-.423a.347.347 0 0 0 .04-.443l-.04-.048L10.914 10l2.313-2.313.04-.048a.348.348 0 0 0 0-.395l-.04-.048-.423-.423a.347.347 0 0 0-.443-.04l-.048.04L10 9.086 7.687 6.773l-.048-.04z" fill="#FFF" fill-rule="nonzero"/>
</svg>
