<svg width="20" height="20" xmlns="http://www.w3.org/2000/svg">
    <path d="M10 1.667c4.595 0 8.333 3.738 8.333 8.333 0 4.595-3.738 8.333-8.333 8.333-4.595 0-8.333-3.738-8.333-8.333 0-4.595 3.738-8.333 8.333-8.333zm.694 7.291H8.958a.347.347 0 0 0-.341.285l-.006.063v.132c0 .11.052.212.137.276l.055.035.503.251v3.82l-.503.25a.347.347 0 0 0-.186.247l-.006.064v.133c0 .17.123.312.285.342l.062.005h2.43c.171 0 .313-.123.343-.285l.005-.062v-.133a.347.347 0 0 0-.137-.276l-.055-.034-.502-.252V9.306a.347.347 0 0 0-.285-.342l-.063-.006zm-.52-3.82a1.042 1.042 0 1 0 0 2.084 1.042 1.042 0 0 0 0-2.083z" fill="#FFF" fill-rule="nonzero"/>
</svg>
